999
dxflib 3.12.2.0
  0
SECTION
  2
HEADER
  9
$ACADVER
  1
AC1015
  9
$HANDSEED
  5
FFFF
  9
$ANGBASE
 50
0.0
  9
$ATTMODE
 70
1
  9
$AUNITS
 70
0
  9
$AUPREC
 70
0
  9
$CELTSCALE
 40
1.0
  9
$CHAMFERA
 40
0.0
  9
$CHAMFERB
 40
0.0
  9
$CHAMFERC
 40
0.0
  9
$CHAMFERD
 40
0.0
  9
$CMLJUST
 70
0
  9
$CMLSCALE
 40
1.0
  9
$DIMADEC
 70
0
  9
$DIMALTD
 70
2
  9
$DIMALTF
 40
25.399999999999999
  9
$DIMALTRND
 40
0.0
  9
$DIMALTTD
 70
2
  9
$DIMALTTZ
 70
0
  9
$DIMALTU
 70
2
  9
$DIMALTZ
 70
0
  9
$DIMAPOST
  1

  9
$DIMASZ
 40
0.18
  9
$DIMATFIT
 70
3
  9
$DIMAUNIT
 70
0
  9
$DIMAZIN
 70
0
  9
$DIMCEN
 40
0.09
  9
$DIMDEC
 70
4
  9
$DIMDLE
 40
0.0
  9
$DIMDLI
 40
0.38
  9
$DIMDSEP
 70
46
  9
$DIMEXE
 40
0.18
  9
$DIMEXO
 40
0.0625
  9
$DIMFRAC
 70
0
  9
$DIMGAP
 40
0.09
  9
$DIMJUST
 70
0
  9
$DIMLFAC
 40
1.0
  9
$DIMLUNIT
 70
2
  9
$DIMLWD
 70
-2
  9
$DIMLWE
 70
-2
  9
$DIMPOST
  1

  9
$DIMRND
 40
0.0
  9
$DIMSCALE
 40
1.0
  9
$DIMTAD
 70
0
  9
$DIMTDEC
 70
4
  9
$DIMTFAC
 40
1.0
  9
$DIMTM
 40
0.0
  9
$DIMTOLJ
 70
1
  9
$DIMTP
 40
0.0
  9
$DIMTSZ
 40
0.0
  9
$DIMTVP
 40
0.0
  9
$DIMTXT
 40
0.18
  9
$DIMTZIN
 70
0
  9
$DIMZIN
 70
0
  9
$DWGCODEPAGE
  3
ANSI_1252
  9
$ELEVATION
 40
0.0
  9
$EXTMAX
 10
-100000000000000000000.0
 20
-100000000000000000000.0
 30
-100000000000000000000.0
  9
$EXTMIN
 10
100000000000000000000.0
 20
100000000000000000000.0
 30
100000000000000000000.0
  9
$FILLETRAD
 40
0.5
  9
$INSBASE
 10
0.0
 20
0.0
 30
0.0
  9
$INSUNITS
 70
0
  9
$LIMMAX
 10
12.0
 20
9.0
  9
$LIMMIN
 10
0.0
 20
0.0
  9
$LTSCALE
 40
1.0
  9
$LUNITS
 70
2
  9
$LUPREC
 70
4
  9
$MAXACTVP
 70
2
  9
$MEASUREMENT
 70
1
  9
$PDMODE
 70
0
  9
$PDSIZE
 40
0.0
  9
$PELEVATION
 40
0.0
  9
$PEXTMAX
 10
-100000000000000000000.0
 20
-100000000000000000000.0
 30
-100000000000000000000.0
  9
$PEXTMIN
 10
100000000000000000000.0
 20
100000000000000000000.0
 30
100000000000000000000.0
  9
$PINSBASE
 10
0.0
 20
0.0
 30
0.0
  9
$PLIMMAX
 10
12.0
 20
9.0
  9
$PLIMMIN
 10
0.0
 20
0.0
  9
$PLINEWID
 40
0.0
  9
$PROXYGRAPHICS
 70
1
  9
$PUCSORG
 10
0.0
 20
0.0
 30
0.0
  9
$PUCSXDIR
 10
1.0
 20
0.0
 30
0.0
  9
$PUCSYDIR
 10
0.0
 20
1.0
 30
0.0
  9
$SHADEDGE
 70
3
  9
$SHADEDIF
 70
70
  9
$SKETCHINC
 40
0.1
  9
$SPLINESEGS
 70
8
  9
$SPLINETYPE
 70
6
  9
$SURFTAB1
 70
6
  9
$SURFTAB2
 70
6
  9
$SURFTYPE
 70
6
  9
$SURFU
 70
6
  9
$SURFV
 70
6
  9
$TEXTSIZE
 40
2.5
  9
$THICKNESS
 40
0.0
  9
$TRACEWID
 40
0.05
  9
$TREEDEPTH
 70
3020
  9
$UCSORG
 10
0.0
 20
0.0
 30
0.0
  9
$UCSXDIR
 10
1.0
 20
0.0
 30
0.0
  9
$UCSYDIR
 10
0.0
 20
1.0
 30
0.0
  9
$UNITMODE
 70
0
  9
$USERI1
 70
0
  9
$USERI2
 70
0
  9
$USERI3
 70
0
  9
$USERI4
 70
0
  9
$USERI5
 70
0
  9
$USERR1
 40
0.0
  9
$USERR2
 40
0.0
  9
$USERR3
 40
0.0
  9
$USERR4
 40
0.0
  9
$USERR5
 40
0.0
  0
ENDSEC
  0
SECTION
  2
TABLES
  0
TABLE
  2
VPORT
  5
8
100
AcDbSymbolTable
 70
1
  0
VPORT
  5
30
100
AcDbSymbolTableRecord
100
AcDbViewportTableRecord
  2
*Active
 70
0
 10
0.0
 20
0.0
 11
1.0
 21
1.0
 12
286.30555555555549
 22
148.5
 13
0.0
 23
0.0
 14
10.0
 24
10.0
 15
10.0
 25
10.0
 16
0.0
 26
0.0
 36
1.0
 17
0.0
 27
0.0
 37
0.0
 40
297.0
 41
1.92798353909465
 42
50.0
 43
0.0
 44
0.0
 50
0.0
 51
0.0
 71
0
 72
100
 73
1
 74
3
 75
1
 76
1
 77
0
 78
0
281
0
 65
1
110
0.0
120
0.0
130
0.0
111
1.0
121
0.0
131
0.0
112
0.0
122
1.0
132
0.0
 79
0
146
0.0
  0
ENDTAB
  0
TABLE
  2
LTYPE
  5
5
100
AcDbSymbolTable
 70
54
  0
LTYPE
  5
16
100
AcDbSymbolTableRecord
100
AcDbLinetypeTableRecord
  2
CONTINUOUS
 70
0
  3
Solid line
 72
65
 73
0
 40
0.0
  0
LTYPE
  5
31
100
AcDbSymbolTableRecord
100
AcDbLinetypeTableRecord
  2
CUTLEFT2
 70
0
  3
G41 reversed----/----/----/----
 72
65
 73
2
 40
10.16
 49
5.0800000000000001
 74
0
 49
5.0800000000000001
 74
0
  0
LTYPE
  5
32
100
AcDbSymbolTableRecord
100
AcDbLinetypeTableRecord
  2
ACAD_ISO15W100
 70
0
  3
ISO double-dash triple-dot __ __ . . . __ __ . .
 72
65
 73
10
 40
39.0
 49
12.0
 74
0
 49
-3.0
 74
0
 49
12.0
 74
0
 49
-3.0
 74
0
 49
0.0
 74
0
 49
-3.0
 74
0
 49
0.0
 74
0
 49
-3.0
 74
0
 49
0.0
 74
0
 49
-3.0
 74
0
  0
LTYPE
  5
33
100
AcDbSymbolTableRecord
100
AcDbLinetypeTableRecord
  2
TRACKS
 70
0
  3
Tracks -|-|-|-|-|-|-|-|-|-|-|-|-|-|-|-|-|-|-|-|-|-|-|-|-
 72
65
 73
2
 40
7.6200000000000001
 49
3.8100000000000001
 74
0
 49
3.8100000000000001
 74
0
  0
LTYPE
  5
34
100
AcDbSymbolTableRecord
100
AcDbLinetypeTableRecord
  2
ACAD_ISO05W100
 70
0
  3
ISO long-dash double-dot ____ .. ____ .. ____ . 
 72
65
 73
6
 40
33.0
 49
24.0
 74
0
 49
-3.0
 74
0
 49
0.0
 74
0
 49
-3.0
 74
0
 49
0.0
 74
0
 49
-3.0
 74
0
  0
LTYPE
  5
35
100
AcDbSymbolTableRecord
100
AcDbLinetypeTableRecord
  2
HIDDENX2
 70
0
  3
Hidden (2x) ____ ____ ____ ____ ____ ____ ____ 
 72
65
 73
2
 40
19.049999999999997
 49
12.699999999999999
 74
0
 49
-6.3499999999999996
 74
0
  0
LTYPE
  5
36
100
AcDbSymbolTableRecord
100
AcDbLinetypeTableRecord
  2
PHANTOMX2
 70
0
  3
Phantom (2x) ____________    ____    ____   _
 72
65
 73
6
 40
127.00000000000001
 49
63.5
 74
0
 49
-12.699999999999999
 74
0
 49
12.699999999999999
 74
0
 49
-12.699999999999999
 74
0
 49
12.699999999999999
 74
0
 49
-12.699999999999999
 74
0
  0
LTYPE
  5
37
100
AcDbSymbolTableRecord
100
AcDbLinetypeTableRecord
  2
DOTX2
 70
0
  3
Dot (2x) .  .  .  .  .  .  .  .  .  .  .  .  .  .
 72
65
 73
2
 40
12.699999999999999
 49
0.0
 74
0
 49
-12.699999999999999
 74
0
  0
LTYPE
  5
15
100
AcDbSymbolTableRecord
100
AcDbLinetypeTableRecord
  2
BYLAYER
 70
0
  3

 72
65
 73
0
 40
0.0
  0
LTYPE
  5
38
100
AcDbSymbolTableRecord
100
AcDbLinetypeTableRecord
  2
ACAD_ISO10W100
 70
0
  3
ISO dash dot __ . __ . __ . __ . __ . __ . __ . 
 72
65
 73
4
 40
18.0
 49
12.0
 74
0
 49
-3.0
 74
0
 49
0.0
 74
0
 49
-3.0
 74
0
  0
LTYPE
  5
39
100
AcDbSymbolTableRecord
100
AcDbLinetypeTableRecord
  2
BORDER2
 70
0
  3
Border (.5x) __.__.__.__.__.__.__.__.__.__.__.
 72
65
 73
6
 40
22.224999999999998
 49
6.3499999999999996
 74
0
 49
-3.1749999999999998
 74
0
 49
6.3499999999999996
 74
0
 49
-3.1749999999999998
 74
0
 49
0.0
 74
0
 49
-3.1749999999999998
 74
0
  0
LTYPE
  5
3A
100
AcDbSymbolTableRecord
100
AcDbLinetypeTableRecord
  2
ACAD_ISO04W100
 70
0
  3
ISO long-dash dot ____ . ____ . ____ . ____ . _
 72
65
 73
4
 40
30.0
 49
24.0
 74
0
 49
-3.0
 74
0
 49
0.0
 74
0
 49
-3.0
 74
0
  0
LTYPE
  5
3B
100
AcDbSymbolTableRecord
100
AcDbLinetypeTableRecord
  2
CENTER
 70
0
  3
Center ____ _ ____ _ ____ _ ____ _ ____ _ ____
 72
65
 73
4
 40
50.800000000000004
 49
31.75
 74
0
 49
-6.3499999999999996
 74
0
 49
6.3499999999999996
 74
0
 49
-6.3499999999999996
 74
0
  0
LTYPE
  5
3C
100
AcDbSymbolTableRecord
100
AcDbLinetypeTableRecord
  2
FENCELINE2
 70
0
  3
Fenceline square ----[]-----[]----[]-----[]----[]---
 72
65
 73
4
 40
36.829999999999998
 49
6.3499999999999996
 74
0
 49
-2.54
 74
0
 49
-2.54
 74
0
 49
25.399999999999999
 74
0
  0
LTYPE
  5
3D
100
AcDbSymbolTableRecord
100
AcDbLinetypeTableRecord
  2
CUTLEFT
 70
0
  3
G41 ----\----\----\----
 72
65
 73
2
 40
10.16
 49
5.0800000000000001
 74
0
 49
5.0800000000000001
 74
0
  0
LTYPE
  5
3E
100
AcDbSymbolTableRecord
100
AcDbLinetypeTableRecord
  2
BORDERX2
 70
0
  3
Border (2x) ____  ____  .  ____  ____  .  ___
 72
65
 73
6
 40
88.899999999999991
 49
25.399999999999999
 74
0
 49
-12.699999999999999
 74
0
 49
25.399999999999999
 74
0
 49
-12.699999999999999
 74
0
 49
0.0
 74
0
 49
-12.699999999999999
 74
0
  0
LTYPE
  5
3F
100
AcDbSymbolTableRecord
100
AcDbLinetypeTableRecord
  2
ACAD_ISO13W100
 70
0
  3
ISO double-dash double-dot __ __ . . __ __ . . _
 72
65
 73
8
 40
36.0
 49
12.0
 74
0
 49
-3.0
 74
0
 49
12.0
 74
0
 49
-3.0
 74
0
 49
0.0
 74
0
 49
-3.0
 74
0
 49
0.0
 74
0
 49
-3.0
 74
0
  0
LTYPE
  5
40
100
AcDbSymbolTableRecord
100
AcDbLinetypeTableRecord
  2
ACAD_ISO07W100
 70
0
  3
ISO dot . . . . . . . . . . . . . . . . . . . . 
 72
65
 73
2
 40
3.0
 49
0.0
 74
0
 49
-3.0
 74
0
  0
LTYPE
  5
41
100
AcDbSymbolTableRecord
100
AcDbLinetypeTableRecord
  2
DOT2
 70
0
  3
Dot (.5x) ........................................
 72
65
 73
2
 40
3.1749999999999998
 49
0.0
 74
0
 49
-3.1749999999999998
 74
0
  0
LTYPE
  5
42
100
AcDbSymbolTableRecord
100
AcDbLinetypeTableRecord
  2
DASHDOT
 70
0
  3
Dash dot __ . __ . __ . __ . __ . __ . __ . __
 72
65
 73
4
 40
25.399999999999999
 49
12.699999999999999
 74
0
 49
-6.3499999999999996
 74
0
 49
0.0
 74
0
 49
-6.3499999999999996
 74
0
  0
LTYPE
  5
43
100
AcDbSymbolTableRecord
100
AcDbLinetypeTableRecord
  2
ZIGZAG
 70
0
  3
Zig zag /\/\/\/\/\/\/\/\/\/\/\/\/\/\/\/\/\/\/\/\/\/\/\/
 72
65
 73
4
 40
20.32254
 49
0.00254
 74
0
 49
-5.0800000000000001
 74
0
 49
-10.16
 74
0
 49
-5.0800000000000001
 74
0
  0
LTYPE
  5
44
100
AcDbSymbolTableRecord
100
AcDbLinetypeTableRecord
  2
ACAD_ISO09W100
 70
0
  3
ISO long-dash double-short-dash ____ __ __ ____
 72
65
 73
6
 40
45.0
 49
24.0
 74
0
 49
-3.0
 74
0
 49
6.0
 74
0
 49
-3.0
 74
0
 49
6.0
 74
0
 49
-3.0
 74
0
  0
LTYPE
  5
45
100
AcDbSymbolTableRecord
100
AcDbLinetypeTableRecord
  2
ACAD_ISO11W100
 70
0
  3
ISO double-dash dot __ __ . __ __ . __ __ . __ _
 72
65
 73
6
 40
33.0
 49
12.0
 74
0
 49
-3.0
 74
0
 49
12.0
 74
0
 49
-3.0
 74
0
 49
0.0
 74
0
 49
-3.0
 74
0
  0
LTYPE
  5
46
100
AcDbSymbolTableRecord
100
AcDbLinetypeTableRecord
  2
CENTER2
 70
0
  3
Center (.5x) ___ _ ___ _ ___ _ ___ _ ___ _ ___
 72
65
 73
4
 40
28.575000000000003
 49
19.050000000000001
 74
0
 49
-3.1749999999999998
 74
0
 49
3.1749999999999998
 74
0
 49
-3.1749999999999998
 74
0
  0
LTYPE
  5
47
100
AcDbSymbolTableRecord
100
AcDbLinetypeTableRecord
  2
DRAINAGE
 70
0
  3
Drainage ---->---->---->----
 72
65
 73
2
 40
10.16
 49
5.0800000000000001
 74
0
 49
5.0800000000000001
 74
0
  0
LTYPE
  5
48
100
AcDbSymbolTableRecord
100
AcDbLinetypeTableRecord
  2
HOT_WATER_SUPPLY
 70
0
  3
Hot water supply ---- HW ---- HW ---- HW ----
 72
65
 73
3
 40
22.859999999999999
 49
12.699999999999999
 74
0
 49
-5.0800000000000001
 74
0
 49
-5.0800000000000001
 74
0
  0
LTYPE
  5
49
100
AcDbSymbolTableRecord
100
AcDbLinetypeTableRecord
  2
PHANTOM2
 70
0
  3
Phantom (.5x) ___ _ _ ___ _ _ ___ _ _ ___ _ _
 72
65
 73
6
 40
31.750000000000004
 49
15.875
 74
0
 49
-3.1749999999999998
 74
0
 49
3.1749999999999998
 74
0
 49
-3.1749999999999998
 74
0
 49
3.1749999999999998
 74
0
 49
-3.1749999999999998
 74
0
  0
LTYPE
  5
4A
100
AcDbSymbolTableRecord
100
AcDbLinetypeTableRecord
  2
DASHDOT2
 70
0
  3
Dash dot (.5x) _._._._._._._._._._._._._._._.
 72
65
 73
4
 40
12.699999999999999
 49
6.3499999999999996
 74
0
 49
-3.1749999999999998
 74
0
 49
0.0
 74
0
 49
-3.1749999999999998
 74
0
  0
LTYPE
  5
4B
100
AcDbSymbolTableRecord
100
AcDbLinetypeTableRecord
  2
FENCELINE1
 70
0
  3
Fenceline circle ----0-----0----0-----0----0-----0--
 72
65
 73
4
 40
36.829999999999998
 49
6.3499999999999996
 74
0
 49
-2.54
 74
0
 49
-2.54
 74
0
 49
25.399999999999999
 74
0
  0
LTYPE
  5
4C
100
AcDbSymbolTableRecord
100
AcDbLinetypeTableRecord
  2
BORDER
 70
0
  3
Border __ __ . __ __ . __ __ . __ __ . __ __ .
 72
65
 73
6
 40
44.449999999999996
 49
12.699999999999999
 74
0
 49
-6.3499999999999996
 74
0
 49
12.699999999999999
 74
0
 49
-6.3499999999999996
 74
0
 49
0.0
 74
0
 49
-6.3499999999999996
 74
0
  0
LTYPE
  5
4D
100
AcDbSymbolTableRecord
100
AcDbLinetypeTableRecord
  2
ACAD_ISO08W100
 70
0
  3
ISO long-dash short-dash ____ __ ____ __ ____ _
 72
65
 73
4
 40
36.0
 49
24.0
 74
0
 49
-3.0
 74
0
 49
6.0
 74
0
 49
-3.0
 74
0
  0
LTYPE
  5
4E
100
AcDbSymbolTableRecord
100
AcDbLinetypeTableRecord
  2
DOT
 70
0
  3
Dot . . . . . . . . . . . . . . . . . . . . . . . .
 72
65
 73
2
 40
6.3499999999999996
 49
0.0
 74
0
 49
-6.3499999999999996
 74
0
  0
LTYPE
  5
4F
100
AcDbSymbolTableRecord
100
AcDbLinetypeTableRecord
  2
DASHDOTX2
 70
0
  3
Dash dot (2x) ____  .  ____  .  ____  .  ___
 72
65
 73
4
 40
50.799999999999997
 49
25.399999999999999
 74
0
 49
-12.699999999999999
 74
0
 49
0.0
 74
0
 49
-12.699999999999999
 74
0
  0
LTYPE
  5
50
100
AcDbSymbolTableRecord
100
AcDbLinetypeTableRecord
  2
HIDDEN2
 70
0
  3
Hidden (.5x) _ _ _ _ _ _ _ _ _ _ _ _ _ _ _ _ _ 
 72
65
 73
2
 40
4.7624999999999993
 49
3.1749999999999998
 74
0
 49
-1.5874999999999999
 74
0
  0
LTYPE
  5
51
100
AcDbSymbolTableRecord
100
AcDbLinetypeTableRecord
  2
DASHED
 70
0
  3
Dashed __ __ __ __ __ __ __ __ __ __ __ __ __ _
 72
65
 73
2
 40
19.049999999999997
 49
12.699999999999999
 74
0
 49
-6.3499999999999996
 74
0
  0
LTYPE
  5
52
100
AcDbSymbolTableRecord
100
AcDbLinetypeTableRecord
  2
ACAD_ISO03W100
 70
0
  3
ISO dash space __    __    __    __    __    __
 72
65
 73
2
 40
30.0
 49
12.0
 74
0
 49
-18.0
 74
0
  0
LTYPE
  5
14
100
AcDbSymbolTableRecord
100
AcDbLinetypeTableRecord
  2
BYBLOCK
 70
0
  3

 72
65
 73
0
 40
0.0
  0
LTYPE
  5
53
100
AcDbSymbolTableRecord
100
AcDbLinetypeTableRecord
  2
DASHED2
 70
0
  3
Dashed (.5x) _ _ _ _ _ _ _ _ _ _ _ _ _ _ _ _ _ 
 72
65
 73
2
 40
9.5249999999999986
 49
6.3499999999999996
 74
0
 49
-3.1749999999999998
 74
0
  0
LTYPE
  5
54
100
AcDbSymbolTableRecord
100
AcDbLinetypeTableRecord
  2
ACAD_ISO14W100
 70
0
  3
ISO dash triple-dot __ . . . __ . . . __ . . . _
 72
65
 73
8
 40
24.0
 49
12.0
 74
0
 49
-3.0
 74
0
 49
0.0
 74
0
 49
-3.0
 74
0
 49
0.0
 74
0
 49
-3.0
 74
0
 49
0.0
 74
0
 49
-3.0
 74
0
  0
LTYPE
  5
55
100
AcDbSymbolTableRecord
100
AcDbLinetypeTableRecord
  2
CUTRIGHT2
 70
0
  3
G42 reversed----\----\----\----
 72
65
 73
2
 40
10.16
 49
5.0800000000000001
 74
0
 49
5.0800000000000001
 74
0
  0
LTYPE
  5
56
100
AcDbSymbolTableRecord
100
AcDbLinetypeTableRecord
  2
GAS_LINE
 70
0
  3
Gas line ----GAS----GAS----GAS----GAS----GAS----GAS--
 72
65
 73
3
 40
24.130000000000003
 49
12.699999999999999
 74
0
 49
-5.0800000000000001
 74
0
 49
-6.3499999999999996
 74
0
  0
LTYPE
  5
57
100
AcDbSymbolTableRecord
100
AcDbLinetypeTableRecord
  2
PHANTOM
 70
0
  3
Phantom ______  __  __  ______  __  __  ______ 
 72
65
 73
6
 40
63.500000000000007
 49
31.75
 74
0
 49
-6.3499999999999996
 74
0
 49
6.3499999999999996
 74
0
 49
-6.3499999999999996
 74
0
 49
6.3499999999999996
 74
0
 49
-6.3499999999999996
 74
0
  0
LTYPE
  5
58
100
AcDbSymbolTableRecord
100
AcDbLinetypeTableRecord
  2
BATTING
 70
0
  3
Batting SSSSSSSSSSSSSSSSSSSSSSSSSSSSSSSSSSSSSSSSSSSSSSS
 72
65
 73
4
 40
10.16254
 49
0.00254
 74
0
 49
-2.54
 74
0
 49
-5.0800000000000001
 74
0
 49
-2.54
 74
0
  0
LTYPE
  5
59
100
AcDbSymbolTableRecord
100
AcDbLinetypeTableRecord
  2
DIVIDEX2
 70
0
  3
Divide (2x) ________  .  .  ________  .  .  _
 72
65
 73
6
 40
63.5
 49
25.399999999999999
 74
0
 49
-12.699999999999999
 74
0
 49
0.0
 74
0
 49
-12.699999999999999
 74
0
 49
0.0
 74
0
 49
-12.699999999999999
 74
0
  0
LTYPE
  5
5A
100
AcDbSymbolTableRecord
100
AcDbLinetypeTableRecord
  2
CENTERX2
 70
0
  3
Center (2x) ________  __  ________  __  _____
 72
65
 73
4
 40
101.60000000000001
 49
63.5
 74
0
 49
-12.699999999999999
 74
0
 49
12.699999999999999
 74
0
 49
-12.699999999999999
 74
0
  0
LTYPE
  5
5B
100
AcDbSymbolTableRecord
100
AcDbLinetypeTableRecord
  2
CUTRIGHT
 70
0
  3
G42 ----/----/-----/---
 72
65
 73
2
 40
10.16
 49
5.0800000000000001
 74
0
 49
5.0800000000000001
 74
0
  0
LTYPE
  5
5C
100
AcDbSymbolTableRecord
100
AcDbLinetypeTableRecord
  2
DIVIDE
 70
0
  3
Divide ____ . . ____ . . ____ . . ____ . . ____
 72
65
 73
6
 40
31.75
 49
12.699999999999999
 74
0
 49
-6.3499999999999996
 74
0
 49
0.0
 74
0
 49
-6.3499999999999996
 74
0
 49
0.0
 74
0
 49
-6.3499999999999996
 74
0
  0
LTYPE
  5
5D
100
AcDbSymbolTableRecord
100
AcDbLinetypeTableRecord
  2
DASHEDX2
 70
0
  3
Dashed (2x) ____  ____  ____  ____  ____  ___
 72
65
 73
2
 40
38.099999999999994
 49
25.399999999999999
 74
0
 49
-12.699999999999999
 74
0
  0
LTYPE
  5
5E
100
AcDbSymbolTableRecord
100
AcDbLinetypeTableRecord
  2
DRAINAGE2
 70
0
  3
Drainage reversed----<----<----<----
 72
65
 73
2
 40
10.16
 49
5.0800000000000001
 74
0
 49
5.0800000000000001
 74
0
  0
LTYPE
  5
5F
100
AcDbSymbolTableRecord
100
AcDbLinetypeTableRecord
  2
ACAD_ISO12W100
 70
0
  3
ISO dash double-dot __ . . __ . . __ . . __ . . 
 72
65
 73
6
 40
21.0
 49
12.0
 74
0
 49
-3.0
 74
0
 49
0.0
 74
0
 49
-3.0
 74
0
 49
0.0
 74
0
 49
-3.0
 74
0
  0
LTYPE
  5
60
100
AcDbSymbolTableRecord
100
AcDbLinetypeTableRecord
  2
DIVIDE2
 70
0
  3
Divide (.5x) __..__..__..__..__..__..__..__.._
 72
65
 73
6
 40
15.875
 49
6.3499999999999996
 74
0
 49
-3.1749999999999998
 74
0
 49
0.0
 74
0
 49
-3.1749999999999998
 74
0
 49
0.0
 74
0
 49
-3.1749999999999998
 74
0
  0
LTYPE
  5
61
100
AcDbSymbolTableRecord
100
AcDbLinetypeTableRecord
  2
HIDDEN
 70
0
  3
Hidden __ __ __ __ __ __ __ __ __ __ __ __ __ __
 72
65
 73
2
 40
9.5249999999999986
 49
6.3499999999999996
 74
0
 49
-3.1749999999999998
 74
0
  0
LTYPE
  5
62
100
AcDbSymbolTableRecord
100
AcDbLinetypeTableRecord
  2
ACAD_ISO06W100
 70
0
  3
ISO long-dash triple-dot ____ ... ____ ... ____
 72
65
 73
8
 40
36.0
 49
24.0
 74
0
 49
-3.0
 74
0
 49
0.0
 74
0
 49
-3.0
 74
0
 49
0.0
 74
0
 49
-3.0
 74
0
 49
0.0
 74
0
 49
-3.0
 74
0
  0
LTYPE
  5
63
100
AcDbSymbolTableRecord
100
AcDbLinetypeTableRecord
  2
ACAD_ISO02W100
 70
0
  3
ISO dash __ __ __ __ __ __ __ __ __ __ __ __ __
 72
65
 73
2
 40
15.0
 49
12.0
 74
0
 49
-3.0
 74
0
  0
ENDTAB
  0
TABLE
  2
LAYER
  5
2
100
AcDbSymbolTable
 70
1
  0
LAYER
  5
10
100
AcDbSymbolTableRecord
100
AcDbLayerTableRecord
  2
0
 70
0
 62
7
420
16777215
  6
CONTINUOUS
370
-3
390
F
  0
ENDTAB
  0
TABLE
  2
STYLE
  5
3
100
AcDbSymbolTable
 70
1
  0
STYLE
  5
64
100
AcDbSymbolTableRecord
100
AcDbTextStyleTableRecord
  2
Standard
 70
0
 40
0.0
 41
1.0
 50
0.0
 71
0
 42
2.5
  3

  4

1001
ACAD
1000
txt
1071
0
  0
ENDTAB
  0
TABLE
  2
VIEW
  5
6
100
AcDbSymbolTable
 70
0
  0
ENDTAB
  0
TABLE
  2
UCS
  5
7
100
AcDbSymbolTable
 70
0
  0
ENDTAB
  0
TABLE
  2
APPID
  5
9
100
AcDbSymbolTable
 70
1
  0
APPID
  5
12
100
AcDbSymbolTableRecord
100
AcDbRegAppTableRecord
  2
ACAD
 70
0
  0
APPID
  5
65
100
AcDbSymbolTableRecord
100
AcDbRegAppTableRecord
  2
QCAD
 70
0
  0
ENDTAB
  0
TABLE
  2
DIMSTYLE
  5
A
100
AcDbSymbolTable
 70
1
100
AcDbDimStyleTable
 71
0
  0
DIMSTYLE
105
27
100
AcDbSymbolTableRecord
100
AcDbDimStyleTableRecord
  2
Standard
 41
0.18
 42
0.0625
 43
3.75
 44
0.18
 70
0
 73
0
 74
0
 77
1
 78
8
140
0.18
141
2.5
143
0.03937007874016
147
0.09
171
3
172
1
271
2
272
2
274
3
278
44
283
0
284
8
340
64
  0
ENDTAB
  0
TABLE
  2
BLOCK_RECORD
  5
1
100
AcDbSymbolTable
 70
1
  0
BLOCK_RECORD
  5
1F
100
AcDbSymbolTableRecord
100
AcDbBlockTableRecord
  2
*Model_Space
340
22
  0
BLOCK_RECORD
  5
1B
100
AcDbSymbolTableRecord
100
AcDbBlockTableRecord
  2
*Paper_Space
340
1E
  0
BLOCK_RECORD
  5
23
100
AcDbSymbolTableRecord
100
AcDbBlockTableRecord
  2
*Paper_Space0
340
26
  0
ENDTAB
  0
ENDSEC
  0
SECTION
  2
BLOCKS
  0
BLOCK
  5
20
100
AcDbEntity
  8
0
100
AcDbBlockBegin
  2
*Model_Space
 70
0
 10
0.0
 20
0.0
 30
0.0
  3
*Model_Space
  1

  0
ENDBLK
  5
21
100
AcDbEntity
  8
0
100
AcDbBlockEnd
  0
BLOCK
  5
1C
100
AcDbEntity
 67
1
  8
0
100
AcDbBlockBegin
  2
*Paper_Space
 70
0
 10
0.0
 20
0.0
 30
0.0
  3
*Paper_Space
  1

  0
ENDBLK
  5
1D
100
AcDbEntity
 67
1
  8
0
100
AcDbBlockEnd
  0
BLOCK
  5
24
100
AcDbEntity
  8
0
100
AcDbBlockBegin
  2
*Paper_Space0
 70
0
 10
0.0
 20
0.0
 30
0.0
  3
*Paper_Space0
  1

  0
ENDBLK
  5
25
100
AcDbEntity
  8
0
100
AcDbBlockEnd
  0
ENDSEC
  0
SECTION
  2
ENTITIES
  0
SPLINE
  5
66
  8
0
 62
7
420
16777215
370
-1
 48
1.0
  6
BYLAYER
100
AcDbEntity
100
AcDbSpline
 70
8
 71
3
 72
8
 73
4
 74
0
 40
0.0
 40
0.0
 40
0.0
 40
0.0
 40
1.0
 40
1.0
 40
1.0
 40
1.0
 10
29.610733
 20
96.424717999999999
 30
0.0
 10
25.781327000000001
 20
96.399991
 30
0.0
 10
22.493784999999999
 20
95.701268999999996
 30
0.0
 10
21.362348000000001
 20
94.617283
 30
0.0
  0
SPLINE
  5
67
  8
0
 62
7
420
16777215
370
-1
 48
1.0
  6
BYLAYER
100
AcDbEntity
100
AcDbSpline
 70
8
 71
3
 72
8
 73
4
 74
0
 40
0.0
 40
0.0
 40
0.0
 40
0.0
 40
1.0
 40
1.0
 40
1.0
 40
1.0
 10
21.362348000000001
 20
94.617283
 30
0.0
 10
20.918773999999999
 20
94.192310000000006
 30
0.0
 10
20.55592
 20
93.694722999999996
 30
0.0
 10
20.55592
 20
93.511544999999998
 30
0.0
  0
SPLINE
  5
68
  8
0
 62
7
420
16777215
370
-1
 48
1.0
  6
BYLAYER
100
AcDbEntity
100
AcDbSpline
 70
8
 71
3
 72
8
 73
4
 74
0
 40
0.0
 40
0.0
 40
0.0
 40
0.0
 40
1.0
 40
1.0
 40
1.0
 40
1.0
 10
20.55592
 20
93.511544999999998
 30
0.0
 10
20.555923
 20
93.328379999999996
 30
0.0
 10
20.067758000000001
 20
92.855760000000004
 30
0.0
 10
19.471129000000001
 20
92.460928999999993
 30
0.0
  0
SPLINE
  5
69
  8
0
 62
7
420
16777215
370
-1
 48
1.0
  6
BYLAYER
100
AcDbEntity
100
AcDbSpline
 70
8
 71
3
 72
8
 73
4
 74
0
 40
0.0
 40
0.0
 40
0.0
 40
0.0
 40
1.0
 40
1.0
 40
1.0
 40
1.0
 10
19.471129000000001
 20
92.460928999999993
 30
0.0
 10
18.019645000000001
 20
91.500383999999997
 30
0.0
 10
17.573332000000001
 20
90.446534
 30
0.0
 10
16.501732000000001
 20
85.450573000000006
 30
0.0
  0
SPLINE
  5
6A
  8
0
 62
7
420
16777215
370
-1
 48
1.0
  6
BYLAYER
100
AcDbEntity
100
AcDbSpline
 70
8
 71
3
 72
8
 73
4
 74
0
 40
0.0
 40
0.0
 40
0.0
 40
0.0
 40
1.0
 40
1.0
 40
1.0
 40
1.0
 10
16.501732000000001
 20
85.450573000000006
 30
0.0
 10
15.62846
 20
81.379240999999993
 30
0.0
 10
15.555847
 20
81.186985000000007
 30
0.0
 10
14.617678
 20
80.481367000000006
 30
0.0
  0
SPLINE
  5
6B
  8
0
 62
7
420
16777215
370
-1
 48
1.0
  6
BYLAYER
100
AcDbEntity
100
AcDbSpline
 70
8
 71
3
 72
8
 73
4
 74
0
 40
0.0
 40
0.0
 40
0.0
 40
0.0
 40
1.0
 40
1.0
 40
1.0
 40
1.0
 10
14.617678
 20
80.481367000000006
 30
0.0
 10
8.9331829999999997
 20
76.205941999999993
 30
0.0
 10
5.4776109999999996
 20
70.032252
 30
0.0
 10
4.7200559999999996
 20
62.797277999999999
 30
0.0
  0
SPLINE
  5
6C
  8
0
 62
7
420
16777215
370
-1
 48
1.0
  6
BYLAYER
100
AcDbEntity
100
AcDbSpline
 70
8
 71
3
 72
8
 73
4
 74
0
 40
0.0
 40
0.0
 40
0.0
 40
0.0
 40
1.0
 40
1.0
 40
1.0
 40
1.0
 10
4.7200559999999996
 20
62.797277999999999
 30
0.0
 10
4.5556559999999999
 20
61.227224999999997
 30
0.0
 10
4.1787830000000001
 20
58.609034999999999
 30
0.0
 10
3.8827600000000002
 20
56.979202000000001
 30
0.0
  0
SPLINE
  5
6D
  8
0
 62
7
420
16777215
370
-1
 48
1.0
  6
BYLAYER
100
AcDbEntity
100
AcDbSpline
 70
8
 71
3
 72
8
 73
4
 74
0
 40
0.0
 40
0.0
 40
0.0
 40
0.0
 40
1.0
 40
1.0
 40
1.0
 40
1.0
 10
3.8827600000000002
 20
56.979202000000001
 30
0.0
 10
2.5432939999999999
 20
49.604309000000001
 30
0.0
 10
0.758124
 20
34.791134
 30
0.0
 10
0.209462
 20
26.499202
 30
0.0
  0
SPLINE
  5
6E
  8
0
 62
7
420
16777215
370
-1
 48
1.0
  6
BYLAYER
100
AcDbEntity
100
AcDbSpline
 70
8
 71
3
 72
8
 73
4
 74
0
 40
0.0
 40
0.0
 40
0.0
 40
0.0
 40
1.0
 40
1.0
 40
1.0
 40
1.0
 10
0.209462
 20
26.499202
 30
0.0
 10
-0.201533
 20
20.287858
 30
0.0
 10
0.016605
 20
11.753427
 30
0.0
 10
0.645473
 20
9.4457039999999992
 30
0.0
  0
SPLINE
  5
6F
  8
0
 62
7
420
16777215
370
-1
 48
1.0
  6
BYLAYER
100
AcDbEntity
100
AcDbSpline
 70
8
 71
3
 72
8
 73
4
 74
0
 40
0.0
 40
0.0
 40
0.0
 40
0.0
 40
1.0
 40
1.0
 40
1.0
 40
1.0
 10
0.645473
 20
9.4457039999999992
 30
0.0
 10
1.2840940000000001
 20
7.1021979999999996
 30
0.0
 10
2.3994559999999998
 20
5.1470500000000001
 30
0.0
 10
4.0459199999999997
 20
3.4843099999999998
 30
0.0
  0
SPLINE
  5
70
  8
0
 62
7
420
16777215
370
-1
 48
1.0
  6
BYLAYER
100
AcDbEntity
100
AcDbSpline
 70
8
 71
3
 72
8
 73
4
 74
0
 40
0.0
 40
0.0
 40
0.0
 40
0.0
 40
1.0
 40
1.0
 40
1.0
 40
1.0
 10
4.0459199999999997
 20
3.4843099999999998
 30
0.0
 10
5.6779799999999998
 20
1.8361069999999999
 30
0.0
 10
7.351826
 20
0.951306
 30
0.0
 10
9.8755729999999993
 20
0.403566
 30
0.0
  0
SPLINE
  5
71
  8
0
 62
7
420
16777215
370
-1
 48
1.0
  6
BYLAYER
100
AcDbEntity
100
AcDbSpline
 70
8
 71
3
 72
8
 73
4
 74
0
 40
0.0
 40
0.0
 40
0.0
 40
0.0
 40
1.0
 40
1.0
 40
1.0
 40
1.0
 10
9.8755729999999993
 20
0.403566
 30
0.0
 10
12.381413
 20
-0.140284
 30
0.0
 10
16.712869000000001
 20
-0.133088
 30
0.0
 10
18.599657000000001
 20
0.417901
 30
0.0
  0
SPLINE
  5
72
  8
0
 62
7
420
16777215
370
-1
 48
1.0
  6
BYLAYER
100
AcDbEntity
100
AcDbSpline
 70
8
 71
3
 72
8
 73
4
 74
0
 40
0.0
 40
0.0
 40
0.0
 40
0.0
 40
1.0
 40
1.0
 40
1.0
 40
1.0
 10
18.599657000000001
 20
0.417901
 30
0.0
 10
22.123000999999999
 20
1.446804
 30
0.0
 10
25.469926000000001
 20
3.9841570000000002
 30
0.0
 10
28.563423
 20
7.9723040000000003
 30
0.0
  0
SPLINE
  5
73
  8
0
 62
7
420
16777215
370
-1
 48
1.0
  6
BYLAYER
100
AcDbEntity
100
AcDbSpline
 70
8
 71
3
 72
8
 73
4
 74
0
 40
0.0
 40
0.0
 40
0.0
 40
0.0
 40
1.0
 40
1.0
 40
1.0
 40
1.0
 10
28.563423
 20
7.9723040000000003
 30
0.0
 10
30.929735000000001
 20
11.022765
 30
0.0
 10
31.947375000000001
 20
12.662606
 30
0.0
 10
34.761288999999998
 20
17.958121999999999
 30
0.0
  0
SPLINE
  5
74
  8
0
 62
7
420
16777215
370
-1
 48
1.0
  6
BYLAYER
100
AcDbEntity
100
AcDbSpline
 70
8
 71
3
 72
8
 73
4
 74
0
 40
0.0
 40
0.0
 40
0.0
 40
0.0
 40
1.0
 40
1.0
 40
1.0
 40
1.0
 10
34.761288999999998
 20
17.958121999999999
 30
0.0
 10
36.061461000000001
 20
20.404917999999999
 30
0.0
 10
37.672269999999997
 20
23.383451999999998
 30
0.0
 10
38.340328999999997
 20
24.576563
 30
0.0
  0
SPLINE
  5
75
  8
0
 62
7
420
16777215
370
-1
 48
1.0
  6
BYLAYER
100
AcDbEntity
100
AcDbSpline
 70
8
 71
3
 72
8
 73
4
 74
0
 40
0.0
 40
0.0
 40
0.0
 40
0.0
 40
1.0
 40
1.0
 40
1.0
 40
1.0
 10
40.709451999999999
 20
25.812939
 30
0.0
 10
44.025004000000003
 20
23.134029000000002
 30
0.0
 10
47.328375999999999
 20
21.914739000000001
 30
0.0
 10
51.318142999999999
 20
21.898205999999998
 30
0.0
  0
SPLINE
  5
76
  8
0
 62
7
420
16777215
370
-1
 48
1.0
  6
BYLAYER
100
AcDbEntity
100
AcDbSpline
 70
8
 71
3
 72
8
 73
4
 74
0
 40
0.0
 40
0.0
 40
0.0
 40
0.0
 40
1.0
 40
1.0
 40
1.0
 40
1.0
 10
51.318142999999999
 20
21.898205999999998
 30
0.0
 10
55.798403999999998
 20
21.879645
 30
0.0
 10
59.855466999999997
 20
23.510615000000001
 30
0.0
 10
62.898074000000001
 20
26.553222000000002
 30
0.0
  0
SPLINE
  5
77
  8
0
 62
7
420
16777215
370
-1
 48
1.0
  6
BYLAYER
100
AcDbEntity
100
AcDbSpline
 70
8
 71
3
 72
8
 73
4
 74
0
 40
0.0
 40
0.0
 40
0.0
 40
0.0
 40
1.0
 40
1.0
 40
1.0
 40
1.0
 10
62.898074000000001
 20
26.553222000000002
 30
0.0
 10
64.456176999999997
 20
28.111325999999998
 30
0.0
 10
66.283448000000007
 20
30.755074
 30
0.0
 10
66.664527000000007
 20
32.002535000000002
 30
0.0
  0
LWPOLYLINE
  5
78
  8
0
 62
7
420
16777215
370
-1
 48
1.0
  6
BYLAYER
100
AcDbEntity
100
AcDbPolyline
 90
3
 70
0
 10
38.340328999999997
 20
24.576563
 30
0.0
 10
39.554658000000003
 20
26.745595999999999
 30
0.0
 10
40.709451999999999
 20
25.812939
 30
0.0
  0
SPLINE
  5
79
  8
0
 62
7
420
16777215
370
-1
 48
1.0
  6
BYLAYER
100
AcDbEntity
100
AcDbSpline
 70
8
 71
3
 72
8
 73
4
 74
0
 40
0.0
 40
0.0
 40
0.0
 40
0.0
 40
1.0
 40
1.0
 40
1.0
 40
1.0
 10
44.356844000000002
 20
83.782595999999998
 30
0.0
 10
44.085931000000002
 20
84.584057000000001
 30
0.0
 10
43.850074999999997
 20
85.399334999999994
 30
0.0
 10
43.678297000000001
 20
86.189201999999995
 30
0.0
  0
SPLINE
  5
7A
  8
0
 62
7
420
16777215
370
-1
 48
1.0
  6
BYLAYER
100
AcDbEntity
100
AcDbSpline
 70
8
 71
3
 72
8
 73
4
 74
0
 40
0.0
 40
0.0
 40
0.0
 40
0.0
 40
1.0
 40
1.0
 40
1.0
 40
1.0
 10
43.678297000000001
 20
86.189201999999995
 30
0.0
 10
42.812263999999999
 20
90.171561999999994
 30
0.0
 10
42.035308999999998
 20
91.531887999999995
 30
0.0
 10
40.104218000000003
 20
92.448250999999999
 30
0.0
  0
SPLINE
  5
7B
  8
0
 62
7
420
16777215
370
-1
 48
1.0
  6
BYLAYER
100
AcDbEntity
100
AcDbSpline
 70
8
 71
3
 72
8
 73
4
 74
0
 40
0.0
 40
0.0
 40
0.0
 40
0.0
 40
1.0
 40
1.0
 40
1.0
 40
1.0
 10
40.104218000000003
 20
92.448250999999999
 30
0.0
 10
39.558656999999997
 20
92.707137000000003
 30
0.0
 10
39.182588000000003
 20
93.09657
 30
0.0
 10
39.182588000000003
 20
93.402405000000002
 30
0.0
  0
SPLINE
  5
7C
  8
0
 62
7
420
16777215
370
-1
 48
1.0
  6
BYLAYER
100
AcDbEntity
100
AcDbSpline
 70
8
 71
3
 72
8
 73
4
 74
0
 40
0.0
 40
0.0
 40
0.0
 40
0.0
 40
1.0
 40
1.0
 40
1.0
 40
1.0
 10
39.182588000000003
 20
93.402405000000002
 30
0.0
 10
39.182588000000003
 20
94.336888999999999
 30
0.0
 10
37.979533000000004
 20
95.363270999999997
 30
0.0
 10
36.360365000000002
 20
95.810113000000001
 30
0.0
  0
SPLINE
  5
7D
  8
0
 62
7
420
16777215
370
-1
 48
1.0
  6
BYLAYER
100
AcDbEntity
100
AcDbSpline
 70
8
 71
3
 72
8
 73
4
 74
0
 40
0.0
 40
0.0
 40
0.0
 40
0.0
 40
1.0
 40
1.0
 40
1.0
 40
1.0
 10
36.360365000000002
 20
95.810113000000001
 30
0.0
 10
35.506646000000003
 20
96.045715000000001
 30
0.0
 10
33.220643000000003
 20
96.307973000000004
 30
0.0
 10
31.280365
 20
96.393298999999999
 30
0.0
  0
SPLINE
  5
7E
  8
0
 62
7
420
16777215
370
-1
 48
1.0
  6
BYLAYER
100
AcDbEntity
100
AcDbSpline
 70
8
 71
3
 72
8
 73
4
 74
0
 40
0.0
 40
0.0
 40
0.0
 40
0.0
 40
1.0
 40
1.0
 40
1.0
 40
1.0
 10
31.280365
 20
96.393298999999999
 30
0.0
 10
30.715866999999999
 20
96.418122999999994
 30
0.0
 10
30.157803999999999
 20
96.428250000000006
 30
0.0
 10
29.610733
 20
96.424717999999999
 30
0.0
  0
LWPOLYLINE
  5
7F
  8
0
 62
7
420
16777215
370
-1
 48
1.0
  6
BYLAYER
100
AcDbEntity
100
AcDbPolyline
 90
2
 70
0
 10
29.610733
 20
96.424717999999999
 30
0.0
 10
29.610733
 20
96.424717999999999
 30
0.0
  0
LWPOLYLINE
  5
80
  8
0
 62
7
420
16777215
370
-1
 48
1.0
  6
BYLAYER
100
AcDbEntity
100
AcDbPolyline
 90
2
 70
0
 10
4.9890489999999996
 20
58.480161000000003
 30
0.0
 10
4.9890489999999996
 20
58.480161000000003
 30
0.0
  0
LWPOLYLINE
  5
81
  8
0
 62
7
420
16777215
370
-1
 48
1.0
  6
BYLAYER
100
AcDbEntity
100
AcDbPolyline
 90
2
 70
0
 10
4.9510160000000001
 20
58.301015
 30
0.0
 10
4.9510160000000001
 20
58.301015
 30
0.0
  0
LWPOLYLINE
  5
82
  8
0
 62
7
420
16777215
370
-1
 48
1.0
  6
BYLAYER
100
AcDbEntity
100
AcDbPolyline
 90
2
 70
0
 10
4.9482600000000003
 20
58.288338000000003
 30
0.0
 10
4.9482600000000003
 20
58.288338000000003
 30
0.0
  0
SPLINE
  5
83
  8
0
 62
7
420
16777215
370
-1
 48
1.0
  6
BYLAYER
100
AcDbEntity
100
AcDbSpline
 70
8
 71
3
 72
8
 73
4
 74
0
 40
0.0
 40
0.0
 40
0.0
 40
0.0
 40
1.0
 40
1.0
 40
1.0
 40
1.0
 10
118.02676700000001
 20
96.173364000000007
 30
0.0
 10
116.494828
 20
96.159407999999999
 30
0.0
 10
114.980779
 20
96.041335000000004
 30
0.0
 10
113.66610300000001
 20
95.806805999999995
 30
0.0
  0
SPLINE
  5
84
  8
0
 62
7
420
16777215
370
-1
 48
1.0
  6
BYLAYER
100
AcDbEntity
100
AcDbSpline
 70
8
 71
3
 72
8
 73
4
 74
0
 40
0.0
 40
0.0
 40
0.0
 40
0.0
 40
1.0
 40
1.0
 40
1.0
 40
1.0
 10
113.66610300000001
 20
95.806805999999995
 30
0.0
 10
111.180544
 20
95.363397000000006
 30
0.0
 10
110.004716
 20
94.826722000000004
 30
0.0
 10
109.49670999999999
 20
93.904010999999997
 30
0.0
  0
SPLINE
  5
85
  8
0
 62
7
420
16777215
370
-1
 48
1.0
  6
BYLAYER
100
AcDbEntity
100
AcDbSpline
 70
8
 71
3
 72
8
 73
4
 74
0
 40
0.0
 40
0.0
 40
0.0
 40
0.0
 40
1.0
 40
1.0
 40
1.0
 40
1.0
 10
109.49670999999999
 20
93.904010999999997
 30
0.0
 10
109.29713700000001
 20
93.541517999999996
 30
0.0
 10
108.50197
 20
92.743206999999998
 30
0.0
 10
107.730064
 20
92.130200000000002
 30
0.0
  0
SPLINE
  5
86
  8
0
 62
7
420
16777215
370
-1
 48
1.0
  6
BYLAYER
100
AcDbEntity
100
AcDbSpline
 70
8
 71
3
 72
8
 73
4
 74
0
 40
0.0
 40
0.0
 40
0.0
 40
0.0
 40
1.0
 40
1.0
 40
1.0
 40
1.0
 10
107.730064
 20
92.130200000000002
 30
0.0
 10
106.742806
 20
91.346170999999998
 30
0.0
 10
106.07953000000001
 20
90.497366999999997
 30
0.0
 10
105.492683
 20
89.267739000000006
 30
0.0
  0
SPLINE
  5
87
  8
0
 62
7
420
16777215
370
-1
 48
1.0
  6
BYLAYER
100
AcDbEntity
100
AcDbSpline
 70
8
 71
3
 72
8
 73
4
 74
0
 40
0.0
 40
0.0
 40
0.0
 40
0.0
 40
1.0
 40
1.0
 40
1.0
 40
1.0
 10
105.492683
 20
89.267739000000006
 30
0.0
 10
105.033846
 20
88.306331999999998
 30
0.0
 10
104.658439
 20
87.339314999999999
 30
0.0
 10
104.658143
 20
87.119101999999998
 30
0.0
  0
SPLINE
  5
88
  8
0
 62
7
420
16777215
370
-1
 48
1.0
  6
BYLAYER
100
AcDbEntity
100
AcDbSpline
 70
8
 71
3
 72
8
 73
4
 74
0
 40
0.0
 40
0.0
 40
0.0
 40
0.0
 40
1.0
 40
1.0
 40
1.0
 40
1.0
 10
104.658143
 20
87.119101999999998
 30
0.0
 10
104.658143
 20
86.898888999999997
 30
0.0
 10
104.404538
 20
85.751175000000003
 30
0.0
 10
104.09479899999999
 20
84.568629000000001
 30
0.0
  0
SPLINE
  5
89
  8
0
 62
7
420
16777215
370
-1
 48
1.0
  6
BYLAYER
100
AcDbEntity
100
AcDbSpline
 70
8
 71
3
 72
8
 73
4
 74
0
 40
0.0
 40
0.0
 40
0.0
 40
0.0
 40
1.0
 40
1.0
 40
1.0
 40
1.0
 10
104.09479899999999
 20
84.568629000000001
 30
0.0
 10
104.02385099999999
 20
84.297753
 30
0.0
 10
103.96577000000001
 20
84.033833000000001
 30
0.0
 10
103.911798
 20
83.77543
 30
0.0
  0
SPLINE
  5
8A
  8
0
 62
7
420
16777215
370
-1
 48
1.0
  6
BYLAYER
100
AcDbEntity
100
AcDbSpline
 70
8
 71
3
 72
8
 73
4
 74
0
 40
0.0
 40
0.0
 40
0.0
 40
0.0
 40
1.0
 40
1.0
 40
1.0
 40
1.0
 10
82.804109999999994
 20
32.000331000000003
 30
0.0
 10
82.809723000000005
 20
31.988537000000001
 30
0.0
 10
82.814537999999999
 20
31.979077
 30
0.0
 10
82.818991999999994
 20
31.969462
 30
0.0
  0
SPLINE
  5
8B
  8
0
 62
7
420
16777215
370
-1
 48
1.0
  6
BYLAYER
100
AcDbEntity
100
AcDbSpline
 70
8
 71
3
 72
8
 73
4
 74
0
 40
0.0
 40
0.0
 40
0.0
 40
0.0
 40
1.0
 40
1.0
 40
1.0
 40
1.0
 10
82.858130000000003
 20
31.888432999999999
 30
0.0
 10
82.936413000000002
 20
31.733029999999999
 30
0.0
 10
83.016368999999997
 20
31.578209000000001
 30
0.0
 10
83.264375000000001
 20
30.944202000000001
 30
0.0
  0
SPLINE
  5
8C
  8
0
 62
7
420
16777215
370
-1
 48
1.0
  6
BYLAYER
100
AcDbEntity
100
AcDbSpline
 70
8
 71
3
 72
8
 73
4
 74
0
 40
0.0
 40
0.0
 40
0.0
 40
0.0
 40
1.0
 40
1.0
 40
1.0
 40
1.0
 10
83.264375000000001
 20
30.944202000000001
 30
0.0
 10
85.832857000000004
 20
25.643702000000001
 30
0.0
 10
91.579892000000001
 20
21.976272000000002
 30
0.0
 10
97.591564000000005
 20
21.988054999999999
 30
0.0
  0
SPLINE
  5
8D
  8
0
 62
7
420
16777215
370
-1
 48
1.0
  6
BYLAYER
100
AcDbEntity
100
AcDbSpline
 70
8
 71
3
 72
8
 73
4
 74
0
 40
0.0
 40
0.0
 40
0.0
 40
0.0
 40
1.0
 40
1.0
 40
1.0
 40
1.0
 10
97.591564000000005
 20
21.988054999999999
 30
0.0
 10
101.34011599999999
 20
21.995404000000001
 30
0.0
 10
104.82554
 20
23.176814
 30
0.0
 10
107.801723
 20
25.448585000000001
 30
0.0
  0
SPLINE
  5
8E
  8
0
 62
7
420
16777215
370
-1
 48
1.0
  6
BYLAYER
100
AcDbEntity
100
AcDbSpline
 70
8
 71
3
 72
8
 73
4
 74
0
 40
0.0
 40
0.0
 40
0.0
 40
0.0
 40
1.0
 40
1.0
 40
1.0
 40
1.0
 10
111.567076
 20
21.728982999999999
 30
0.0
 10
118.272981
 20
9.1664790000000007
 30
0.0
 10
120.961573
 20
5.452782
 30
0.0
 10
125.51667999999999
 20
2.4612539999999998
 30
0.0
  0
SPLINE
  5
8F
  8
0
 62
7
420
16777215
370
-1
 48
1.0
  6
BYLAYER
100
AcDbEntity
100
AcDbSpline
 70
8
 71
3
 72
8
 73
4
 74
0
 40
0.0
 40
0.0
 40
0.0
 40
0.0
 40
1.0
 40
1.0
 40
1.0
 40
1.0
 10
125.51667999999999
 20
2.4612539999999998
 30
0.0
 10
128.641345
 20
0.409157
 30
0.0
 10
130.755909
 20
-0.140137
 30
0.0
 10
134.81788599999999
 20
0.045277
 30
0.0
  0
SPLINE
  5
90
  8
0
 62
7
420
16777215
370
-1
 48
1.0
  6
BYLAYER
100
AcDbEntity
100
AcDbSpline
 70
8
 71
3
 72
8
 73
4
 74
0
 40
0.0
 40
0.0
 40
0.0
 40
0.0
 40
1.0
 40
1.0
 40
1.0
 40
1.0
 10
134.81788599999999
 20
0.045277
 30
0.0
 10
140.27969300000001
 20
0.294586
 30
0.0
 10
143.30788899999999
 20
1.6890210000000001
 30
0.0
 10
145.641548
 20
5.0293669999999997
 30
0.0
  0
SPLINE
  5
91
  8
0
 62
7
420
16777215
370
-1
 48
1.0
  6
BYLAYER
100
AcDbEntity
100
AcDbSpline
 70
8
 71
3
 72
8
 73
4
 74
0
 40
0.0
 40
0.0
 40
0.0
 40
0.0
 40
1.0
 40
1.0
 40
1.0
 40
1.0
 10
145.641548
 20
5.0293669999999997
 30
0.0
 10
147.991333
 20
8.3927870000000002
 30
0.0
 10
148.57298800000001
 20
11.966718999999999
 30
0.0
 10
148.30888100000001
 20
21.419201999999999
 30
0.0
  0
SPLINE
  5
92
  8
0
 62
7
420
16777215
370
-1
 48
1.0
  6
BYLAYER
100
AcDbEntity
100
AcDbSpline
 70
8
 71
3
 72
8
 73
4
 74
0
 40
0.0
 40
0.0
 40
0.0
 40
0.0
 40
1.0
 40
1.0
 40
1.0
 40
1.0
 10
148.30888100000001
 20
21.419201999999999
 30
0.0
 10
148.065789
 20
30.119731999999999
 30
0.0
 10
146.89015599999999
 20
41.685983
 30
0.0
 10
145.15262100000001
 20
52.473565999999998
 30
0.0
  0
SPLINE
  5
93
  8
0
 62
7
420
16777215
370
-1
 48
1.0
  6
BYLAYER
100
AcDbEntity
100
AcDbSpline
 70
8
 71
3
 72
8
 73
4
 74
0
 40
0.0
 40
0.0
 40
0.0
 40
0.0
 40
1.0
 40
1.0
 40
1.0
 40
1.0
 10
145.15262100000001
 20
52.473565999999998
 30
0.0
 10
144.76600199999999
 20
54.873925999999997
 30
0.0
 10
144.31271100000001
 20
58.425590999999997
 30
0.0
 10
144.14554999999999
 20
60.365869000000004
 30
0.0
  0
SPLINE
  5
94
  8
0
 62
7
420
16777215
370
-1
 48
1.0
  6
BYLAYER
100
AcDbEntity
100
AcDbSpline
 70
8
 71
3
 72
8
 73
4
 74
0
 40
0.0
 40
0.0
 40
0.0
 40
0.0
 40
1.0
 40
1.0
 40
1.0
 40
1.0
 10
144.14554999999999
 20
60.365869000000004
 30
0.0
 10
143.76709299999999
 20
64.758758999999998
 30
0.0
 10
143.302087
 20
67.093107000000003
 30
0.0
 10
142.31055599999999
 20
69.576123999999993
 30
0.0
  0
SPLINE
  5
95
  8
0
 62
7
420
16777215
370
-1
 48
1.0
  6
BYLAYER
100
AcDbEntity
100
AcDbSpline
 70
8
 71
3
 72
8
 73
4
 74
0
 40
0.0
 40
0.0
 40
0.0
 40
0.0
 40
1.0
 40
1.0
 40
1.0
 40
1.0
 10
142.31055599999999
 20
69.576123999999993
 30
0.0
 10
140.689155
 20
73.636492000000004
 30
0.0
 10
138.26837399999999
 20
76.94802
 30
0.0
 10
134.876867
 20
79.745495000000005
 30
0.0
  0
LWPOLYLINE
  5
96
  8
0
 62
7
420
16777215
370
-1
 48
1.0
  6
BYLAYER
100
AcDbEntity
100
AcDbPolyline
 90
3
 70
0
 10
107.801723
 20
25.448585000000001
 30
0.0
 10
109.066211
 20
26.413761999999998
 30
0.0
 10
111.567076
 20
21.728982999999999
 30
0.0
  0
SPLINE
  5
97
  8
0
 62
7
420
16777215
370
-1
 48
1.0
  6
BYLAYER
100
AcDbEntity
100
AcDbSpline
 70
8
 71
3
 72
8
 73
4
 74
0
 40
0.0
 40
0.0
 40
0.0
 40
0.0
 40
1.0
 40
1.0
 40
1.0
 40
1.0
 10
132.104254
 20
85.559162999999998
 30
0.0
 10
131.11188999999999
 20
90.114649999999997
 30
0.0
 10
130.468627
 20
91.533946
 30
0.0
 10
129.002014
 20
92.400295
 30
0.0
  0
SPLINE
  5
98
  8
0
 62
7
420
16777215
370
-1
 48
1.0
  6
BYLAYER
100
AcDbEntity
100
AcDbSpline
 70
8
 71
3
 72
8
 73
4
 74
0
 40
0.0
 40
0.0
 40
0.0
 40
0.0
 40
1.0
 40
1.0
 40
1.0
 40
1.0
 10
129.002014
 20
92.400295
 30
0.0
 10
128.564369
 20
92.658817999999997
 30
0.0
 10
127.99905
 20
93.231228000000002
 30
0.0
 10
127.745795
 20
93.672499999999999
 30
0.0
  0
SPLINE
  5
99
  8
0
 62
7
420
16777215
370
-1
 48
1.0
  6
BYLAYER
100
AcDbEntity
100
AcDbSpline
 70
8
 71
3
 72
8
 73
4
 74
0
 40
0.0
 40
0.0
 40
0.0
 40
0.0
 40
1.0
 40
1.0
 40
1.0
 40
1.0
 10
127.745795
 20
93.672499999999999
 30
0.0
 10
127.49254000000001
 20
94.113771999999997
 30
0.0
 10
126.920272
 20
94.663842000000002
 30
0.0
 10
126.474141
 20
94.894543999999996
 30
0.0
  0
SPLINE
  5
9A
  8
0
 62
7
420
16777215
370
-1
 48
1.0
  6
BYLAYER
100
AcDbEntity
100
AcDbSpline
 70
8
 71
3
 72
8
 73
4
 74
0
 40
0.0
 40
0.0
 40
0.0
 40
0.0
 40
1.0
 40
1.0
 40
1.0
 40
1.0
 10
126.474141
 20
94.894543999999996
 30
0.0
 10
124.854894
 20
95.731890000000007
 30
0.0
 10
121.39702800000001
 20
96.204068000000007
 30
0.0
 10
118.02676700000001
 20
96.173364000000007
 30
0.0
  0
LWPOLYLINE
  5
9B
  8
0
 62
7
420
16777215
370
-1
 48
1.0
  6
BYLAYER
100
AcDbEntity
100
AcDbPolyline
 90
3
 70
0
 10
134.876867
 20
79.745495000000005
 30
0.0
 10
133.04076900000001
 20
81.260234999999994
 30
0.0
 10
132.104254
 20
85.559162999999998
 30
0.0
  0
LWPOLYLINE
  5
9C
  8
0
 62
7
420
16777215
370
-1
 48
1.0
  6
BYLAYER
100
AcDbEntity
100
AcDbPolyline
 90
2
 70
0
 10
118.02676700000001
 20
96.173364000000007
 30
0.0
 10
118.02676700000001
 20
96.173364000000007
 30
0.0
  0
SPLINE
  5
9D
  8
0
 62
7
420
16777215
370
-1
 48
1.0
  6
BYLAYER
100
AcDbEntity
100
AcDbSpline
 70
8
 71
3
 72
8
 73
4
 74
0
 40
0.0
 40
0.0
 40
0.0
 40
0.0
 40
1.0
 40
1.0
 40
1.0
 40
1.0
 10
82.858130000000003
 20
31.888432999999999
 30
0.0
 10
82.851735000000005
 20
31.901126999999999
 30
0.0
 10
82.845219
 20
31.913768000000001
 30
0.0
 10
82.838837999999996
 20
31.926468
 30
0.0
  0
SPLINE
  5
9E
  8
0
 62
7
420
16777215
370
-1
 48
1.0
  6
BYLAYER
100
AcDbEntity
100
AcDbSpline
 70
8
 71
3
 72
8
 73
4
 74
0
 40
0.0
 40
0.0
 40
0.0
 40
0.0
 40
1.0
 40
1.0
 40
1.0
 40
1.0
 10
82.838837999999996
 20
31.926468
 30
0.0
 10
82.832265000000007
 20
31.940809999999999
 30
0.0
 10
82.825643999999997
 20
31.955147
 30
0.0
 10
82.818991999999994
 20
31.969462
 30
0.0
  0
LWPOLYLINE
  5
9F
  8
0
 62
7
420
16777215
370
-1
 48
1.0
  6
BYLAYER
100
AcDbEntity
100
AcDbPolyline
 90
2
 70
0
 10
82.858130000000003
 20
31.888432999999999
 30
0.0
 10
82.858130000000003
 20
31.888432999999999
 30
0.0
  0
LWPOLYLINE
  5
A0
  8
0
 62
7
420
16777215
370
-1
 48
1.0
  6
BYLAYER
100
AcDbEntity
100
AcDbPolyline
 90
2
 70
0
 10
82.838837999999996
 20
31.926468
 30
0.0
 10
82.838837999999996
 20
31.926468
 30
0.0
  0
LWPOLYLINE
  5
A1
  8
0
 62
7
420
16777215
370
-1
 48
1.0
  6
BYLAYER
100
AcDbEntity
100
AcDbPolyline
 90
2
 70
0
 10
7.5268449999999998
 20
70.197344000000001
 30
0.0
 10
7.5268449999999998
 20
70.197344000000001
 30
0.0
  0
LWPOLYLINE
  5
A2
  8
0
 62
7
420
16777215
370
-1
 48
1.0
  6
BYLAYER
100
AcDbEntity
100
AcDbPolyline
 90
2
 70
0
 10
6.9083810000000003
 20
68.274153999999996
 30
0.0
 10
6.9083810000000003
 20
68.274153999999996
 30
0.0
  0
LWPOLYLINE
  5
A3
  8
0
 62
7
420
16777215
370
-1
 48
1.0
  6
BYLAYER
100
AcDbEntity
100
AcDbPolyline
 90
2
 70
0
 10
6.4189020000000001
 20
66.290330999999995
 30
0.0
 10
6.4189020000000001
 20
66.290330999999995
 30
0.0
  0
LWPOLYLINE
  5
A4
  8
0
 62
7
420
16777215
370
-1
 48
1.0
  6
BYLAYER
100
AcDbEntity
100
AcDbPolyline
 90
2
 70
0
 10
6.4084289999999999
 20
65.764471999999998
 30
0.0
 10
6.4084289999999999
 20
65.764471999999998
 30
0.0
  0
LWPOLYLINE
  5
A5
  8
0
 62
7
420
16777215
370
-1
 48
1.0
  6
BYLAYER
100
AcDbEntity
100
AcDbPolyline
 90
2
 70
0
 10
4.9372350000000003
 20
58.181953999999998
 30
0.0
 10
4.9372350000000003
 20
58.181953999999998
 30
0.0
  0
LWPOLYLINE
  5
A6
  8
0
 62
7
420
16777215
370
-1
 48
1.0
  6
BYLAYER
100
AcDbEntity
100
AcDbPolyline
 90
2
 70
0
 10
4.9962150000000003
 20
54.648111
 30
0.0
 10
4.9962150000000003
 20
54.648111
 30
0.0
  0
LWPOLYLINE
  5
A7
  8
0
 62
7
420
16777215
370
-1
 48
1.0
  6
BYLAYER
100
AcDbEntity
100
AcDbPolyline
 90
2
 70
0
 10
3.5255730000000001
 20
40.511094999999997
 30
0.0
 10
3.5255730000000001
 20
40.511094999999997
 30
0.0
  0
SPLINE
  5
A8
  8
0
 62
7
420
16777215
370
-1
 48
1.0
  6
BYLAYER
100
AcDbEntity
100
AcDbSpline
 70
8
 71
3
 72
8
 73
4
 74
0
 40
0.0
 40
0.0
 40
0.0
 40
0.0
 40
1.0
 40
1.0
 40
1.0
 40
1.0
 10
83.807873000000001
 20
29.222206
 30
0.0
 10
83.807034999999999
 20
29.231584000000002
 30
0.0
 10
83.804280000000006
 20
29.248712000000001
 30
0.0
 10
83.802910999999995
 20
29.260788999999999
 30
0.0
  0
LWPOLYLINE
  5
A9
  8
0
 62
7
420
16777215
370
-1
 48
1.0
  6
BYLAYER
100
AcDbEntity
100
AcDbPolyline
 90
2
 70
0
 10
83.781414999999996
 20
29.283389
 30
0.0
 10
83.807873000000001
 20
29.222206
 30
0.0
  0
SPLINE
  5
AA
  8
0
 62
7
420
16777215
370
-1
 48
1.0
  6
BYLAYER
100
AcDbEntity
100
AcDbSpline
 70
8
 71
3
 72
8
 73
4
 74
0
 40
0.0
 40
0.0
 40
0.0
 40
0.0
 40
1.0
 40
1.0
 40
1.0
 40
1.0
 10
51.835945000000002
 20
51.278905999999999
 30
0.0
 10
44.476114000000003
 20
51.275359999999999
 30
0.0
 10
38.474393999999997
 20
45.381059999999998
 30
0.0
 10
38.340328999999997
 20
38.024839
 30
0.0
  0
SPLINE
  5
AB
  8
0
 62
7
420
16777215
370
-1
 48
1.0
  6
BYLAYER
100
AcDbEntity
100
AcDbSpline
 70
8
 71
3
 72
8
 73
4
 74
0
 40
0.0
 40
0.0
 40
0.0
 40
0.0
 40
1.0
 40
1.0
 40
1.0
 40
1.0
 10
38.340328999999997
 20
37.657229999999998
 30
0.0
 10
38.340328999999997
 20
37.657229999999998
 30
0.0
 10
38.340328999999997
 20
37.604123999999999
 30
0.0
 10
38.340328999999997
 20
37.604123999999999
 30
0.0
  0
SPLINE
  5
AC
  8
0
 62
7
420
16777215
370
-1
 48
1.0
  6
BYLAYER
100
AcDbEntity
100
AcDbSpline
 70
8
 71
3
 72
8
 73
4
 74
0
 40
0.0
 40
0.0
 40
0.0
 40
0.0
 40
1.0
 40
1.0
 40
1.0
 40
1.0
 10
38.340328999999997
 20
37.604123999999999
 30
0.0
 10
38.435957000000002
 20
30.220033999999998
 30
0.0
 10
44.448839
 20
24.283072000000001
 30
0.0
 10
51.835945000000002
 20
24.278905999999999
 30
0.0
  0
SPLINE
  5
AD
  8
0
 62
7
420
16777215
370
-1
 48
1.0
  6
BYLAYER
100
AcDbEntity
100
AcDbSpline
 70
8
 71
3
 72
8
 73
4
 74
0
 40
0.0
 40
0.0
 40
0.0
 40
0.0
 40
1.0
 40
1.0
 40
1.0
 40
1.0
 10
51.835945000000002
 20
24.278905999999999
 30
0.0
 10
57.635544000000003
 20
24.286504000000001
 30
0.0
 10
62.782682999999999
 20
27.995101999999999
 30
0.0
 10
64.623953
 20
33.492874999999998
 30
0.0
  0
SPLINE
  5
AE
  8
0
 62
7
420
16777215
370
-1
 48
1.0
  6
BYLAYER
100
AcDbEntity
100
AcDbSpline
 70
8
 71
3
 72
8
 73
4
 74
0
 40
0.0
 40
0.0
 40
0.0
 40
0.0
 40
1.0
 40
1.0
 40
1.0
 40
1.0
 10
64.623953
 20
33.492874999999998
 30
0.0
 10
64.613829999999993
 20
33.596715000000003
 30
0.0
 10
64.646366999999998
 20
33.704633999999999
 30
0.0
 10
64.726072000000002
 20
33.800674999999998
 30
0.0
  0
SPLINE
  5
AF
  8
0
 62
7
420
16777215
370
-1
 48
1.0
  6
BYLAYER
100
AcDbEntity
100
AcDbSpline
 70
8
 71
3
 72
8
 73
4
 74
0
 40
0.0
 40
0.0
 40
0.0
 40
0.0
 40
1.0
 40
1.0
 40
1.0
 40
1.0
 10
64.726072000000002
 20
33.800674999999998
 30
0.0
 10
65.128550000000004
 20
35.088613000000002
 30
0.0
 10
65.335604000000004
 20
36.429594000000002
 30
0.0
 10
65.340328999999997
 20
37.778906999999997
 30
0.0
  0
SPLINE
  5
B0
  8
0
 62
7
420
16777215
370
-1
 48
1.0
  6
BYLAYER
100
AcDbEntity
100
AcDbSpline
 70
8
 71
3
 72
8
 73
4
 74
0
 40
0.0
 40
0.0
 40
0.0
 40
0.0
 40
1.0
 40
1.0
 40
1.0
 40
1.0
 10
65.340328999999997
 20
37.778906999999997
 30
0.0
 10
65.340333000000001
 20
41.359330999999997
 30
0.0
 10
63.917555999999998
 20
44.793112000000001
 30
0.0
 10
61.384990999999999
 20
47.324854000000002
 30
0.0
  0
SPLINE
  5
B1
  8
0
 62
7
420
16777215
370
-1
 48
1.0
  6
BYLAYER
100
AcDbEntity
100
AcDbSpline
 70
8
 71
3
 72
8
 73
4
 74
0
 40
0.0
 40
0.0
 40
0.0
 40
0.0
 40
1.0
 40
1.0
 40
1.0
 40
1.0
 10
61.384990999999999
 20
47.324854000000002
 30
0.0
 10
58.852426999999999
 20
49.856596000000003
 30
0.0
 10
55.417530999999997
 20
51.278911000000001
 30
0.0
 10
51.835945000000002
 20
51.278905999999999
 30
0.0
  0
LWPOLYLINE
  5
B2
  8
0
 62
7
420
16777215
370
-1
 48
1.0
  6
BYLAYER
100
AcDbEntity
100
AcDbPolyline
 90
5
 70
1
 10
38.340328999999997
 20
38.024839
 30
0.0
 10
38.340328999999997
 20
37.969155999999998
 30
0.0
 10
38.340328999999997
 20
37.865009999999998
 30
0.0
 10
38.340328999999997
 20
37.761375999999998
 30
0.0
 10
38.340328999999997
 20
37.657229999999998
 30
0.0
  0
SPLINE
  5
B3
  8
0
 62
7
420
16777215
370
-1
 48
1.0
  6
BYLAYER
100
AcDbEntity
100
AcDbSpline
 70
8
 71
3
 72
8
 73
4
 74
0
 40
0.0
 40
0.0
 40
0.0
 40
0.0
 40
1.0
 40
1.0
 40
1.0
 40
1.0
 10
97.904838999999996
 20
51.279001999999998
 30
0.0
 10
95.278148000000002
 20
51.275264
 30
0.0
 10
92.709598999999997
 20
50.505327000000001
 30
0.0
 10
90.51397
 20
49.063546000000002
 30
0.0
  0
SPLINE
  5
B4
  8
0
 62
7
420
16777215
370
-1
 48
1.0
  6
BYLAYER
100
AcDbEntity
100
AcDbSpline
 70
8
 71
3
 72
8
 73
4
 74
0
 40
0.0
 40
0.0
 40
0.0
 40
0.0
 40
1.0
 40
1.0
 40
1.0
 40
1.0
 10
90.51397
 20
49.063546000000002
 30
0.0
 10
90.499796000000003
 20
49.049185999999999
 30
0.0
 10
90.490352999999999
 20
49.041170999999999
 30
0.0
 10
90.475301999999999
 20
49.025391999999997
 30
0.0
  0
SPLINE
  5
B5
  8
0
 62
7
420
16777215
370
-1
 48
1.0
  6
BYLAYER
100
AcDbEntity
100
AcDbSpline
 70
8
 71
3
 72
8
 73
4
 74
0
 40
0.0
 40
0.0
 40
0.0
 40
0.0
 40
1.0
 40
1.0
 40
1.0
 40
1.0
 10
90.475301999999999
 20
49.025391999999997
 30
0.0
 10
90.504514999999998
 20
49.035077999999999
 30
0.0
 10
90.469459999999998
 20
49.023507000000002
 30
0.0
 10
90.501597000000004
 20
49.034157999999998
 30
0.0
  0
SPLINE
  5
B6
  8
0
 62
7
420
16777215
370
-1
 48
1.0
  6
BYLAYER
100
AcDbEntity
100
AcDbSpline
 70
8
 71
3
 72
8
 73
4
 74
0
 40
0.0
 40
0.0
 40
0.0
 40
0.0
 40
1.0
 40
1.0
 40
1.0
 40
1.0
 10
90.501597000000004
 20
49.034157999999998
 30
0.0
 10
90.485958999999994
 20
49.024554000000002
 30
0.0
 10
90.442136000000005
 20
48.991889999999998
 30
0.0
 10
90.454678000000001
 20
49.005287000000003
 30
0.0
  0
SPLINE
  5
B7
  8
0
 62
7
420
16777215
370
-1
 48
1.0
  6
BYLAYER
100
AcDbEntity
100
AcDbSpline
 70
8
 71
3
 72
8
 73
4
 74
0
 40
0.0
 40
0.0
 40
0.0
 40
0.0
 40
1.0
 40
1.0
 40
1.0
 40
1.0
 10
90.454678000000001
 20
49.005287000000003
 30
0.0
 10
90.462913
 20
49.014077999999998
 30
0.0
 10
90.467320999999998
 20
49.017026999999999
 30
0.0
 10
90.475301999999999
 20
49.025391999999997
 30
0.0
  0
SPLINE
  5
B8
  8
0
 62
7
420
16777215
370
-1
 48
1.0
  6
BYLAYER
100
AcDbEntity
100
AcDbSpline
 70
8
 71
3
 72
8
 73
4
 74
0
 40
0.0
 40
0.0
 40
0.0
 40
0.0
 40
1.0
 40
1.0
 40
1.0
 40
1.0
 10
90.475301999999999
 20
49.025391999999997
 30
0.0
 10
90.434574999999995
 20
49.011893999999998
 30
0.0
 10
90.473984000000002
 20
49.024726000000001
 30
0.0
 10
90.438694999999996
 20
49.013019999999997
 30
0.0
  0
SPLINE
  5
B9
  8
0
 62
7
420
16777215
370
-1
 48
1.0
  6
BYLAYER
100
AcDbEntity
100
AcDbSpline
 70
8
 71
3
 72
8
 73
4
 74
0
 40
0.0
 40
0.0
 40
0.0
 40
0.0
 40
1.0
 40
1.0
 40
1.0
 40
1.0
 10
90.438694999999996
 20
49.013019999999997
 30
0.0
 10
90.383994999999999
 20
48.958857999999999
 30
0.0
 10
90.456371000000004
 20
49.033594000000001
 30
0.0
 10
90.326813999999999
 20
48.903717999999998
 30
0.0
  0
SPLINE
  5
BA
  8
0
 62
7
420
16777215
370
-1
 48
1.0
  6
BYLAYER
100
AcDbEntity
100
AcDbSpline
 70
8
 71
3
 72
8
 73
4
 74
0
 40
0.0
 40
0.0
 40
0.0
 40
0.0
 40
1.0
 40
1.0
 40
1.0
 40
1.0
 10
90.326813999999999
 20
48.903717999999998
 30
0.0
 10
90.313648000000001
 20
48.898409000000001
 30
0.0
 10
90.292800999999997
 20
48.885475
 30
0.0
 10
90.276803999999998
 20
48.877423
 30
0.0
  0
SPLINE
  5
BB
  8
0
 62
7
420
16777215
370
-1
 48
1.0
  6
BYLAYER
100
AcDbEntity
100
AcDbSpline
 70
8
 71
3
 72
8
 73
4
 74
0
 40
0.0
 40
0.0
 40
0.0
 40
0.0
 40
1.0
 40
1.0
 40
1.0
 40
1.0
 10
90.276803999999998
 20
48.877423
 30
0.0
 10
90.301300999999995
 20
48.889243
 30
0.0
 10
90.210431
 20
48.827190000000002
 30
0.0
 10
90.177295000000001
 20
48.802146
 30
0.0
  0
SPLINE
  5
BC
  8
0
 62
7
420
16777215
370
-1
 48
1.0
  6
BYLAYER
100
AcDbEntity
100
AcDbSpline
 70
8
 71
3
 72
8
 73
4
 74
0
 40
0.0
 40
0.0
 40
0.0
 40
0.0
 40
1.0
 40
1.0
 40
1.0
 40
1.0
 10
90.177295000000001
 20
48.802146
 30
0.0
 10
90.185716999999997
 20
48.812097000000001
 30
0.0
 10
90.193271999999993
 20
48.822966000000001
 30
0.0
 10
90.201526999999999
 20
48.833083000000002
 30
0.0
  0
SPLINE
  5
BD
  8
0
 62
7
420
16777215
370
-1
 48
1.0
  6
BYLAYER
100
AcDbEntity
100
AcDbSpline
 70
8
 71
3
 72
8
 73
4
 74
0
 40
0.0
 40
0.0
 40
0.0
 40
0.0
 40
1.0
 40
1.0
 40
1.0
 40
1.0
 10
90.201526999999999
 20
48.833083000000002
 30
0.0
 10
90.196010000000001
 20
48.829863000000003
 30
0.0
 10
90.190532000000005
 20
48.826535999999997
 30
0.0
 10
90.185028000000003
 20
48.823287000000001
 30
0.0
  0
SPLINE
  5
BE
  8
0
 62
7
420
16777215
370
-1
 48
1.0
  6
BYLAYER
100
AcDbEntity
100
AcDbSpline
 70
8
 71
3
 72
8
 73
4
 74
0
 40
0.0
 40
0.0
 40
0.0
 40
0.0
 40
1.0
 40
1.0
 40
1.0
 40
1.0
 10
90.185028000000003
 20
48.823287000000001
 30
0.0
 10
90.161680000000004
 20
48.795085
 30
0.0
 10
90.136734000000004
 20
48.768676999999997
 30
0.0
 10
90.107176999999993
 20
48.746980000000001
 30
0.0
  0
SPLINE
  5
BF
  8
0
 62
7
420
16777215
370
-1
 48
1.0
  6
BYLAYER
100
AcDbEntity
100
AcDbSpline
 70
8
 71
3
 72
8
 73
4
 74
0
 40
0.0
 40
0.0
 40
0.0
 40
0.0
 40
1.0
 40
1.0
 40
1.0
 40
1.0
 10
90.107176999999993
 20
48.746980000000001
 30
0.0
 10
90.048585000000003
 20
48.703966999999999
 30
0.0
 10
89.966641999999993
 20
48.659635000000002
 30
0.0
 10
89.885475
 20
48.619630000000001
 30
0.0
  0
SPLINE
  5
C0
  8
0
 62
7
420
16777215
370
-1
 48
1.0
  6
BYLAYER
100
AcDbEntity
100
AcDbSpline
 70
8
 71
3
 72
8
 73
4
 74
0
 40
0.0
 40
0.0
 40
0.0
 40
0.0
 40
1.0
 40
1.0
 40
1.0
 40
1.0
 10
89.885475
 20
48.619630000000001
 30
0.0
 10
89.870845000000003
 20
48.608660999999998
 30
0.0
 10
89.856236999999993
 20
48.597662
 30
0.0
 10
89.841650999999999
 20
48.586632999999999
 30
0.0
  0
SPLINE
  5
C1
  8
0
 62
7
420
16777215
370
-1
 48
1.0
  6
BYLAYER
100
AcDbEntity
100
AcDbSpline
 70
8
 71
3
 72
8
 73
4
 74
0
 40
0.0
 40
0.0
 40
0.0
 40
0.0
 40
1.0
 40
1.0
 40
1.0
 40
1.0
 10
89.841650999999999
 20
48.586632999999999
 30
0.0
 10
86.426244999999994
 20
46.043208999999997
 30
0.0
 10
84.411112000000003
 20
42.037402
 30
0.0
 10
84.404841000000005
 20
37.779003000000003
 30
0.0
  0
SPLINE
  5
C2
  8
0
 62
7
420
16777215
370
-1
 48
1.0
  6
BYLAYER
100
AcDbEntity
100
AcDbSpline
 70
8
 71
3
 72
8
 73
4
 74
0
 40
0.0
 40
0.0
 40
0.0
 40
0.0
 40
1.0
 40
1.0
 40
1.0
 40
1.0
 10
84.404841000000005
 20
37.779003000000003
 30
0.0
 10
84.404835000000006
 20
34.198579000000002
 30
0.0
 10
85.827151000000001
 20
30.764797999999999
 30
0.0
 10
88.358892999999995
 20
28.233056000000001
 30
0.0
  0
SPLINE
  5
C3
  8
0
 62
7
420
16777215
370
-1
 48
1.0
  6
BYLAYER
100
AcDbEntity
100
AcDbSpline
 70
8
 71
3
 72
8
 73
4
 74
0
 40
0.0
 40
0.0
 40
0.0
 40
0.0
 40
1.0
 40
1.0
 40
1.0
 40
1.0
 10
88.358892999999995
 20
28.233056000000001
 30
0.0
 10
90.890634000000006
 20
25.701312999999999
 30
0.0
 10
94.324415000000002
 20
24.278997
 30
0.0
 10
97.904838999999996
 20
24.279001999999998
 30
0.0
  0
SPLINE
  5
C4
  8
0
 62
7
420
16777215
370
-1
 48
1.0
  6
BYLAYER
100
AcDbEntity
100
AcDbSpline
 70
8
 71
3
 72
8
 73
4
 74
0
 40
0.0
 40
0.0
 40
0.0
 40
0.0
 40
1.0
 40
1.0
 40
1.0
 40
1.0
 10
97.904838999999996
 20
24.279001999999998
 30
0.0
 10
101.485264
 20
24.278997
 30
0.0
 10
104.919045
 20
25.701312000000001
 30
0.0
 10
107.45078700000001
 20
28.233055
 30
0.0
  0
SPLINE
  5
C5
  8
0
 62
7
420
16777215
370
-1
 48
1.0
  6
BYLAYER
100
AcDbEntity
100
AcDbSpline
 70
8
 71
3
 72
8
 73
4
 74
0
 40
0.0
 40
0.0
 40
0.0
 40
0.0
 40
1.0
 40
1.0
 40
1.0
 40
1.0
 10
107.45078700000001
 20
28.233055
 30
0.0
 10
109.98253
 20
30.764797000000002
 30
0.0
 10
111.40484600000001
 20
34.198579000000002
 30
0.0
 10
111.40483999999999
 20
37.779003000000003
 30
0.0
  0
SPLINE
  5
C6
  8
0
 62
7
420
16777215
370
-1
 48
1.0
  6
BYLAYER
100
AcDbEntity
100
AcDbSpline
 70
8
 71
3
 72
8
 73
4
 74
0
 40
0.0
 40
0.0
 40
0.0
 40
0.0
 40
1.0
 40
1.0
 40
1.0
 40
1.0
 10
111.40483999999999
 20
37.779003000000003
 30
0.0
 10
111.40484499999999
 20
41.359426999999997
 30
0.0
 10
109.982529
 20
44.793208
 30
0.0
 10
107.45078599999999
 20
47.324950000000001
 30
0.0
  0
SPLINE
  5
C7
  8
0
 62
7
420
16777215
370
-1
 48
1.0
  6
BYLAYER
100
AcDbEntity
100
AcDbSpline
 70
8
 71
3
 72
8
 73
4
 74
0
 40
0.0
 40
0.0
 40
0.0
 40
0.0
 40
1.0
 40
1.0
 40
1.0
 40
1.0
 10
107.45078599999999
 20
47.324950000000001
 30
0.0
 10
104.919044
 20
49.856692000000002
 30
0.0
 10
101.485263
 20
51.279007
 30
0.0
 10
97.904838999999996
 20
51.279001999999998
 30
0.0
  0
LWPOLYLINE
  5
C8
  8
0
 62
7
420
16777215
370
-1
 48
1.0
  6
BYLAYER
100
AcDbEntity
100
AcDbPolyline
 90
2
 70
1
 10
51.835945000000002
 20
51.278905999999999
 30
0.0
 10
51.835945000000002
 20
51.278905999999999
 30
0.0
  0
SPLINE
  5
C9
  8
0
 62
7
420
16777215
370
-1
 48
1.0
  6
BYLAYER
100
AcDbEntity
100
AcDbSpline
 70
8
 71
3
 72
8
 73
4
 74
0
 40
0.0
 40
0.0
 40
0.0
 40
0.0
 40
1.0
 40
1.0
 40
1.0
 40
1.0
 10
90.201526999999999
 20
48.833083000000002
 30
0.0
 10
90.223356999999993
 20
48.845809000000003
 30
0.0
 10
90.244303000000002
 20
48.860177
 30
0.0
 10
90.266492
 20
48.872267000000001
 30
0.0
  0
SPLINE
  5
CA
  8
0
 62
7
420
16777215
370
-1
 48
1.0
  6
BYLAYER
100
AcDbEntity
100
AcDbSpline
 70
8
 71
3
 72
8
 73
4
 74
0
 40
0.0
 40
0.0
 40
0.0
 40
0.0
 40
1.0
 40
1.0
 40
1.0
 40
1.0
 10
90.266492
 20
48.872267000000001
 30
0.0
 10
90.247129000000001
 20
48.862259000000002
 30
0.0
 10
90.229491999999993
 20
48.853673999999998
 30
0.0
 10
90.207716000000005
 20
48.841332999999999
 30
0.0
  0
SPLINE
  5
CB
  8
0
 62
7
420
16777215
370
-1
 48
1.0
  6
BYLAYER
100
AcDbEntity
100
AcDbSpline
 70
8
 71
3
 72
8
 73
4
 74
0
 40
0.0
 40
0.0
 40
0.0
 40
0.0
 40
1.0
 40
1.0
 40
1.0
 40
1.0
 10
90.207716000000005
 20
48.841332999999999
 30
0.0
 10
90.205560000000006
 20
48.838667999999998
 30
0.0
 10
90.203694999999996
 20
48.835735999999997
 30
0.0
 10
90.201526999999999
 20
48.833083000000002
 30
0.0
  0
LWPOLYLINE
  5
CC
  8
0
 62
7
420
16777215
370
-1
 48
1.0
  6
BYLAYER
100
AcDbEntity
100
AcDbPolyline
 90
2
 70
1
 10
97.904838999999996
 20
51.279001999999998
 30
0.0
 10
97.904838999999996
 20
51.279001999999998
 30
0.0
  0
SPLINE
  5
CD
  8
0
 62
7
420
16777215
370
-1
 48
1.0
  6
BYLAYER
100
AcDbEntity
100
AcDbSpline
 70
8
 71
3
 72
8
 73
4
 74
0
 40
0.0
 40
0.0
 40
0.0
 40
0.0
 40
1.0
 40
1.0
 40
1.0
 40
1.0
 10
90.266492
 20
48.872267000000001
 30
0.0
 10
90.269850000000005
 20
48.874003000000002
 30
0.0
 10
90.273539
 20
48.875777999999997
 30
0.0
 10
90.276803999999998
 20
48.877423
 30
0.0
  0
SPLINE
  5
CE
  8
0
 62
7
420
16777215
370
-1
 48
1.0
  6
BYLAYER
100
AcDbEntity
100
AcDbSpline
 70
8
 71
3
 72
8
 73
4
 74
0
 40
0.0
 40
0.0
 40
0.0
 40
0.0
 40
1.0
 40
1.0
 40
1.0
 40
1.0
 10
90.276803999999998
 20
48.877423
 30
0.0
 10
90.275647000000006
 20
48.876863999999998
 30
0.0
 10
90.283168000000003
 20
48.881953000000003
 30
0.0
 10
90.281441000000001
 20
48.881030000000003
 30
0.0
  0
SPLINE
  5
CF
  8
0
 62
7
420
16777215
370
-1
 48
1.0
  6
BYLAYER
100
AcDbEntity
100
AcDbSpline
 70
8
 71
3
 72
8
 73
4
 74
0
 40
0.0
 40
0.0
 40
0.0
 40
0.0
 40
1.0
 40
1.0
 40
1.0
 40
1.0
 10
90.281441000000001
 20
48.881030000000003
 30
0.0
 10
90.276353
 20
48.878309000000002
 30
0.0
 10
90.271557999999999
 20
48.875027000000003
 30
0.0
 10
90.266492
 20
48.872267000000001
 30
0.0
  0
LWPOLYLINE
  5
D0
  8
0
 62
7
420
16777215
370
-1
 48
1.0
  6
BYLAYER
100
AcDbEntity
100
AcDbPolyline
 90
2
 70
1
 10
90.201526999999999
 20
48.833083000000002
 30
0.0
 10
90.201526999999999
 20
48.833083000000002
 30
0.0
  0
SPLINE
  5
D1
  8
0
 62
7
420
16777215
370
-1
 48
1.0
  6
BYLAYER
100
AcDbEntity
100
AcDbSpline
 70
8
 71
3
 72
8
 73
4
 74
0
 40
0.0
 40
0.0
 40
0.0
 40
0.0
 40
1.0
 40
1.0
 40
1.0
 40
1.0
 10
90.377342999999996
 20
48.979506000000001
 30
0.0
 10
90.335950999999994
 20
48.953093000000003
 30
0.0
 10
90.294703999999996
 20
48.926454999999997
 30
0.0
 10
90.253602999999998
 20
48.899591999999998
 30
0.0
  0
SPLINE
  5
D2
  8
0
 62
7
420
16777215
370
-1
 48
1.0
  6
BYLAYER
100
AcDbEntity
100
AcDbSpline
 70
8
 71
3
 72
8
 73
4
 74
0
 40
0.0
 40
0.0
 40
0.0
 40
0.0
 40
1.0
 40
1.0
 40
1.0
 40
1.0
 10
90.253602999999998
 20
48.899591999999998
 30
0.0
 10
90.287285999999995
 20
48.911873999999997
 30
0.0
 10
90.319419999999994
 20
48.926094999999997
 30
0.0
 10
90.345889
 20
48.947024999999996
 30
0.0
  0
SPLINE
  5
D3
  8
0
 62
7
420
16777215
370
-1
 48
1.0
  6
BYLAYER
100
AcDbEntity
100
AcDbSpline
 70
8
 71
3
 72
8
 73
4
 74
0
 40
0.0
 40
0.0
 40
0.0
 40
0.0
 40
1.0
 40
1.0
 40
1.0
 40
1.0
 10
90.345889
 20
48.947024999999996
 30
0.0
 10
90.354586999999995
 20
48.953899999999997
 30
0.0
 10
90.367250999999996
 20
48.969723999999999
 30
0.0
 10
90.377342999999996
 20
48.979506000000001
 30
0.0
  0
LWPOLYLINE
  5
D4
  8
0
 62
7
420
16777215
370
-1
 48
1.0
  6
BYLAYER
100
AcDbEntity
100
AcDbPolyline
 90
2
 70
1
 10
90.266492
 20
48.872267000000001
 30
0.0
 10
90.266492
 20
48.872267000000001
 30
0.0
  0
SPLINE
  5
D5
  8
0
 62
7
420
16777215
370
-1
 48
1.0
  6
BYLAYER
100
AcDbEntity
100
AcDbSpline
 70
8
 71
3
 72
8
 73
4
 74
0
 40
0.0
 40
0.0
 40
0.0
 40
0.0
 40
1.0
 40
1.0
 40
1.0
 40
1.0
 10
90.140174999999999
 20
48.795960000000001
 30
0.0
 10
90.104095000000001
 20
48.774039999999999
 30
0.0
 10
90.067249000000004
 20
48.753295999999999
 30
0.0
 10
90.031386999999995
 20
48.730998
 30
0.0
  0
SPLINE
  5
D6
  8
0
 62
7
420
16777215
370
-1
 48
1.0
  6
BYLAYER
100
AcDbEntity
100
AcDbSpline
 70
8
 71
3
 72
8
 73
4
 74
0
 40
0.0
 40
0.0
 40
0.0
 40
0.0
 40
1.0
 40
1.0
 40
1.0
 40
1.0
 10
90.031386999999995
 20
48.730998
 30
0.0
 10
90.016582999999997
 20
48.719684999999998
 30
0.0
 10
90.001802999999995
 20
48.708342000000002
 30
0.0
 10
89.987047000000004
 20
48.696967000000001
 30
0.0
  0
SPLINE
  5
D7
  8
0
 62
7
420
16777215
370
-1
 48
1.0
  6
BYLAYER
100
AcDbEntity
100
AcDbSpline
 70
8
 71
3
 72
8
 73
4
 74
0
 40
0.0
 40
0.0
 40
0.0
 40
0.0
 40
1.0
 40
1.0
 40
1.0
 40
1.0
 10
89.987047000000004
 20
48.696967000000001
 30
0.0
 10
90.044075000000007
 20
48.722892000000002
 30
0.0
 10
90.101900000000001
 20
48.748393999999998
 30
0.0
 10
90.140174999999999
 20
48.795960000000001
 30
0.0
  0
LWPOLYLINE
  5
D8
  8
0
 62
7
420
16777215
370
-1
 48
1.0
  6
BYLAYER
100
AcDbEntity
100
AcDbPolyline
 90
2
 70
1
 10
90.377342999999996
 20
48.979506000000001
 30
0.0
 10
90.377342999999996
 20
48.979506000000001
 30
0.0
  0
LWPOLYLINE
  5
D9
  8
0
 62
7
420
16777215
370
-1
 48
1.0
  6
BYLAYER
100
AcDbEntity
100
AcDbPolyline
 90
2
 70
1
 10
90.140174999999999
 20
48.795960000000001
 30
0.0
 10
90.140174999999999
 20
48.795960000000001
 30
0.0
  0
LINE
  5
DA
100
AcDbEntity
100
AcDbLine
  8
0
 62
256
370
-1
 48
1.0
  6
BYLAYER
 10
66.664527000000007
 20
32.002535000000002
 30
0.0
 11
82.804109999999994
 21
32.000331000000003
 31
0.0
  0
LINE
  5
DB
100
AcDbEntity
100
AcDbLine
  8
0
 62
256
370
-1
 48
1.0
  6
BYLAYER
 10
82.804109999999994
 20
32.000331000000003
 30
0.0
 11
82.804109999999994
 21
32.000331000000003
 31
0.0
  0
LINE
  5
DC
100
AcDbEntity
100
AcDbLine
  8
0
 62
256
370
-1
 48
1.0
  6
BYLAYER
 10
103.911798
 20
83.77543
 30
0.0
 11
44.356844000000002
 21
83.782595999999998
 31
0.0
  0
LINE
  5
DD
100
AcDbEntity
100
AcDbLine
  8
0
 62
256
370
-1
 48
1.0
  6
BYLAYER
 10
44.356844000000002
 20
83.782595999999998
 30
0.0
 11
44.356844000000002
 21
83.782595999999998
 31
0.0
  0
ENDSEC
  0
SECTION
  2
OBJECTS
  0
DICTIONARY
  5
C
100
AcDbDictionary
280
0
281
1
  3
ACAD_GROUP
350
D
  3
ACAD_LAYOUT
350
1A
  3
ACAD_MLINESTYLE
350
17
  3
ACAD_PLOTSETTINGS
350
19
  3
ACAD_PLOTSTYLENAME
350
E
  3
AcDbVariableDictionary
350
DE
  3
QCAD_OBJECTS
350
DF
  0
DICTIONARY
  5
D
100
AcDbDictionary
280
0
281
1
  0
ACDBDICTIONARYWDFLT
  5
E
100
AcDbDictionary
281
1
  3
Normal
350
F
100
AcDbDictionaryWithDefault
340
F
  0
ACDBPLACEHOLDER
  5
F
  0
DICTIONARY
  5
17
100
AcDbDictionary
280
0
281
1
  3
Standard
350
18
  0
MLINESTYLE
  5
18
100
AcDbMlineStyle
  2
STANDARD
 70
0
  3

 62
256
 51
90.0
 52
90.0
 71
2
 49
0.5
 62
256
  6
BYLAYER
 49
-0.5
 62
256
  6
BYLAYER
  0
DICTIONARY
  5
19
100
AcDbDictionary
280
0
281
1
  0
DICTIONARY
  5
1A
100
AcDbDictionary
281
1
  3
Layout1
350
1E
  3
Layout2
350
26
  3
Model
350
22
  0
LAYOUT
  5
1E
100
AcDbPlotSettings
  1

  2
none_device
  4

  6

 40
0.0
 41
0.0
 42
0.0
 43
0.0
 44
0.0
 45
0.0
 46
0.0
 47
0.0
 48
0.0
 49
0.0
140
0.0
141
0.0
142
1.0
143
1.0
 70
688
 72
0
 73
0
 74
5
  7

 75
16
147
1.0
148
0.0
149
0.0
100
AcDbLayout
  1
Layout1
 70
1
 71
1
 10
0.0
 20
0.0
 11
420.0
 21
297.0
 12
0.0
 22
0.0
 32
0.0
 14
100000000000000000000.0
 24
100000000000000000000.0
 34
100000000000000000000.0
 15
-100000000000000000000.0
 25
-100000000000000000000.0
 35
-100000000000000000000.0
146
0.0
 13
0.0
 23
0.0
 33
0.0
 16
1.0
 26
0.0
 36
0.0
 17
0.0
 27
1.0
 37
0.0
 76
0
330
1B
  0
LAYOUT
  5
22
100
AcDbPlotSettings
  1

  2
none_device
  4

  6

 40
0.0
 41
0.0
 42
0.0
 43
0.0
 44
0.0
 45
0.0
 46
0.0
 47
0.0
 48
0.0
 49
0.0
140
0.0
141
0.0
142
1.0
143
1.0
 70
1712
 72
0
 73
0
 74
0
  7

 75
0
147
1.0
148
0.0
149
0.0
100
AcDbLayout
  1
Model
 70
1
 71
0
 10
0.0
 20
0.0
 11
12.0
 21
9.0
 12
0.0
 22
0.0
 32
0.0
 14
0.0
 24
0.0
 34
0.0
 15
0.0
 25
0.0
 35
0.0
146
0.0
 13
0.0
 23
0.0
 33
0.0
 16
1.0
 26
0.0
 36
0.0
 17
0.0
 27
1.0
 37
0.0
 76
0
330
1F
  0
LAYOUT
  5
26
100
AcDbPlotSettings
  1

  2
none_device
  4

  6

 40
0.0
 41
0.0
 42
0.0
 43
0.0
 44
0.0
 45
0.0
 46
0.0
 47
0.0
 48
0.0
 49
0.0
140
0.0
141
0.0
142
1.0
143
1.0
 70
688
 72
0
 73
0
 74
5
  7

 75
16
147
1.0
148
0.0
149
0.0
100
AcDbLayout
  1
Layout2
 70
1
 71
2
 10
0.0
 20
0.0
 11
12.0
 21
9.0
 12
0.0
 22
0.0
 32
0.0
 14
0.0
 24
0.0
 34
0.0
 15
0.0
 25
0.0
 35
0.0
146
0.0
 13
0.0
 23
0.0
 33
0.0
 16
1.0
 26
0.0
 36
0.0
 17
0.0
 27
1.0
 37
0.0
 76
0
330
23
  0
DICTIONARY
  5
DE
100
AcDbDictionary
281
1
  3
DIMASSOC
350
E1
  3
HIDETEXT
350
E0
  0
DICTIONARYVAR
  5
E0
100
DictionaryVariables
280
0
  1
2
  0
DICTIONARYVAR
  5
E1
100
DictionaryVariables
280
0
  1
1
  0
DICTIONARY
  5
DF
100
AcDbDictionary
281
1
  3
ColorSettings/BackgroundColor
350
E2
  3
ColorSettings/ColorMode
350
E3
  3
Grid/DisplayGrid00
350
E4
  3
Grid/DisplayGrid01
350
E5
  3
Grid/DisplayGrid02
350
E6
  3
Grid/DisplayGrid03
350
E7
  3
Grid/GridSpacingX00
350
E8
  3
Grid/GridSpacingX01
350
E9
  3
Grid/GridSpacingX02
350
EA
  3
Grid/GridSpacingX03
350
EB
  3
Grid/GridSpacingY00
350
EC
  3
Grid/GridSpacingY01
350
ED
  3
Grid/GridSpacingY02
350
EE
  3
Grid/GridSpacingY03
350
EF
  3
Grid/IsometricGrid00
350
F0
  3
Grid/IsometricGrid01
350
F1
  3
Grid/IsometricGrid02
350
F2
  3
Grid/IsometricGrid03
350
F3
  3
Grid/IsometricProjection00
350
F4
  3
Grid/IsometricProjection01
350
F5
  3
Grid/IsometricProjection02
350
F6
  3
Grid/IsometricProjection03
350
F7
  3
Grid/MetaGridSpacingX00
350
F8
  3
Grid/MetaGridSpacingX01
350
F9
  3
Grid/MetaGridSpacingX02
350
FA
  3
Grid/MetaGridSpacingX03
350
FB
  3
Grid/MetaGridSpacingY00
350
FC
  3
Grid/MetaGridSpacingY01
350
FD
  3
Grid/MetaGridSpacingY02
350
FE
  3
Grid/MetaGridSpacingY03
350
FF
  3
MultiPageSettings/Columns
350
100
  3
MultiPageSettings/GlueMarginsBottom
350
101
  3
MultiPageSettings/GlueMarginsLeft
350
102
  3
MultiPageSettings/GlueMarginsRight
350
103
  3
MultiPageSettings/GlueMarginsTop
350
104
  3
MultiPageSettings/PrintCropMarks
350
105
  3
MultiPageSettings/Rows
350
106
  3
PageSettings/OffsetX
350
107
  3
PageSettings/OffsetY
350
108
  3
PageSettings/PageOrientation
350
109
  3
PageSettings/PaperHeight
350
10A
  3
PageSettings/PaperWidth
350
10B
  3
PageSettings/Scale
350
10C
  3
PageSettings/ShowPaperBorders
350
10D
  3
QCADVersion
350
10E
  3
UnitSettings/PaperUnit
350
10F
  3
ViewportCenter
350
110
  3
ViewportHeight
350
111
  3
ViewportWidth
350
112
  0
XRECORD
  5
E2
330
DF
100
AcDbXrecord
280
1
1000
White
  0
XRECORD
  5
E3
330
DF
100
AcDbXrecord
280
1
1000
FullColor
  0
XRECORD
  5
E4
330
DF
100
AcDbXrecord
280
1
290
1
  0
XRECORD
  5
E5
330
DF
100
AcDbXrecord
280
1
290
1
  0
XRECORD
  5
E6
330
DF
100
AcDbXrecord
280
1
290
1
  0
XRECORD
  5
E7
330
DF
100
AcDbXrecord
280
1
290
1
  0
XRECORD
  5
E8
330
DF
100
AcDbXrecord
280
1
1000
auto
  0
XRECORD
  5
E9
330
DF
100
AcDbXrecord
280
1
1000
auto
  0
XRECORD
  5
EA
330
DF
100
AcDbXrecord
280
1
1000
auto
  0
XRECORD
  5
EB
330
DF
100
AcDbXrecord
280
1
1000
auto
  0
XRECORD
  5
EC
330
DF
100
AcDbXrecord
280
1
1000
auto
  0
XRECORD
  5
ED
330
DF
100
AcDbXrecord
280
1
1000
auto
  0
XRECORD
  5
EE
330
DF
100
AcDbXrecord
280
1
1000
auto
  0
XRECORD
  5
EF
330
DF
100
AcDbXrecord
280
1
1000
auto
  0
XRECORD
  5
F0
330
DF
100
AcDbXrecord
280
1
290
0
  0
XRECORD
  5
F1
330
DF
100
AcDbXrecord
280
1
290
0
  0
XRECORD
  5
F2
330
DF
100
AcDbXrecord
280
1
290
0
  0
XRECORD
  5
F3
330
DF
100
AcDbXrecord
280
1
290
0
  0
XRECORD
  5
F4
330
DF
100
AcDbXrecord
280
1
 90
0
  0
XRECORD
  5
F5
330
DF
100
AcDbXrecord
280
1
 90
0
  0
XRECORD
  5
F6
330
DF
100
AcDbXrecord
280
1
 90
0
  0
XRECORD
  5
F7
330
DF
100
AcDbXrecord
280
1
 90
0
  0
XRECORD
  5
F8
330
DF
100
AcDbXrecord
280
1
1000
auto
  0
XRECORD
  5
F9
330
DF
100
AcDbXrecord
280
1
1000
auto
  0
XRECORD
  5
FA
330
DF
100
AcDbXrecord
280
1
1000
auto
  0
XRECORD
  5
FB
330
DF
100
AcDbXrecord
280
1
1000
auto
  0
XRECORD
  5
FC
330
DF
100
AcDbXrecord
280
1
1000
auto
  0
XRECORD
  5
FD
330
DF
100
AcDbXrecord
280
1
1000
auto
  0
XRECORD
  5
FE
330
DF
100
AcDbXrecord
280
1
1000
auto
  0
XRECORD
  5
FF
330
DF
100
AcDbXrecord
280
1
1000
auto
  0
XRECORD
  5
100
330
DF
100
AcDbXrecord
280
1
 90
1
  0
XRECORD
  5
101
330
DF
100
AcDbXrecord
280
1
 40
10.0
  0
XRECORD
  5
102
330
DF
100
AcDbXrecord
280
1
 40
10.0
  0
XRECORD
  5
103
330
DF
100
AcDbXrecord
280
1
 40
10.0
  0
XRECORD
  5
104
330
DF
100
AcDbXrecord
280
1
 40
10.0
  0
XRECORD
  5
105
330
DF
100
AcDbXrecord
280
1
290
0
  0
XRECORD
  5
106
330
DF
100
AcDbXrecord
280
1
 90
1
  0
XRECORD
  5
107
330
DF
100
AcDbXrecord
280
1
 40
0.0
  0
XRECORD
  5
108
330
DF
100
AcDbXrecord
280
1
 40
0.0
  0
XRECORD
  5
109
330
DF
100
AcDbXrecord
280
1
1000
Portrait
  0
XRECORD
  5
10A
330
DF
100
AcDbXrecord
280
1
 40
297.0
  0
XRECORD
  5
10B
330
DF
100
AcDbXrecord
280
1
 40
210.0
  0
XRECORD
  5
10C
330
DF
100
AcDbXrecord
280
1
1000
1:1
  0
XRECORD
  5
10D
330
DF
100
AcDbXrecord
280
1
290
1
  0
XRECORD
  5
10E
330
DF
100
AcDbXrecord
280
1
1000
3.15.4
  0
XRECORD
  5
10F
330
DF
100
AcDbXrecord
280
1
 90
4
  0
XRECORD
  5
111
330
DF
100
AcDbXrecord
280
1
 40
188.37520210075635
  0
XRECORD
  5
112
330
DF
100
AcDbXrecord
280
1
 40
411.11909003513802
  0
ENDSEC
  0
EOF
