G04 #@! TF.FileFunction,Copper,L2,Bot,Signal*
%FSLAX46Y46*%
G04 Gerber Fmt 4.6, Leading zero omitted, Abs format (unit mm)*
G04 Created by KiCad (PCBNEW 4.0.2-stable) date 11/17/2016 12:04:15 PM*
%MOMM*%
G01*
G04 APERTURE LIST*
%ADD10C,0.100000*%
%ADD11C,0.600000*%
%ADD12R,1.998980X1.998980*%
%ADD13O,1.998980X1.998980*%
%ADD14C,3.000000*%
%ADD15C,0.700000*%
%ADD16C,1.727200*%
%ADD17O,1.727200X1.727200*%
%ADD18R,1.727200X2.032000*%
%ADD19O,1.727200X2.032000*%
%ADD20O,1.050000X0.850000*%
%ADD21O,1.500000X0.850000*%
%ADD22C,0.250000*%
%ADD23C,0.750000*%
%ADD24C,0.254000*%
G04 APERTURE END LIST*
D10*
D11*
X103150000Y-108000000D03*
D12*
X105650000Y-103630000D03*
D13*
X100650000Y-103630000D03*
D12*
X100650000Y-117348000D03*
D13*
X105650000Y-117348000D03*
D12*
X92964000Y-107990000D03*
D13*
X92964000Y-112990000D03*
D14*
X90500000Y-101400000D03*
X146000000Y-101300000D03*
X146000000Y-119700000D03*
X90500000Y-119700000D03*
D11*
X103150000Y-110510000D03*
X103150000Y-109910000D03*
X103150000Y-111090000D03*
X103150000Y-113000000D03*
X103900000Y-113750000D03*
X103900000Y-107250000D03*
D15*
X111660000Y-105510000D03*
X110390000Y-105510000D03*
X111660000Y-104240000D03*
X110390000Y-104240000D03*
X111660000Y-102970000D03*
X110390000Y-102970000D03*
X111660000Y-101700000D03*
X110390000Y-101700000D03*
X111660000Y-100430000D03*
X110390000Y-100430000D03*
D16*
X139550000Y-114560000D03*
D17*
X139550000Y-117100000D03*
X137010000Y-114560000D03*
X137010000Y-117100000D03*
X134470000Y-114560000D03*
X134470000Y-117100000D03*
D18*
X116030000Y-120650000D03*
D19*
X118570000Y-120650000D03*
X121110000Y-120650000D03*
X123650000Y-120650000D03*
X126190000Y-120650000D03*
X128730000Y-120650000D03*
X131270000Y-120650000D03*
X133810000Y-120650000D03*
X136350000Y-120650000D03*
X138890000Y-120650000D03*
D18*
X138890000Y-100330000D03*
D19*
X136350000Y-100330000D03*
X133810000Y-100330000D03*
X131270000Y-100330000D03*
X128730000Y-100330000D03*
X126190000Y-100330000D03*
X123650000Y-100330000D03*
X121110000Y-100330000D03*
X118570000Y-100330000D03*
X116030000Y-100330000D03*
D20*
X143770000Y-112705000D03*
X143770000Y-108255000D03*
D21*
X146770000Y-114655000D03*
X146770000Y-106305000D03*
D11*
X114110000Y-105920000D03*
X118240000Y-105920000D03*
X116070000Y-116110000D03*
X123760000Y-118250000D03*
X126350000Y-117610000D03*
X132510000Y-118570000D03*
X96000000Y-99880000D03*
X118840000Y-107020000D03*
X122290000Y-118200000D03*
X118840000Y-115840000D03*
X133020000Y-106330000D03*
X127382019Y-104640000D03*
X126550000Y-112120000D03*
X130170000Y-118060000D03*
X121620000Y-104760000D03*
X122430000Y-111720000D03*
X117600000Y-112750000D03*
X98770000Y-110550000D03*
X126340000Y-107990000D03*
X136220000Y-108360000D03*
X136130000Y-109220000D03*
X125310000Y-108070000D03*
X101350000Y-109475000D03*
X100375000Y-109725000D03*
X100375000Y-111325000D03*
X101350000Y-111575000D03*
X131180000Y-113880000D03*
X130340000Y-114560000D03*
X130820000Y-115290000D03*
X117670000Y-108460000D03*
X122100000Y-109110000D03*
X114510000Y-117420000D03*
X123520000Y-112740000D03*
X124770000Y-116620000D03*
X130800000Y-116740000D03*
X127590000Y-116260000D03*
X126330000Y-116790000D03*
X125670000Y-113590000D03*
X131270000Y-112480000D03*
X130320000Y-106080000D03*
X122690000Y-104500000D03*
X129400000Y-104260000D03*
X132250000Y-109590000D03*
X127440000Y-109530000D03*
X127940000Y-110440000D03*
X132170000Y-110440000D03*
X125300000Y-110260000D03*
X105850000Y-109180000D03*
X121710000Y-115710000D03*
X105400000Y-109900000D03*
X122500000Y-116400000D03*
X105400000Y-110750000D03*
X121670000Y-111150000D03*
X110400000Y-112930000D03*
X110970000Y-110500000D03*
X105840000Y-111520000D03*
X123150000Y-117150000D03*
X105820000Y-112370000D03*
X123730000Y-107740000D03*
X126980000Y-110470000D03*
X113630000Y-112970000D03*
X111400000Y-112970000D03*
X129410000Y-103260000D03*
X130340000Y-101940000D03*
X134550000Y-103180000D03*
D22*
X114110000Y-105920000D02*
X114330000Y-105920000D01*
X114330000Y-105920000D02*
X114280000Y-105920000D01*
X118240000Y-105920000D02*
X114280000Y-105920000D01*
X118140000Y-116110000D02*
X119470000Y-117440000D01*
X119470000Y-117440000D02*
X121010000Y-118980000D01*
X123030000Y-118980000D02*
X121010000Y-118980000D01*
X123760000Y-118250000D02*
X123030000Y-118980000D01*
X116070000Y-116110000D02*
X118140000Y-116110000D01*
X132360000Y-118720000D02*
X132510000Y-118570000D01*
X128790000Y-118720000D02*
X132360000Y-118720000D01*
X127680000Y-117610000D02*
X128790000Y-118720000D01*
X126350000Y-117610000D02*
X127680000Y-117610000D01*
X139550000Y-117100000D02*
X138080000Y-118570000D01*
X138080000Y-118570000D02*
X132510000Y-118570000D01*
X132570000Y-118630000D02*
X132510000Y-118570000D01*
D23*
X98730000Y-110550000D02*
X98770000Y-110550000D01*
X97270000Y-107120000D02*
X97270000Y-102490000D01*
X97270000Y-109090000D02*
X97270000Y-107120000D01*
X97270000Y-102490000D02*
X97270000Y-101150000D01*
X97270000Y-101150000D02*
X96000000Y-99880000D01*
X98730000Y-110550000D02*
X97270000Y-109090000D01*
D22*
X131430000Y-115970000D02*
X131770000Y-115970000D01*
X131770000Y-115970000D02*
X132900000Y-117100000D01*
X131450000Y-118060000D02*
X131940000Y-118060000D01*
X131940000Y-118060000D02*
X132900000Y-117100000D01*
X131330000Y-115970000D02*
X131430000Y-115970000D01*
X133020000Y-106330000D02*
X131860000Y-106330000D01*
X131370000Y-106820000D02*
X129562019Y-106820000D01*
X131860000Y-106330000D02*
X131370000Y-106820000D01*
X121100000Y-104760000D02*
X121620000Y-104760000D01*
X118840000Y-107020000D02*
X121100000Y-104760000D01*
X121620000Y-104760000D02*
X121630000Y-104760000D01*
X121630000Y-104760000D02*
X122170000Y-105300000D01*
X122170000Y-105300000D02*
X126722019Y-105300000D01*
X126722019Y-105300000D02*
X127382019Y-104640000D01*
X131330000Y-115970000D02*
X131350000Y-115970000D01*
X126020000Y-112120000D02*
X124770000Y-113370000D01*
X124770000Y-113370000D02*
X124770000Y-114240000D01*
X124770000Y-114240000D02*
X126000000Y-115470000D01*
X126000000Y-115470000D02*
X129390000Y-115470000D01*
X129390000Y-115470000D02*
X129890000Y-115970000D01*
X129890000Y-115970000D02*
X131330000Y-115970000D01*
X122290000Y-118200000D02*
X121200000Y-118200000D01*
X121200000Y-118200000D02*
X118840000Y-115840000D01*
X129562019Y-106820000D02*
X127382019Y-104640000D01*
X126020000Y-112120000D02*
X125620000Y-111720000D01*
X125290000Y-111720000D02*
X122430000Y-111720000D01*
X125290000Y-111720000D02*
X125620000Y-111720000D01*
X126550000Y-112120000D02*
X126020000Y-112120000D01*
X130170000Y-118060000D02*
X131450000Y-118060000D01*
X131450000Y-118060000D02*
X131520000Y-118060000D01*
X134470000Y-117100000D02*
X133240000Y-117100000D01*
X133240000Y-117100000D02*
X132900000Y-117100000D01*
D23*
X96330000Y-112990000D02*
X92964000Y-112990000D01*
X92964000Y-112990000D02*
X94600000Y-112990000D01*
D22*
X121400000Y-112750000D02*
X117600000Y-112750000D01*
X122430000Y-111720000D02*
X121400000Y-112750000D01*
X117600000Y-112750000D02*
X121300000Y-112750000D01*
D23*
X98770000Y-110550000D02*
X96330000Y-112990000D01*
D22*
X126710000Y-108360000D02*
X126340000Y-107990000D01*
X127580000Y-108360000D02*
X126710000Y-108360000D01*
X129190000Y-108360000D02*
X127580000Y-108360000D01*
X136220000Y-108360000D02*
X129190000Y-108360000D01*
X135740000Y-108830000D02*
X136130000Y-109220000D01*
X126070000Y-108830000D02*
X135740000Y-108830000D01*
X125310000Y-108070000D02*
X126070000Y-108830000D01*
D23*
X101350000Y-107650000D02*
X105368000Y-103632000D01*
X101350000Y-107650000D02*
X101350000Y-109475000D01*
X105370000Y-103632000D02*
X105368000Y-103632000D01*
X100370000Y-109720000D02*
X100370000Y-103632000D01*
X100370000Y-109720000D02*
X100375000Y-109725000D01*
X100370000Y-111330000D02*
X100370000Y-117348000D01*
X100370000Y-111330000D02*
X100375000Y-111325000D01*
X101595002Y-113575000D02*
X101350000Y-113329998D01*
X101350000Y-113329998D02*
X101350000Y-111575000D01*
X101600000Y-113575000D02*
X105370000Y-117345000D01*
X101600000Y-113575000D02*
X101595002Y-113575000D01*
X105370000Y-117348000D02*
X105370000Y-117345000D01*
D22*
X137460000Y-112470000D02*
X139550000Y-114560000D01*
X133290000Y-112470000D02*
X137460000Y-112470000D01*
X131880000Y-113880000D02*
X133290000Y-112470000D01*
X131180000Y-113880000D02*
X131880000Y-113880000D01*
X131820000Y-114560000D02*
X132160000Y-114560000D01*
X135650000Y-113200000D02*
X137010000Y-114560000D01*
X133520000Y-113200000D02*
X135650000Y-113200000D01*
X132160000Y-114560000D02*
X133520000Y-113200000D01*
X131750000Y-114560000D02*
X131820000Y-114560000D01*
X130340000Y-114560000D02*
X131750000Y-114560000D01*
X131880000Y-115290000D02*
X133110000Y-115290000D01*
X133110000Y-115290000D02*
X133650000Y-115830000D01*
X133650000Y-115830000D02*
X135740000Y-115830000D01*
X135740000Y-115830000D02*
X137010000Y-117100000D01*
X130820000Y-115290000D02*
X131880000Y-115290000D01*
X112030000Y-106620000D02*
X111500000Y-106620000D01*
X114450000Y-108460000D02*
X113370000Y-107380000D01*
X112610000Y-106620000D02*
X113370000Y-107380000D01*
X112030000Y-106620000D02*
X112610000Y-106620000D01*
X117670000Y-108460000D02*
X114450000Y-108460000D01*
X111500000Y-106620000D02*
X110390000Y-105510000D01*
X111030000Y-107240000D02*
X110620000Y-107240000D01*
X110620000Y-107240000D02*
X109480000Y-106100000D01*
X109480000Y-106100000D02*
X109480000Y-105150000D01*
X109480000Y-105150000D02*
X110390000Y-104240000D01*
X115110000Y-109110000D02*
X113650000Y-109110000D01*
X111780000Y-107240000D02*
X111030000Y-107240000D01*
X113650000Y-109110000D02*
X111780000Y-107240000D01*
X122100000Y-109110000D02*
X115110000Y-109110000D01*
X118080000Y-117420000D02*
X121110000Y-120450000D01*
X114510000Y-117420000D02*
X118080000Y-117420000D01*
X121110000Y-120450000D02*
X121110000Y-120650000D01*
X124470000Y-118060000D02*
X124470000Y-118930000D01*
X124470000Y-118930000D02*
X126190000Y-120650000D01*
X124470000Y-118510000D02*
X124470000Y-118480000D01*
X123520000Y-116420000D02*
X123890000Y-116790000D01*
X124470000Y-118240000D02*
X124470000Y-118060000D01*
X124470000Y-118060000D02*
X124470000Y-117370000D01*
X124470000Y-117370000D02*
X123890000Y-116790000D01*
X123520000Y-112740000D02*
X123520000Y-116420000D01*
X124470000Y-118480000D02*
X124470000Y-118240000D01*
X124770000Y-116620000D02*
X125209998Y-117059998D01*
X125209998Y-117059998D02*
X125209998Y-117129998D01*
X126670000Y-119135000D02*
X126158602Y-119135000D01*
X125209998Y-118186396D02*
X125209998Y-117129998D01*
X126158602Y-119135000D02*
X125209998Y-118186396D01*
X127115000Y-119135000D02*
X128630000Y-120650000D01*
X127115000Y-119135000D02*
X126670000Y-119135000D01*
X128730000Y-120650000D02*
X128630000Y-120650000D01*
X128500000Y-120650000D02*
X128110000Y-120650000D01*
X127590000Y-116260000D02*
X129060000Y-116260000D01*
X129540000Y-116740000D02*
X130800000Y-116740000D01*
X129060000Y-116260000D02*
X129540000Y-116740000D01*
X126330000Y-116790000D02*
X126220000Y-116790000D01*
X138890000Y-120650000D02*
X137480000Y-119240000D01*
X128260000Y-119240000D02*
X127390000Y-118370000D01*
X127390000Y-118370000D02*
X126030000Y-118370000D01*
X126030000Y-118370000D02*
X125660000Y-118000000D01*
X125660000Y-118000000D02*
X125660000Y-117350000D01*
X128610000Y-119240000D02*
X128260000Y-119240000D01*
X128610000Y-119240000D02*
X137480000Y-119240000D01*
X126220000Y-116790000D02*
X125660000Y-117350000D01*
X138890000Y-120650000D02*
X138890000Y-120610002D01*
X138890000Y-120650000D02*
X138760000Y-120650000D01*
X138890000Y-100330000D02*
X138890000Y-108290000D01*
X133240000Y-111680000D02*
X132050000Y-112870000D01*
X138890000Y-108290000D02*
X135500000Y-111680000D01*
X135500000Y-111680000D02*
X133240000Y-111680000D01*
X131690000Y-113230000D02*
X132050000Y-112870000D01*
X126030000Y-113230000D02*
X131690000Y-113230000D01*
X125670000Y-113590000D02*
X126030000Y-113230000D01*
X138890000Y-100330000D02*
X138880000Y-100330000D01*
X132050000Y-112870000D02*
X131880000Y-113040000D01*
X136350000Y-100330000D02*
X136350000Y-105950000D01*
X131270000Y-112480000D02*
X132710000Y-111040000D01*
X132710000Y-111040000D02*
X135290000Y-111040000D01*
X135290000Y-111040000D02*
X136950000Y-109380000D01*
X136350000Y-105950000D02*
X136950000Y-106550000D01*
X136950000Y-106550000D02*
X136950000Y-109380000D01*
X129470000Y-101730000D02*
X129470000Y-102300000D01*
X129470000Y-102300000D02*
X130320000Y-103150000D01*
X130320000Y-103150000D02*
X130320000Y-104210000D01*
X129470000Y-101730000D02*
X130870000Y-100330000D01*
X130320000Y-106080000D02*
X130320000Y-104210000D01*
X131270000Y-100330000D02*
X130870000Y-100330000D01*
X129400000Y-104260000D02*
X129020000Y-103880000D01*
X129020000Y-103880000D02*
X123310000Y-103880000D01*
X123310000Y-103880000D02*
X122690000Y-104500000D01*
X127500000Y-109590000D02*
X132250000Y-109590000D01*
X127440000Y-109530000D02*
X127500000Y-109590000D01*
X132170000Y-110440000D02*
X127940000Y-110440000D01*
X125300000Y-110260000D02*
X122240000Y-110260000D01*
X113360000Y-109750000D02*
X121730000Y-109750000D01*
X112790000Y-109180000D02*
X113360000Y-109750000D01*
X105850000Y-109180000D02*
X112790000Y-109180000D01*
X122240000Y-110260000D02*
X121730000Y-109750000D01*
X121710000Y-115710000D02*
X119550000Y-113550000D01*
X119550000Y-113550000D02*
X116650000Y-113550000D01*
X116650000Y-113550000D02*
X114290000Y-111190000D01*
X108660000Y-109900000D02*
X109410000Y-109900000D01*
X110700000Y-111190000D02*
X114290000Y-111190000D01*
X109410000Y-109900000D02*
X110700000Y-111190000D01*
X105400000Y-109900000D02*
X108660000Y-109900000D01*
X115940000Y-114050000D02*
X119040000Y-114050000D01*
X122500000Y-116400000D02*
X121390000Y-116400000D01*
X119040000Y-114050000D02*
X121390000Y-116400000D01*
X115940000Y-114050000D02*
X115825000Y-113935000D01*
X115825000Y-113935000D02*
X115620000Y-113730000D01*
X115620000Y-113730000D02*
X113630000Y-111740000D01*
X108010000Y-110750000D02*
X109270000Y-110750000D01*
X110260000Y-111740000D02*
X113630000Y-111740000D01*
X109270000Y-110750000D02*
X110260000Y-111740000D01*
X107900000Y-110750000D02*
X108010000Y-110750000D01*
X105400000Y-110750000D02*
X107900000Y-110750000D01*
X105840000Y-111520000D02*
X108990000Y-111520000D01*
X108990000Y-111520000D02*
X110400000Y-112930000D01*
X115550000Y-111150000D02*
X121670000Y-111150000D01*
X110970000Y-110500000D02*
X114900000Y-110500000D01*
X114900000Y-110500000D02*
X115550000Y-111150000D01*
X105820000Y-112370000D02*
X108300000Y-112370000D01*
X108300000Y-112370000D02*
X110960000Y-115030000D01*
X119020000Y-115030000D02*
X110960000Y-115030000D01*
X121330000Y-117340000D02*
X119020000Y-115030000D01*
X122960000Y-117340000D02*
X121330000Y-117340000D01*
X123150000Y-117150000D02*
X122960000Y-117340000D01*
X120600000Y-107740000D02*
X114760000Y-107740000D01*
X111110000Y-99710000D02*
X110390000Y-100430000D01*
X112490000Y-99710000D02*
X111110000Y-99710000D01*
X112850000Y-100070000D02*
X112490000Y-99710000D01*
X112850000Y-105830000D02*
X112850000Y-100070000D01*
X114760000Y-107740000D02*
X112850000Y-105830000D01*
X125395000Y-109405000D02*
X123730000Y-107740000D01*
X125490000Y-109405000D02*
X125395000Y-109405000D01*
X120600000Y-107740000D02*
X123730000Y-107740000D01*
X120690000Y-107740000D02*
X120600000Y-107740000D01*
X125490000Y-109405000D02*
X125505000Y-109405000D01*
X125550000Y-109405000D02*
X125395000Y-109405000D01*
X125915000Y-109405000D02*
X125550000Y-109405000D01*
X126980000Y-110470000D02*
X125915000Y-109405000D01*
X111400000Y-112970000D02*
X113630000Y-112970000D01*
X125880000Y-103260000D02*
X129410000Y-103260000D01*
X123650000Y-101030000D02*
X125880000Y-103260000D01*
X134550000Y-103180000D02*
X133310000Y-101940000D01*
X133310000Y-101940000D02*
X130340000Y-101940000D01*
X123650000Y-100330000D02*
X123650000Y-101030000D01*
D24*
G36*
X109555445Y-99871314D02*
X109405172Y-100233212D01*
X109404830Y-100625069D01*
X109554471Y-100987229D01*
X109632000Y-101064893D01*
X109555445Y-101141314D01*
X109405172Y-101503212D01*
X109404830Y-101895069D01*
X109554471Y-102257229D01*
X109632000Y-102334893D01*
X109555445Y-102411314D01*
X109405172Y-102773212D01*
X109404830Y-103165069D01*
X109554471Y-103527229D01*
X109632000Y-103604893D01*
X109555445Y-103681314D01*
X109405172Y-104043212D01*
X109405079Y-104150119D01*
X108942599Y-104612599D01*
X108777852Y-104859161D01*
X108720000Y-105150000D01*
X108720000Y-106100000D01*
X108777852Y-106390839D01*
X108942599Y-106637401D01*
X110082599Y-107777401D01*
X110329160Y-107942148D01*
X110377414Y-107951746D01*
X110620000Y-108000000D01*
X111465198Y-108000000D01*
X111885198Y-108420000D01*
X106412463Y-108420000D01*
X106380327Y-108387808D01*
X106036799Y-108245162D01*
X105664833Y-108244838D01*
X105321057Y-108386883D01*
X105057808Y-108649673D01*
X104915162Y-108993201D01*
X104915079Y-109088694D01*
X104871057Y-109106883D01*
X104607808Y-109369673D01*
X104465162Y-109713201D01*
X104464838Y-110085167D01*
X104564003Y-110325166D01*
X104465162Y-110563201D01*
X104464838Y-110935167D01*
X104606883Y-111278943D01*
X104869673Y-111542192D01*
X104904967Y-111556848D01*
X104904838Y-111705167D01*
X104994028Y-111921024D01*
X104885162Y-112183201D01*
X104884838Y-112555167D01*
X105026883Y-112898943D01*
X105289673Y-113162192D01*
X105633201Y-113304838D01*
X106005167Y-113305162D01*
X106348943Y-113163117D01*
X106382118Y-113130000D01*
X107985198Y-113130000D01*
X110422599Y-115567401D01*
X110669161Y-115732148D01*
X110960000Y-115790000D01*
X115190472Y-115790000D01*
X115135162Y-115923201D01*
X115134838Y-116295167D01*
X115276883Y-116638943D01*
X115297903Y-116660000D01*
X115072463Y-116660000D01*
X115040327Y-116627808D01*
X114696799Y-116485162D01*
X114324833Y-116484838D01*
X113981057Y-116626883D01*
X113717808Y-116889673D01*
X113575162Y-117233201D01*
X113574838Y-117605167D01*
X113716883Y-117948943D01*
X113979673Y-118212192D01*
X114323201Y-118354838D01*
X114695167Y-118355162D01*
X115038943Y-118213117D01*
X115072118Y-118180000D01*
X117765198Y-118180000D01*
X118554864Y-118969666D01*
X117996511Y-119080729D01*
X117510330Y-119405585D01*
X117495500Y-119427780D01*
X117431927Y-119274302D01*
X117253299Y-119095673D01*
X117019910Y-118999000D01*
X116315750Y-118999000D01*
X116157000Y-119157750D01*
X116157000Y-120523000D01*
X116177000Y-120523000D01*
X116177000Y-120777000D01*
X116157000Y-120777000D01*
X116157000Y-120797000D01*
X115903000Y-120797000D01*
X115903000Y-120777000D01*
X114690150Y-120777000D01*
X114531400Y-120935750D01*
X114531400Y-121210000D01*
X92009346Y-121210000D01*
X92308909Y-120910959D01*
X92634628Y-120126541D01*
X92635168Y-119507691D01*
X114531400Y-119507691D01*
X114531400Y-120364250D01*
X114690150Y-120523000D01*
X115903000Y-120523000D01*
X115903000Y-119157750D01*
X115744250Y-118999000D01*
X115040090Y-118999000D01*
X114806701Y-119095673D01*
X114628073Y-119274302D01*
X114531400Y-119507691D01*
X92635168Y-119507691D01*
X92635370Y-119277185D01*
X92311020Y-118492200D01*
X91710959Y-117891091D01*
X90926541Y-117565372D01*
X90077185Y-117564630D01*
X89292200Y-117888980D01*
X88975000Y-118205627D01*
X88975000Y-113370355D01*
X91374373Y-113370355D01*
X91640932Y-113949726D01*
X92108916Y-114382987D01*
X92583646Y-114579619D01*
X92837000Y-114460265D01*
X92837000Y-113117000D01*
X93091000Y-113117000D01*
X93091000Y-114460265D01*
X93344354Y-114579619D01*
X93819084Y-114382987D01*
X94287068Y-113949726D01*
X94553627Y-113370355D01*
X94434807Y-113117000D01*
X93091000Y-113117000D01*
X92837000Y-113117000D01*
X91493193Y-113117000D01*
X91374373Y-113370355D01*
X88975000Y-113370355D01*
X88975000Y-112609645D01*
X91374373Y-112609645D01*
X91493193Y-112863000D01*
X92837000Y-112863000D01*
X92837000Y-111519735D01*
X93091000Y-111519735D01*
X93091000Y-112863000D01*
X94434807Y-112863000D01*
X94553627Y-112609645D01*
X94287068Y-112030274D01*
X93819084Y-111597013D01*
X93344354Y-111400381D01*
X93091000Y-111519735D01*
X92837000Y-111519735D01*
X92583646Y-111400381D01*
X92108916Y-111597013D01*
X91640932Y-112030274D01*
X91374373Y-112609645D01*
X88975000Y-112609645D01*
X88975000Y-106990510D01*
X91317070Y-106990510D01*
X91317070Y-108989490D01*
X91361348Y-109224807D01*
X91500420Y-109440931D01*
X91712620Y-109585921D01*
X91964510Y-109636930D01*
X93963490Y-109636930D01*
X94198807Y-109592652D01*
X94414931Y-109453580D01*
X94559921Y-109241380D01*
X94610930Y-108989490D01*
X94610930Y-106990510D01*
X94566652Y-106755193D01*
X94427580Y-106539069D01*
X94215380Y-106394079D01*
X93963490Y-106343070D01*
X91964510Y-106343070D01*
X91729193Y-106387348D01*
X91513069Y-106526420D01*
X91368079Y-106738620D01*
X91317070Y-106990510D01*
X88975000Y-106990510D01*
X88975000Y-103630000D01*
X98983488Y-103630000D01*
X99107906Y-104255492D01*
X99360000Y-104632777D01*
X99360000Y-109720000D01*
X99436882Y-110106510D01*
X99655822Y-110434178D01*
X99660822Y-110439178D01*
X99789264Y-110525000D01*
X99660822Y-110610822D01*
X99655822Y-110615822D01*
X99436882Y-110943490D01*
X99360000Y-111330000D01*
X99360000Y-115780864D01*
X99199069Y-115884420D01*
X99054079Y-116096620D01*
X99003070Y-116348510D01*
X99003070Y-118347490D01*
X99047348Y-118582807D01*
X99186420Y-118798931D01*
X99398620Y-118943921D01*
X99650510Y-118994930D01*
X101649490Y-118994930D01*
X101884807Y-118950652D01*
X102100931Y-118811580D01*
X102245921Y-118599380D01*
X102296930Y-118347490D01*
X102296930Y-116348510D01*
X102252652Y-116113193D01*
X102113580Y-115897069D01*
X101901380Y-115752079D01*
X101649490Y-115701070D01*
X101380000Y-115701070D01*
X101380000Y-114783356D01*
X103993133Y-117396489D01*
X104107906Y-117973492D01*
X104462219Y-118503759D01*
X104992486Y-118858072D01*
X105617978Y-118982490D01*
X105682022Y-118982490D01*
X106307514Y-118858072D01*
X106837781Y-118503759D01*
X107192094Y-117973492D01*
X107316512Y-117348000D01*
X107192094Y-116722508D01*
X106837781Y-116192241D01*
X106307514Y-115837928D01*
X105682022Y-115713510D01*
X105617978Y-115713510D01*
X105241710Y-115788354D01*
X102360000Y-112906644D01*
X102360000Y-111622065D01*
X102619673Y-111882192D01*
X102963201Y-112024838D01*
X103335167Y-112025162D01*
X103678943Y-111883117D01*
X103942192Y-111620327D01*
X104084838Y-111276799D01*
X104085162Y-110904833D01*
X104041915Y-110800168D01*
X104084838Y-110696799D01*
X104085162Y-110324833D01*
X104037773Y-110210143D01*
X104084838Y-110096799D01*
X104085162Y-109724833D01*
X103943117Y-109381057D01*
X103680327Y-109117808D01*
X103336799Y-108975162D01*
X102964833Y-108974838D01*
X102621057Y-109116883D01*
X102360000Y-109377485D01*
X102360000Y-108068356D01*
X105151426Y-105276930D01*
X106649490Y-105276930D01*
X106884807Y-105232652D01*
X107100931Y-105093580D01*
X107245921Y-104881380D01*
X107296930Y-104629490D01*
X107296930Y-102630510D01*
X107252652Y-102395193D01*
X107113580Y-102179069D01*
X106901380Y-102034079D01*
X106649490Y-101983070D01*
X104650510Y-101983070D01*
X104415193Y-102027348D01*
X104199069Y-102166420D01*
X104054079Y-102378620D01*
X104003070Y-102630510D01*
X104003070Y-103568574D01*
X101380000Y-106191644D01*
X101380000Y-105091638D01*
X101837781Y-104785759D01*
X102192094Y-104255492D01*
X102316512Y-103630000D01*
X102192094Y-103004508D01*
X101837781Y-102474241D01*
X101307514Y-102119928D01*
X100682022Y-101995510D01*
X100617978Y-101995510D01*
X99992486Y-102119928D01*
X99462219Y-102474241D01*
X99107906Y-103004508D01*
X98983488Y-103630000D01*
X88975000Y-103630000D01*
X88975000Y-102894320D01*
X89289041Y-103208909D01*
X90073459Y-103534628D01*
X90922815Y-103535370D01*
X91707800Y-103211020D01*
X92308909Y-102610959D01*
X92485160Y-102186499D01*
X92484830Y-102565069D01*
X92634471Y-102927229D01*
X92911314Y-103204555D01*
X93273212Y-103354828D01*
X93665069Y-103355170D01*
X94027229Y-103205529D01*
X94304555Y-102928686D01*
X94369975Y-102771137D01*
X94434471Y-102927229D01*
X94711314Y-103204555D01*
X95073212Y-103354828D01*
X95465069Y-103355170D01*
X95827229Y-103205529D01*
X96104555Y-102928686D01*
X96254828Y-102566788D01*
X96255170Y-102174931D01*
X96105529Y-101812771D01*
X95828686Y-101535445D01*
X95466788Y-101385172D01*
X95074931Y-101384830D01*
X94712771Y-101534471D01*
X94435445Y-101811314D01*
X94370025Y-101968863D01*
X94305529Y-101812771D01*
X94028686Y-101535445D01*
X93666788Y-101385172D01*
X93274931Y-101384830D01*
X92912771Y-101534471D01*
X92635445Y-101811314D01*
X92634640Y-101813254D01*
X92635370Y-100977185D01*
X92311020Y-100192200D01*
X91889556Y-99770000D01*
X109656936Y-99770000D01*
X109555445Y-99871314D01*
X109555445Y-99871314D01*
G37*
X109555445Y-99871314D02*
X109405172Y-100233212D01*
X109404830Y-100625069D01*
X109554471Y-100987229D01*
X109632000Y-101064893D01*
X109555445Y-101141314D01*
X109405172Y-101503212D01*
X109404830Y-101895069D01*
X109554471Y-102257229D01*
X109632000Y-102334893D01*
X109555445Y-102411314D01*
X109405172Y-102773212D01*
X109404830Y-103165069D01*
X109554471Y-103527229D01*
X109632000Y-103604893D01*
X109555445Y-103681314D01*
X109405172Y-104043212D01*
X109405079Y-104150119D01*
X108942599Y-104612599D01*
X108777852Y-104859161D01*
X108720000Y-105150000D01*
X108720000Y-106100000D01*
X108777852Y-106390839D01*
X108942599Y-106637401D01*
X110082599Y-107777401D01*
X110329160Y-107942148D01*
X110377414Y-107951746D01*
X110620000Y-108000000D01*
X111465198Y-108000000D01*
X111885198Y-108420000D01*
X106412463Y-108420000D01*
X106380327Y-108387808D01*
X106036799Y-108245162D01*
X105664833Y-108244838D01*
X105321057Y-108386883D01*
X105057808Y-108649673D01*
X104915162Y-108993201D01*
X104915079Y-109088694D01*
X104871057Y-109106883D01*
X104607808Y-109369673D01*
X104465162Y-109713201D01*
X104464838Y-110085167D01*
X104564003Y-110325166D01*
X104465162Y-110563201D01*
X104464838Y-110935167D01*
X104606883Y-111278943D01*
X104869673Y-111542192D01*
X104904967Y-111556848D01*
X104904838Y-111705167D01*
X104994028Y-111921024D01*
X104885162Y-112183201D01*
X104884838Y-112555167D01*
X105026883Y-112898943D01*
X105289673Y-113162192D01*
X105633201Y-113304838D01*
X106005167Y-113305162D01*
X106348943Y-113163117D01*
X106382118Y-113130000D01*
X107985198Y-113130000D01*
X110422599Y-115567401D01*
X110669161Y-115732148D01*
X110960000Y-115790000D01*
X115190472Y-115790000D01*
X115135162Y-115923201D01*
X115134838Y-116295167D01*
X115276883Y-116638943D01*
X115297903Y-116660000D01*
X115072463Y-116660000D01*
X115040327Y-116627808D01*
X114696799Y-116485162D01*
X114324833Y-116484838D01*
X113981057Y-116626883D01*
X113717808Y-116889673D01*
X113575162Y-117233201D01*
X113574838Y-117605167D01*
X113716883Y-117948943D01*
X113979673Y-118212192D01*
X114323201Y-118354838D01*
X114695167Y-118355162D01*
X115038943Y-118213117D01*
X115072118Y-118180000D01*
X117765198Y-118180000D01*
X118554864Y-118969666D01*
X117996511Y-119080729D01*
X117510330Y-119405585D01*
X117495500Y-119427780D01*
X117431927Y-119274302D01*
X117253299Y-119095673D01*
X117019910Y-118999000D01*
X116315750Y-118999000D01*
X116157000Y-119157750D01*
X116157000Y-120523000D01*
X116177000Y-120523000D01*
X116177000Y-120777000D01*
X116157000Y-120777000D01*
X116157000Y-120797000D01*
X115903000Y-120797000D01*
X115903000Y-120777000D01*
X114690150Y-120777000D01*
X114531400Y-120935750D01*
X114531400Y-121210000D01*
X92009346Y-121210000D01*
X92308909Y-120910959D01*
X92634628Y-120126541D01*
X92635168Y-119507691D01*
X114531400Y-119507691D01*
X114531400Y-120364250D01*
X114690150Y-120523000D01*
X115903000Y-120523000D01*
X115903000Y-119157750D01*
X115744250Y-118999000D01*
X115040090Y-118999000D01*
X114806701Y-119095673D01*
X114628073Y-119274302D01*
X114531400Y-119507691D01*
X92635168Y-119507691D01*
X92635370Y-119277185D01*
X92311020Y-118492200D01*
X91710959Y-117891091D01*
X90926541Y-117565372D01*
X90077185Y-117564630D01*
X89292200Y-117888980D01*
X88975000Y-118205627D01*
X88975000Y-113370355D01*
X91374373Y-113370355D01*
X91640932Y-113949726D01*
X92108916Y-114382987D01*
X92583646Y-114579619D01*
X92837000Y-114460265D01*
X92837000Y-113117000D01*
X93091000Y-113117000D01*
X93091000Y-114460265D01*
X93344354Y-114579619D01*
X93819084Y-114382987D01*
X94287068Y-113949726D01*
X94553627Y-113370355D01*
X94434807Y-113117000D01*
X93091000Y-113117000D01*
X92837000Y-113117000D01*
X91493193Y-113117000D01*
X91374373Y-113370355D01*
X88975000Y-113370355D01*
X88975000Y-112609645D01*
X91374373Y-112609645D01*
X91493193Y-112863000D01*
X92837000Y-112863000D01*
X92837000Y-111519735D01*
X93091000Y-111519735D01*
X93091000Y-112863000D01*
X94434807Y-112863000D01*
X94553627Y-112609645D01*
X94287068Y-112030274D01*
X93819084Y-111597013D01*
X93344354Y-111400381D01*
X93091000Y-111519735D01*
X92837000Y-111519735D01*
X92583646Y-111400381D01*
X92108916Y-111597013D01*
X91640932Y-112030274D01*
X91374373Y-112609645D01*
X88975000Y-112609645D01*
X88975000Y-106990510D01*
X91317070Y-106990510D01*
X91317070Y-108989490D01*
X91361348Y-109224807D01*
X91500420Y-109440931D01*
X91712620Y-109585921D01*
X91964510Y-109636930D01*
X93963490Y-109636930D01*
X94198807Y-109592652D01*
X94414931Y-109453580D01*
X94559921Y-109241380D01*
X94610930Y-108989490D01*
X94610930Y-106990510D01*
X94566652Y-106755193D01*
X94427580Y-106539069D01*
X94215380Y-106394079D01*
X93963490Y-106343070D01*
X91964510Y-106343070D01*
X91729193Y-106387348D01*
X91513069Y-106526420D01*
X91368079Y-106738620D01*
X91317070Y-106990510D01*
X88975000Y-106990510D01*
X88975000Y-103630000D01*
X98983488Y-103630000D01*
X99107906Y-104255492D01*
X99360000Y-104632777D01*
X99360000Y-109720000D01*
X99436882Y-110106510D01*
X99655822Y-110434178D01*
X99660822Y-110439178D01*
X99789264Y-110525000D01*
X99660822Y-110610822D01*
X99655822Y-110615822D01*
X99436882Y-110943490D01*
X99360000Y-111330000D01*
X99360000Y-115780864D01*
X99199069Y-115884420D01*
X99054079Y-116096620D01*
X99003070Y-116348510D01*
X99003070Y-118347490D01*
X99047348Y-118582807D01*
X99186420Y-118798931D01*
X99398620Y-118943921D01*
X99650510Y-118994930D01*
X101649490Y-118994930D01*
X101884807Y-118950652D01*
X102100931Y-118811580D01*
X102245921Y-118599380D01*
X102296930Y-118347490D01*
X102296930Y-116348510D01*
X102252652Y-116113193D01*
X102113580Y-115897069D01*
X101901380Y-115752079D01*
X101649490Y-115701070D01*
X101380000Y-115701070D01*
X101380000Y-114783356D01*
X103993133Y-117396489D01*
X104107906Y-117973492D01*
X104462219Y-118503759D01*
X104992486Y-118858072D01*
X105617978Y-118982490D01*
X105682022Y-118982490D01*
X106307514Y-118858072D01*
X106837781Y-118503759D01*
X107192094Y-117973492D01*
X107316512Y-117348000D01*
X107192094Y-116722508D01*
X106837781Y-116192241D01*
X106307514Y-115837928D01*
X105682022Y-115713510D01*
X105617978Y-115713510D01*
X105241710Y-115788354D01*
X102360000Y-112906644D01*
X102360000Y-111622065D01*
X102619673Y-111882192D01*
X102963201Y-112024838D01*
X103335167Y-112025162D01*
X103678943Y-111883117D01*
X103942192Y-111620327D01*
X104084838Y-111276799D01*
X104085162Y-110904833D01*
X104041915Y-110800168D01*
X104084838Y-110696799D01*
X104085162Y-110324833D01*
X104037773Y-110210143D01*
X104084838Y-110096799D01*
X104085162Y-109724833D01*
X103943117Y-109381057D01*
X103680327Y-109117808D01*
X103336799Y-108975162D01*
X102964833Y-108974838D01*
X102621057Y-109116883D01*
X102360000Y-109377485D01*
X102360000Y-108068356D01*
X105151426Y-105276930D01*
X106649490Y-105276930D01*
X106884807Y-105232652D01*
X107100931Y-105093580D01*
X107245921Y-104881380D01*
X107296930Y-104629490D01*
X107296930Y-102630510D01*
X107252652Y-102395193D01*
X107113580Y-102179069D01*
X106901380Y-102034079D01*
X106649490Y-101983070D01*
X104650510Y-101983070D01*
X104415193Y-102027348D01*
X104199069Y-102166420D01*
X104054079Y-102378620D01*
X104003070Y-102630510D01*
X104003070Y-103568574D01*
X101380000Y-106191644D01*
X101380000Y-105091638D01*
X101837781Y-104785759D01*
X102192094Y-104255492D01*
X102316512Y-103630000D01*
X102192094Y-103004508D01*
X101837781Y-102474241D01*
X101307514Y-102119928D01*
X100682022Y-101995510D01*
X100617978Y-101995510D01*
X99992486Y-102119928D01*
X99462219Y-102474241D01*
X99107906Y-103004508D01*
X98983488Y-103630000D01*
X88975000Y-103630000D01*
X88975000Y-102894320D01*
X89289041Y-103208909D01*
X90073459Y-103534628D01*
X90922815Y-103535370D01*
X91707800Y-103211020D01*
X92308909Y-102610959D01*
X92485160Y-102186499D01*
X92484830Y-102565069D01*
X92634471Y-102927229D01*
X92911314Y-103204555D01*
X93273212Y-103354828D01*
X93665069Y-103355170D01*
X94027229Y-103205529D01*
X94304555Y-102928686D01*
X94369975Y-102771137D01*
X94434471Y-102927229D01*
X94711314Y-103204555D01*
X95073212Y-103354828D01*
X95465069Y-103355170D01*
X95827229Y-103205529D01*
X96104555Y-102928686D01*
X96254828Y-102566788D01*
X96255170Y-102174931D01*
X96105529Y-101812771D01*
X95828686Y-101535445D01*
X95466788Y-101385172D01*
X95074931Y-101384830D01*
X94712771Y-101534471D01*
X94435445Y-101811314D01*
X94370025Y-101968863D01*
X94305529Y-101812771D01*
X94028686Y-101535445D01*
X93666788Y-101385172D01*
X93274931Y-101384830D01*
X92912771Y-101534471D01*
X92635445Y-101811314D01*
X92634640Y-101813254D01*
X92635370Y-100977185D01*
X92311020Y-100192200D01*
X91889556Y-99770000D01*
X109656936Y-99770000D01*
X109555445Y-99871314D01*
G36*
X121330000Y-118100000D02*
X122825130Y-118100000D01*
X122825121Y-118110077D01*
X122715198Y-118220000D01*
X121324802Y-118220000D01*
X121173715Y-118068913D01*
X121330000Y-118100000D01*
X121330000Y-118100000D01*
G37*
X121330000Y-118100000D02*
X122825130Y-118100000D01*
X122825121Y-118110077D01*
X122715198Y-118220000D01*
X121324802Y-118220000D01*
X121173715Y-118068913D01*
X121330000Y-118100000D01*
G36*
X133112599Y-116367401D02*
X133171630Y-116406844D01*
X133015032Y-116740973D01*
X133135531Y-116973000D01*
X134343000Y-116973000D01*
X134343000Y-116953000D01*
X134597000Y-116953000D01*
X134597000Y-116973000D01*
X134617000Y-116973000D01*
X134617000Y-117227000D01*
X134597000Y-117227000D01*
X134597000Y-117247000D01*
X134343000Y-117247000D01*
X134343000Y-117227000D01*
X133135531Y-117227000D01*
X133015032Y-117459027D01*
X133179525Y-117810000D01*
X133072463Y-117810000D01*
X133040327Y-117777808D01*
X132696799Y-117635162D01*
X132324833Y-117634838D01*
X131981057Y-117776883D01*
X131797620Y-117960000D01*
X129104802Y-117960000D01*
X128217401Y-117072599D01*
X128146730Y-117025378D01*
X128152118Y-117020000D01*
X128745198Y-117020000D01*
X129002599Y-117277402D01*
X129249161Y-117442148D01*
X129540000Y-117500000D01*
X130237537Y-117500000D01*
X130269673Y-117532192D01*
X130613201Y-117674838D01*
X130985167Y-117675162D01*
X131328943Y-117533117D01*
X131592192Y-117270327D01*
X131734838Y-116926799D01*
X131735162Y-116554833D01*
X131593117Y-116211057D01*
X131432341Y-116050000D01*
X132795198Y-116050000D01*
X133112599Y-116367401D01*
X133112599Y-116367401D01*
G37*
X133112599Y-116367401D02*
X133171630Y-116406844D01*
X133015032Y-116740973D01*
X133135531Y-116973000D01*
X134343000Y-116973000D01*
X134343000Y-116953000D01*
X134597000Y-116953000D01*
X134597000Y-116973000D01*
X134617000Y-116973000D01*
X134617000Y-117227000D01*
X134597000Y-117227000D01*
X134597000Y-117247000D01*
X134343000Y-117247000D01*
X134343000Y-117227000D01*
X133135531Y-117227000D01*
X133015032Y-117459027D01*
X133179525Y-117810000D01*
X133072463Y-117810000D01*
X133040327Y-117777808D01*
X132696799Y-117635162D01*
X132324833Y-117634838D01*
X131981057Y-117776883D01*
X131797620Y-117960000D01*
X129104802Y-117960000D01*
X128217401Y-117072599D01*
X128146730Y-117025378D01*
X128152118Y-117020000D01*
X128745198Y-117020000D01*
X129002599Y-117277402D01*
X129249161Y-117442148D01*
X129540000Y-117500000D01*
X130237537Y-117500000D01*
X130269673Y-117532192D01*
X130613201Y-117674838D01*
X130985167Y-117675162D01*
X131328943Y-117533117D01*
X131592192Y-117270327D01*
X131734838Y-116926799D01*
X131735162Y-116554833D01*
X131593117Y-116211057D01*
X131432341Y-116050000D01*
X132795198Y-116050000D01*
X133112599Y-116367401D01*
G36*
X126186883Y-110998943D02*
X126449673Y-111262192D01*
X126793201Y-111404838D01*
X127165167Y-111405162D01*
X127496515Y-111268252D01*
X127753201Y-111374838D01*
X128125167Y-111375162D01*
X128468943Y-111233117D01*
X128502118Y-111200000D01*
X131475198Y-111200000D01*
X131130320Y-111544878D01*
X131084833Y-111544838D01*
X130741057Y-111686883D01*
X130477808Y-111949673D01*
X130335162Y-112293201D01*
X130335008Y-112470000D01*
X126030000Y-112470000D01*
X125739161Y-112527852D01*
X125549029Y-112654894D01*
X125484833Y-112654838D01*
X125141057Y-112796883D01*
X124877808Y-113059673D01*
X124735162Y-113403201D01*
X124734838Y-113775167D01*
X124876883Y-114118943D01*
X125139673Y-114382192D01*
X125483201Y-114524838D01*
X125855167Y-114525162D01*
X126198943Y-114383117D01*
X126462192Y-114120327D01*
X126516309Y-113990000D01*
X129587550Y-113990000D01*
X129547808Y-114029673D01*
X129405162Y-114373201D01*
X129404838Y-114745167D01*
X129546883Y-115088943D01*
X129809673Y-115352192D01*
X129884918Y-115383437D01*
X129884838Y-115475167D01*
X130026883Y-115818943D01*
X130187659Y-115980000D01*
X129854803Y-115980000D01*
X129597401Y-115722599D01*
X129350839Y-115557852D01*
X129060000Y-115500000D01*
X128152463Y-115500000D01*
X128120327Y-115467808D01*
X127776799Y-115325162D01*
X127404833Y-115324838D01*
X127061057Y-115466883D01*
X126797808Y-115729673D01*
X126712037Y-115936232D01*
X126516799Y-115855162D01*
X126144833Y-115854838D01*
X125801057Y-115996883D01*
X125605052Y-116192547D01*
X125563117Y-116091057D01*
X125300327Y-115827808D01*
X124956799Y-115685162D01*
X124584833Y-115684838D01*
X124280000Y-115810792D01*
X124280000Y-113302463D01*
X124312192Y-113270327D01*
X124454838Y-112926799D01*
X124455162Y-112554833D01*
X124313117Y-112211057D01*
X124050327Y-111947808D01*
X123706799Y-111805162D01*
X123334833Y-111804838D01*
X122991057Y-111946883D01*
X122727808Y-112209673D01*
X122585162Y-112553201D01*
X122584838Y-112925167D01*
X122726883Y-113268943D01*
X122760000Y-113302118D01*
X122760000Y-115495558D01*
X122686799Y-115465162D01*
X122620483Y-115465104D01*
X122503117Y-115181057D01*
X122240327Y-114917808D01*
X121896799Y-114775162D01*
X121849923Y-114775121D01*
X120087401Y-113012599D01*
X119840839Y-112847852D01*
X119550000Y-112790000D01*
X116964802Y-112790000D01*
X116084802Y-111910000D01*
X121107537Y-111910000D01*
X121139673Y-111942192D01*
X121483201Y-112084838D01*
X121855167Y-112085162D01*
X122198943Y-111943117D01*
X122462192Y-111680327D01*
X122604838Y-111336799D01*
X122605114Y-111020000D01*
X124737537Y-111020000D01*
X124769673Y-111052192D01*
X125113201Y-111194838D01*
X125485167Y-111195162D01*
X125828943Y-111053117D01*
X126092192Y-110790327D01*
X126096449Y-110780075D01*
X126186883Y-110998943D01*
X126186883Y-110998943D01*
G37*
X126186883Y-110998943D02*
X126449673Y-111262192D01*
X126793201Y-111404838D01*
X127165167Y-111405162D01*
X127496515Y-111268252D01*
X127753201Y-111374838D01*
X128125167Y-111375162D01*
X128468943Y-111233117D01*
X128502118Y-111200000D01*
X131475198Y-111200000D01*
X131130320Y-111544878D01*
X131084833Y-111544838D01*
X130741057Y-111686883D01*
X130477808Y-111949673D01*
X130335162Y-112293201D01*
X130335008Y-112470000D01*
X126030000Y-112470000D01*
X125739161Y-112527852D01*
X125549029Y-112654894D01*
X125484833Y-112654838D01*
X125141057Y-112796883D01*
X124877808Y-113059673D01*
X124735162Y-113403201D01*
X124734838Y-113775167D01*
X124876883Y-114118943D01*
X125139673Y-114382192D01*
X125483201Y-114524838D01*
X125855167Y-114525162D01*
X126198943Y-114383117D01*
X126462192Y-114120327D01*
X126516309Y-113990000D01*
X129587550Y-113990000D01*
X129547808Y-114029673D01*
X129405162Y-114373201D01*
X129404838Y-114745167D01*
X129546883Y-115088943D01*
X129809673Y-115352192D01*
X129884918Y-115383437D01*
X129884838Y-115475167D01*
X130026883Y-115818943D01*
X130187659Y-115980000D01*
X129854803Y-115980000D01*
X129597401Y-115722599D01*
X129350839Y-115557852D01*
X129060000Y-115500000D01*
X128152463Y-115500000D01*
X128120327Y-115467808D01*
X127776799Y-115325162D01*
X127404833Y-115324838D01*
X127061057Y-115466883D01*
X126797808Y-115729673D01*
X126712037Y-115936232D01*
X126516799Y-115855162D01*
X126144833Y-115854838D01*
X125801057Y-115996883D01*
X125605052Y-116192547D01*
X125563117Y-116091057D01*
X125300327Y-115827808D01*
X124956799Y-115685162D01*
X124584833Y-115684838D01*
X124280000Y-115810792D01*
X124280000Y-113302463D01*
X124312192Y-113270327D01*
X124454838Y-112926799D01*
X124455162Y-112554833D01*
X124313117Y-112211057D01*
X124050327Y-111947808D01*
X123706799Y-111805162D01*
X123334833Y-111804838D01*
X122991057Y-111946883D01*
X122727808Y-112209673D01*
X122585162Y-112553201D01*
X122584838Y-112925167D01*
X122726883Y-113268943D01*
X122760000Y-113302118D01*
X122760000Y-115495558D01*
X122686799Y-115465162D01*
X122620483Y-115465104D01*
X122503117Y-115181057D01*
X122240327Y-114917808D01*
X121896799Y-114775162D01*
X121849923Y-114775121D01*
X120087401Y-113012599D01*
X119840839Y-112847852D01*
X119550000Y-112790000D01*
X116964802Y-112790000D01*
X116084802Y-111910000D01*
X121107537Y-111910000D01*
X121139673Y-111942192D01*
X121483201Y-112084838D01*
X121855167Y-112085162D01*
X122198943Y-111943117D01*
X122462192Y-111680327D01*
X122604838Y-111336799D01*
X122605114Y-111020000D01*
X124737537Y-111020000D01*
X124769673Y-111052192D01*
X125113201Y-111194838D01*
X125485167Y-111195162D01*
X125828943Y-111053117D01*
X126092192Y-110790327D01*
X126096449Y-110780075D01*
X126186883Y-110998943D01*
G36*
X114544816Y-99968087D02*
X114689076Y-100203000D01*
X115903000Y-100203000D01*
X115903000Y-100183000D01*
X116157000Y-100183000D01*
X116157000Y-100203000D01*
X118443000Y-100203000D01*
X118443000Y-100183000D01*
X118697000Y-100183000D01*
X118697000Y-100203000D01*
X118717000Y-100203000D01*
X118717000Y-100457000D01*
X118697000Y-100457000D01*
X118697000Y-101816217D01*
X118929026Y-101937358D01*
X118944791Y-101934709D01*
X119472036Y-101680732D01*
X119843539Y-101264931D01*
X120050330Y-101574415D01*
X120536511Y-101899271D01*
X121110000Y-102013345D01*
X121683489Y-101899271D01*
X122169670Y-101574415D01*
X122380000Y-101259634D01*
X122590330Y-101574415D01*
X123076511Y-101899271D01*
X123535834Y-101990636D01*
X124665198Y-103120000D01*
X123310000Y-103120000D01*
X123083425Y-103165069D01*
X123019160Y-103177852D01*
X122772599Y-103342599D01*
X122550320Y-103564878D01*
X122504833Y-103564838D01*
X122161057Y-103706883D01*
X121897808Y-103969673D01*
X121755162Y-104313201D01*
X121754838Y-104685167D01*
X121896883Y-105028943D01*
X122159673Y-105292192D01*
X122503201Y-105434838D01*
X122875167Y-105435162D01*
X123218943Y-105293117D01*
X123482192Y-105030327D01*
X123624838Y-104686799D01*
X123624879Y-104640000D01*
X128545341Y-104640000D01*
X128606883Y-104788943D01*
X128869673Y-105052192D01*
X129213201Y-105194838D01*
X129560000Y-105195140D01*
X129560000Y-105517537D01*
X129527808Y-105549673D01*
X129385162Y-105893201D01*
X129384838Y-106265167D01*
X129526883Y-106608943D01*
X129789673Y-106872192D01*
X130133201Y-107014838D01*
X130505167Y-107015162D01*
X130848943Y-106873117D01*
X131112192Y-106610327D01*
X131254838Y-106266799D01*
X131255162Y-105894833D01*
X131113117Y-105551057D01*
X131080000Y-105517882D01*
X131080000Y-103150000D01*
X131022148Y-102859161D01*
X130915800Y-102700000D01*
X132995198Y-102700000D01*
X133614878Y-103319680D01*
X133614838Y-103365167D01*
X133756883Y-103708943D01*
X134019673Y-103972192D01*
X134363201Y-104114838D01*
X134735167Y-104115162D01*
X135078943Y-103973117D01*
X135342192Y-103710327D01*
X135484838Y-103366799D01*
X135485162Y-102994833D01*
X135343117Y-102651057D01*
X135080327Y-102387808D01*
X134736799Y-102245162D01*
X134689923Y-102245121D01*
X134350613Y-101905811D01*
X134383489Y-101899271D01*
X134869670Y-101574415D01*
X135080000Y-101259634D01*
X135290330Y-101574415D01*
X135590000Y-101774648D01*
X135590000Y-105950000D01*
X135647852Y-106240839D01*
X135812599Y-106487401D01*
X136190000Y-106864802D01*
X136190000Y-107424973D01*
X136034833Y-107424838D01*
X135691057Y-107566883D01*
X135657882Y-107600000D01*
X127190527Y-107600000D01*
X127133117Y-107461057D01*
X126870327Y-107197808D01*
X126526799Y-107055162D01*
X126154833Y-107054838D01*
X125811057Y-107196883D01*
X125762404Y-107245451D01*
X125496799Y-107135162D01*
X125124833Y-107134838D01*
X124781057Y-107276883D01*
X124617697Y-107439958D01*
X124523117Y-107211057D01*
X124260327Y-106947808D01*
X123916799Y-106805162D01*
X123544833Y-106804838D01*
X123201057Y-106946883D01*
X123167882Y-106980000D01*
X115074802Y-106980000D01*
X114774802Y-106680000D01*
X117677537Y-106680000D01*
X117709673Y-106712192D01*
X118053201Y-106854838D01*
X118425167Y-106855162D01*
X118768943Y-106713117D01*
X119032192Y-106450327D01*
X119174838Y-106106799D01*
X119175162Y-105734833D01*
X119033117Y-105391057D01*
X118770327Y-105127808D01*
X118426799Y-104985162D01*
X118054833Y-104984838D01*
X117711057Y-105126883D01*
X117677882Y-105160000D01*
X114672463Y-105160000D01*
X114640327Y-105127808D01*
X114296799Y-104985162D01*
X113924833Y-104984838D01*
X113610000Y-105114924D01*
X113610000Y-100691913D01*
X114544816Y-100691913D01*
X114738046Y-101244320D01*
X115127964Y-101680732D01*
X115655209Y-101934709D01*
X115670974Y-101937358D01*
X115903000Y-101816217D01*
X115903000Y-100457000D01*
X116157000Y-100457000D01*
X116157000Y-101816217D01*
X116389026Y-101937358D01*
X116404791Y-101934709D01*
X116932036Y-101680732D01*
X117300000Y-101268892D01*
X117667964Y-101680732D01*
X118195209Y-101934709D01*
X118210974Y-101937358D01*
X118443000Y-101816217D01*
X118443000Y-100457000D01*
X116157000Y-100457000D01*
X115903000Y-100457000D01*
X114689076Y-100457000D01*
X114544816Y-100691913D01*
X113610000Y-100691913D01*
X113610000Y-100070000D01*
X113552148Y-99779161D01*
X113546027Y-99770000D01*
X114614106Y-99770000D01*
X114544816Y-99968087D01*
X114544816Y-99968087D01*
G37*
X114544816Y-99968087D02*
X114689076Y-100203000D01*
X115903000Y-100203000D01*
X115903000Y-100183000D01*
X116157000Y-100183000D01*
X116157000Y-100203000D01*
X118443000Y-100203000D01*
X118443000Y-100183000D01*
X118697000Y-100183000D01*
X118697000Y-100203000D01*
X118717000Y-100203000D01*
X118717000Y-100457000D01*
X118697000Y-100457000D01*
X118697000Y-101816217D01*
X118929026Y-101937358D01*
X118944791Y-101934709D01*
X119472036Y-101680732D01*
X119843539Y-101264931D01*
X120050330Y-101574415D01*
X120536511Y-101899271D01*
X121110000Y-102013345D01*
X121683489Y-101899271D01*
X122169670Y-101574415D01*
X122380000Y-101259634D01*
X122590330Y-101574415D01*
X123076511Y-101899271D01*
X123535834Y-101990636D01*
X124665198Y-103120000D01*
X123310000Y-103120000D01*
X123083425Y-103165069D01*
X123019160Y-103177852D01*
X122772599Y-103342599D01*
X122550320Y-103564878D01*
X122504833Y-103564838D01*
X122161057Y-103706883D01*
X121897808Y-103969673D01*
X121755162Y-104313201D01*
X121754838Y-104685167D01*
X121896883Y-105028943D01*
X122159673Y-105292192D01*
X122503201Y-105434838D01*
X122875167Y-105435162D01*
X123218943Y-105293117D01*
X123482192Y-105030327D01*
X123624838Y-104686799D01*
X123624879Y-104640000D01*
X128545341Y-104640000D01*
X128606883Y-104788943D01*
X128869673Y-105052192D01*
X129213201Y-105194838D01*
X129560000Y-105195140D01*
X129560000Y-105517537D01*
X129527808Y-105549673D01*
X129385162Y-105893201D01*
X129384838Y-106265167D01*
X129526883Y-106608943D01*
X129789673Y-106872192D01*
X130133201Y-107014838D01*
X130505167Y-107015162D01*
X130848943Y-106873117D01*
X131112192Y-106610327D01*
X131254838Y-106266799D01*
X131255162Y-105894833D01*
X131113117Y-105551057D01*
X131080000Y-105517882D01*
X131080000Y-103150000D01*
X131022148Y-102859161D01*
X130915800Y-102700000D01*
X132995198Y-102700000D01*
X133614878Y-103319680D01*
X133614838Y-103365167D01*
X133756883Y-103708943D01*
X134019673Y-103972192D01*
X134363201Y-104114838D01*
X134735167Y-104115162D01*
X135078943Y-103973117D01*
X135342192Y-103710327D01*
X135484838Y-103366799D01*
X135485162Y-102994833D01*
X135343117Y-102651057D01*
X135080327Y-102387808D01*
X134736799Y-102245162D01*
X134689923Y-102245121D01*
X134350613Y-101905811D01*
X134383489Y-101899271D01*
X134869670Y-101574415D01*
X135080000Y-101259634D01*
X135290330Y-101574415D01*
X135590000Y-101774648D01*
X135590000Y-105950000D01*
X135647852Y-106240839D01*
X135812599Y-106487401D01*
X136190000Y-106864802D01*
X136190000Y-107424973D01*
X136034833Y-107424838D01*
X135691057Y-107566883D01*
X135657882Y-107600000D01*
X127190527Y-107600000D01*
X127133117Y-107461057D01*
X126870327Y-107197808D01*
X126526799Y-107055162D01*
X126154833Y-107054838D01*
X125811057Y-107196883D01*
X125762404Y-107245451D01*
X125496799Y-107135162D01*
X125124833Y-107134838D01*
X124781057Y-107276883D01*
X124617697Y-107439958D01*
X124523117Y-107211057D01*
X124260327Y-106947808D01*
X123916799Y-106805162D01*
X123544833Y-106804838D01*
X123201057Y-106946883D01*
X123167882Y-106980000D01*
X115074802Y-106980000D01*
X114774802Y-106680000D01*
X117677537Y-106680000D01*
X117709673Y-106712192D01*
X118053201Y-106854838D01*
X118425167Y-106855162D01*
X118768943Y-106713117D01*
X119032192Y-106450327D01*
X119174838Y-106106799D01*
X119175162Y-105734833D01*
X119033117Y-105391057D01*
X118770327Y-105127808D01*
X118426799Y-104985162D01*
X118054833Y-104984838D01*
X117711057Y-105126883D01*
X117677882Y-105160000D01*
X114672463Y-105160000D01*
X114640327Y-105127808D01*
X114296799Y-104985162D01*
X113924833Y-104984838D01*
X113610000Y-105114924D01*
X113610000Y-100691913D01*
X114544816Y-100691913D01*
X114738046Y-101244320D01*
X115127964Y-101680732D01*
X115655209Y-101934709D01*
X115670974Y-101937358D01*
X115903000Y-101816217D01*
X115903000Y-100457000D01*
X116157000Y-100457000D01*
X116157000Y-101816217D01*
X116389026Y-101937358D01*
X116404791Y-101934709D01*
X116932036Y-101680732D01*
X117300000Y-101268892D01*
X117667964Y-101680732D01*
X118195209Y-101934709D01*
X118210974Y-101937358D01*
X118443000Y-101816217D01*
X118443000Y-100457000D01*
X116157000Y-100457000D01*
X115903000Y-100457000D01*
X114689076Y-100457000D01*
X114544816Y-100691913D01*
X113610000Y-100691913D01*
X113610000Y-100070000D01*
X113552148Y-99779161D01*
X113546027Y-99770000D01*
X114614106Y-99770000D01*
X114544816Y-99968087D01*
G36*
X111853748Y-104225858D02*
X111839605Y-104240000D01*
X111853748Y-104254143D01*
X111674143Y-104433748D01*
X111660000Y-104419605D01*
X111645858Y-104433748D01*
X111466253Y-104254143D01*
X111480395Y-104240000D01*
X111466253Y-104225858D01*
X111645858Y-104046253D01*
X111660000Y-104060395D01*
X111674143Y-104046253D01*
X111853748Y-104225858D01*
X111853748Y-104225858D01*
G37*
X111853748Y-104225858D02*
X111839605Y-104240000D01*
X111853748Y-104254143D01*
X111674143Y-104433748D01*
X111660000Y-104419605D01*
X111645858Y-104433748D01*
X111466253Y-104254143D01*
X111480395Y-104240000D01*
X111466253Y-104225858D01*
X111645858Y-104046253D01*
X111660000Y-104060395D01*
X111674143Y-104046253D01*
X111853748Y-104225858D01*
G36*
X111853748Y-102955858D02*
X111839605Y-102970000D01*
X111853748Y-102984143D01*
X111674143Y-103163748D01*
X111660000Y-103149605D01*
X111645858Y-103163748D01*
X111466253Y-102984143D01*
X111480395Y-102970000D01*
X111466253Y-102955858D01*
X111645858Y-102776253D01*
X111660000Y-102790395D01*
X111674143Y-102776253D01*
X111853748Y-102955858D01*
X111853748Y-102955858D01*
G37*
X111853748Y-102955858D02*
X111839605Y-102970000D01*
X111853748Y-102984143D01*
X111674143Y-103163748D01*
X111660000Y-103149605D01*
X111645858Y-103163748D01*
X111466253Y-102984143D01*
X111480395Y-102970000D01*
X111466253Y-102955858D01*
X111645858Y-102776253D01*
X111660000Y-102790395D01*
X111674143Y-102776253D01*
X111853748Y-102955858D01*
M02*
