G04 #@! TF.FileFunction,Legend,Bot*
%FSLAX46Y46*%
G04 Gerber Fmt 4.6, Leading zero omitted, Abs format (unit mm)*
G04 Created by KiCad (PCBNEW 4.0.2-stable) date 11/17/2016 12:04:15 PM*
%MOMM*%
G01*
G04 APERTURE LIST*
%ADD10C,0.100000*%
%ADD11C,0.300000*%
%ADD12C,0.090000*%
%ADD13C,0.010000*%
%ADD14R,2.398980X2.398980*%
%ADD15O,2.398980X2.398980*%
%ADD16C,3.400000*%
%ADD17C,1.100000*%
%ADD18C,2.127200*%
%ADD19O,2.127200X2.127200*%
%ADD20R,2.127200X2.432000*%
%ADD21O,2.127200X2.432000*%
%ADD22O,1.450000X1.250000*%
%ADD23O,1.900000X1.250000*%
G04 APERTURE END LIST*
D10*
D11*
X105068572Y-106032857D02*
X106211429Y-106032857D01*
X101191428Y-105987143D02*
X100048571Y-105987143D01*
X100620000Y-106558571D02*
X100620000Y-105415714D01*
D12*
X138704762Y-102012857D02*
X138704762Y-102346190D01*
X138823809Y-101822381D02*
X138942857Y-102179524D01*
X138633333Y-102179524D01*
X136240952Y-101846190D02*
X136479047Y-101846190D01*
X136502857Y-102084286D01*
X136479047Y-102060476D01*
X136431428Y-102036667D01*
X136312381Y-102036667D01*
X136264762Y-102060476D01*
X136240952Y-102084286D01*
X136217143Y-102131905D01*
X136217143Y-102250952D01*
X136240952Y-102298571D01*
X136264762Y-102322381D01*
X136312381Y-102346190D01*
X136431428Y-102346190D01*
X136479047Y-102322381D01*
X136502857Y-102298571D01*
X133714762Y-101916190D02*
X133810000Y-101916190D01*
X133857619Y-101940000D01*
X133881428Y-101963810D01*
X133929047Y-102035238D01*
X133952857Y-102130476D01*
X133952857Y-102320952D01*
X133929047Y-102368571D01*
X133905238Y-102392381D01*
X133857619Y-102416190D01*
X133762381Y-102416190D01*
X133714762Y-102392381D01*
X133690952Y-102368571D01*
X133667143Y-102320952D01*
X133667143Y-102201905D01*
X133690952Y-102154286D01*
X133714762Y-102130476D01*
X133762381Y-102106667D01*
X133857619Y-102106667D01*
X133905238Y-102130476D01*
X133929047Y-102154286D01*
X133952857Y-102201905D01*
X131295238Y-102346190D02*
X131580952Y-102346190D01*
X131438095Y-102346190D02*
X131438095Y-101846190D01*
X131485714Y-101917619D01*
X131533333Y-101965238D01*
X131580952Y-101989048D01*
X130985714Y-101846190D02*
X130938095Y-101846190D01*
X130890476Y-101870000D01*
X130866667Y-101893810D01*
X130842857Y-101941429D01*
X130819048Y-102036667D01*
X130819048Y-102155714D01*
X130842857Y-102250952D01*
X130866667Y-102298571D01*
X130890476Y-102322381D01*
X130938095Y-102346190D01*
X130985714Y-102346190D01*
X131033333Y-102322381D01*
X131057143Y-102298571D01*
X131080952Y-102250952D01*
X131104762Y-102155714D01*
X131104762Y-102036667D01*
X131080952Y-101941429D01*
X131057143Y-101893810D01*
X131033333Y-101870000D01*
X130985714Y-101846190D01*
X129207142Y-102332381D02*
X129135713Y-102356190D01*
X129016666Y-102356190D01*
X128969047Y-102332381D01*
X128945237Y-102308571D01*
X128921428Y-102260952D01*
X128921428Y-102213333D01*
X128945237Y-102165714D01*
X128969047Y-102141905D01*
X129016666Y-102118095D01*
X129111904Y-102094286D01*
X129159523Y-102070476D01*
X129183332Y-102046667D01*
X129207142Y-101999048D01*
X129207142Y-101951429D01*
X129183332Y-101903810D01*
X129159523Y-101880000D01*
X129111904Y-101856190D01*
X128992856Y-101856190D01*
X128921428Y-101880000D01*
X128707142Y-102356190D02*
X128707142Y-101856190D01*
X128588095Y-101856190D01*
X128516666Y-101880000D01*
X128469047Y-101927619D01*
X128445238Y-101975238D01*
X128421428Y-102070476D01*
X128421428Y-102141905D01*
X128445238Y-102237143D01*
X128469047Y-102284762D01*
X128516666Y-102332381D01*
X128588095Y-102356190D01*
X128707142Y-102356190D01*
X128230952Y-102213333D02*
X127992857Y-102213333D01*
X128278571Y-102356190D02*
X128111904Y-101856190D01*
X127945238Y-102356190D01*
X126735238Y-102322381D02*
X126663809Y-102346190D01*
X126544762Y-102346190D01*
X126497143Y-102322381D01*
X126473333Y-102298571D01*
X126449524Y-102250952D01*
X126449524Y-102203333D01*
X126473333Y-102155714D01*
X126497143Y-102131905D01*
X126544762Y-102108095D01*
X126640000Y-102084286D01*
X126687619Y-102060476D01*
X126711428Y-102036667D01*
X126735238Y-101989048D01*
X126735238Y-101941429D01*
X126711428Y-101893810D01*
X126687619Y-101870000D01*
X126640000Y-101846190D01*
X126520952Y-101846190D01*
X126449524Y-101870000D01*
X125949524Y-102298571D02*
X125973334Y-102322381D01*
X126044762Y-102346190D01*
X126092381Y-102346190D01*
X126163810Y-102322381D01*
X126211429Y-102274762D01*
X126235238Y-102227143D01*
X126259048Y-102131905D01*
X126259048Y-102060476D01*
X126235238Y-101965238D01*
X126211429Y-101917619D01*
X126163810Y-101870000D01*
X126092381Y-101846190D01*
X126044762Y-101846190D01*
X125973334Y-101870000D01*
X125949524Y-101893810D01*
X125497143Y-102346190D02*
X125735238Y-102346190D01*
X125735238Y-101846190D01*
X124078571Y-101846190D02*
X123911904Y-102346190D01*
X123745238Y-101846190D01*
X123483333Y-101846190D02*
X123388095Y-101846190D01*
X123340476Y-101870000D01*
X123292857Y-101917619D01*
X123269048Y-102012857D01*
X123269048Y-102179524D01*
X123292857Y-102274762D01*
X123340476Y-102322381D01*
X123388095Y-102346190D01*
X123483333Y-102346190D01*
X123530952Y-102322381D01*
X123578571Y-102274762D01*
X123602381Y-102179524D01*
X123602381Y-102012857D01*
X123578571Y-101917619D01*
X123530952Y-101870000D01*
X123483333Y-101846190D01*
X121739046Y-101856190D02*
X121429523Y-101856190D01*
X121596189Y-102046667D01*
X121524761Y-102046667D01*
X121477142Y-102070476D01*
X121453332Y-102094286D01*
X121429523Y-102141905D01*
X121429523Y-102260952D01*
X121453332Y-102308571D01*
X121477142Y-102332381D01*
X121524761Y-102356190D01*
X121667618Y-102356190D01*
X121715237Y-102332381D01*
X121739046Y-102308571D01*
X121286666Y-101856190D02*
X121119999Y-102356190D01*
X120953333Y-101856190D01*
X120834285Y-101856190D02*
X120524762Y-101856190D01*
X120691428Y-102046667D01*
X120620000Y-102046667D01*
X120572381Y-102070476D01*
X120548571Y-102094286D01*
X120524762Y-102141905D01*
X120524762Y-102260952D01*
X120548571Y-102308571D01*
X120572381Y-102332381D01*
X120620000Y-102356190D01*
X120762857Y-102356190D01*
X120810476Y-102332381D01*
X120834285Y-102308571D01*
X118970953Y-101880000D02*
X119018572Y-101856190D01*
X119090000Y-101856190D01*
X119161429Y-101880000D01*
X119209048Y-101927619D01*
X119232857Y-101975238D01*
X119256667Y-102070476D01*
X119256667Y-102141905D01*
X119232857Y-102237143D01*
X119209048Y-102284762D01*
X119161429Y-102332381D01*
X119090000Y-102356190D01*
X119042381Y-102356190D01*
X118970953Y-102332381D01*
X118947143Y-102308571D01*
X118947143Y-102141905D01*
X119042381Y-102141905D01*
X118732857Y-102356190D02*
X118732857Y-101856190D01*
X118447143Y-102356190D01*
X118447143Y-101856190D01*
X118209047Y-102356190D02*
X118209047Y-101856190D01*
X118090000Y-101856190D01*
X118018571Y-101880000D01*
X117970952Y-101927619D01*
X117947143Y-101975238D01*
X117923333Y-102070476D01*
X117923333Y-102141905D01*
X117947143Y-102237143D01*
X117970952Y-102284762D01*
X118018571Y-102332381D01*
X118090000Y-102356190D01*
X118209047Y-102356190D01*
X116420953Y-101880000D02*
X116468572Y-101856190D01*
X116540000Y-101856190D01*
X116611429Y-101880000D01*
X116659048Y-101927619D01*
X116682857Y-101975238D01*
X116706667Y-102070476D01*
X116706667Y-102141905D01*
X116682857Y-102237143D01*
X116659048Y-102284762D01*
X116611429Y-102332381D01*
X116540000Y-102356190D01*
X116492381Y-102356190D01*
X116420953Y-102332381D01*
X116397143Y-102308571D01*
X116397143Y-102141905D01*
X116492381Y-102141905D01*
X116182857Y-102356190D02*
X116182857Y-101856190D01*
X115897143Y-102356190D01*
X115897143Y-101856190D01*
X115659047Y-102356190D02*
X115659047Y-101856190D01*
X115540000Y-101856190D01*
X115468571Y-101880000D01*
X115420952Y-101927619D01*
X115397143Y-101975238D01*
X115373333Y-102070476D01*
X115373333Y-102141905D01*
X115397143Y-102237143D01*
X115420952Y-102284762D01*
X115468571Y-102332381D01*
X115540000Y-102356190D01*
X115659047Y-102356190D01*
X139186666Y-118626190D02*
X138877143Y-118626190D01*
X139043809Y-118816667D01*
X138972381Y-118816667D01*
X138924762Y-118840476D01*
X138900952Y-118864286D01*
X138877143Y-118911905D01*
X138877143Y-119030952D01*
X138900952Y-119078571D01*
X138924762Y-119102381D01*
X138972381Y-119126190D01*
X139115238Y-119126190D01*
X139162857Y-119102381D01*
X139186666Y-119078571D01*
X136502857Y-118673810D02*
X136479047Y-118650000D01*
X136431428Y-118626190D01*
X136312381Y-118626190D01*
X136264762Y-118650000D01*
X136240952Y-118673810D01*
X136217143Y-118721429D01*
X136217143Y-118769048D01*
X136240952Y-118840476D01*
X136526666Y-119126190D01*
X136217143Y-119126190D01*
X133677143Y-119156190D02*
X133962857Y-119156190D01*
X133820000Y-119156190D02*
X133820000Y-118656190D01*
X133867619Y-118727619D01*
X133915238Y-118775238D01*
X133962857Y-118799048D01*
X131293809Y-118626190D02*
X131246190Y-118626190D01*
X131198571Y-118650000D01*
X131174762Y-118673810D01*
X131150952Y-118721429D01*
X131127143Y-118816667D01*
X131127143Y-118935714D01*
X131150952Y-119030952D01*
X131174762Y-119078571D01*
X131198571Y-119102381D01*
X131246190Y-119126190D01*
X131293809Y-119126190D01*
X131341428Y-119102381D01*
X131365238Y-119078571D01*
X131389047Y-119030952D01*
X131412857Y-118935714D01*
X131412857Y-118816667D01*
X131389047Y-118721429D01*
X131365238Y-118673810D01*
X131341428Y-118650000D01*
X131293809Y-118626190D01*
X129047142Y-118983333D02*
X128809047Y-118983333D01*
X129094761Y-119126190D02*
X128928094Y-118626190D01*
X128761428Y-119126190D01*
X128642380Y-118626190D02*
X128332857Y-118626190D01*
X128499523Y-118816667D01*
X128428095Y-118816667D01*
X128380476Y-118840476D01*
X128356666Y-118864286D01*
X128332857Y-118911905D01*
X128332857Y-119030952D01*
X128356666Y-119078571D01*
X128380476Y-119102381D01*
X128428095Y-119126190D01*
X128570952Y-119126190D01*
X128618571Y-119102381D01*
X128642380Y-119078571D01*
X126487142Y-118963333D02*
X126249047Y-118963333D01*
X126534761Y-119106190D02*
X126368094Y-118606190D01*
X126201428Y-119106190D01*
X126058571Y-118653810D02*
X126034761Y-118630000D01*
X125987142Y-118606190D01*
X125868095Y-118606190D01*
X125820476Y-118630000D01*
X125796666Y-118653810D01*
X125772857Y-118701429D01*
X125772857Y-118749048D01*
X125796666Y-118820476D01*
X126082380Y-119106190D01*
X125772857Y-119106190D01*
X124007142Y-118993333D02*
X123769047Y-118993333D01*
X124054761Y-119136190D02*
X123888094Y-118636190D01*
X123721428Y-119136190D01*
X123292857Y-119136190D02*
X123578571Y-119136190D01*
X123435714Y-119136190D02*
X123435714Y-118636190D01*
X123483333Y-118707619D01*
X123530952Y-118755238D01*
X123578571Y-118779048D01*
X121467142Y-118983333D02*
X121229047Y-118983333D01*
X121514761Y-119126190D02*
X121348094Y-118626190D01*
X121181428Y-119126190D01*
X120919523Y-118626190D02*
X120871904Y-118626190D01*
X120824285Y-118650000D01*
X120800476Y-118673810D01*
X120776666Y-118721429D01*
X120752857Y-118816667D01*
X120752857Y-118935714D01*
X120776666Y-119030952D01*
X120800476Y-119078571D01*
X120824285Y-119102381D01*
X120871904Y-119126190D01*
X120919523Y-119126190D01*
X120967142Y-119102381D01*
X120990952Y-119078571D01*
X121014761Y-119030952D01*
X121038571Y-118935714D01*
X121038571Y-118816667D01*
X121014761Y-118721429D01*
X120990952Y-118673810D01*
X120967142Y-118650000D01*
X120919523Y-118626190D01*
X119419523Y-118973333D02*
X119181428Y-118973333D01*
X119467142Y-119116190D02*
X119300475Y-118616190D01*
X119133809Y-119116190D01*
X118681428Y-119116190D02*
X118848095Y-118878095D01*
X118967142Y-119116190D02*
X118967142Y-118616190D01*
X118776666Y-118616190D01*
X118729047Y-118640000D01*
X118705238Y-118663810D01*
X118681428Y-118711429D01*
X118681428Y-118782857D01*
X118705238Y-118830476D01*
X118729047Y-118854286D01*
X118776666Y-118878095D01*
X118967142Y-118878095D01*
X118467142Y-118854286D02*
X118300476Y-118854286D01*
X118229047Y-119116190D02*
X118467142Y-119116190D01*
X118467142Y-118616190D01*
X118229047Y-118616190D01*
X117848095Y-118854286D02*
X118014761Y-118854286D01*
X118014761Y-119116190D02*
X118014761Y-118616190D01*
X117776666Y-118616190D01*
X116420953Y-118640000D02*
X116468572Y-118616190D01*
X116540000Y-118616190D01*
X116611429Y-118640000D01*
X116659048Y-118687619D01*
X116682857Y-118735238D01*
X116706667Y-118830476D01*
X116706667Y-118901905D01*
X116682857Y-118997143D01*
X116659048Y-119044762D01*
X116611429Y-119092381D01*
X116540000Y-119116190D01*
X116492381Y-119116190D01*
X116420953Y-119092381D01*
X116397143Y-119068571D01*
X116397143Y-118901905D01*
X116492381Y-118901905D01*
X116182857Y-119116190D02*
X116182857Y-118616190D01*
X115897143Y-119116190D01*
X115897143Y-118616190D01*
X115659047Y-119116190D02*
X115659047Y-118616190D01*
X115540000Y-118616190D01*
X115468571Y-118640000D01*
X115420952Y-118687619D01*
X115397143Y-118735238D01*
X115373333Y-118830476D01*
X115373333Y-118901905D01*
X115397143Y-118997143D01*
X115420952Y-119044762D01*
X115468571Y-119092381D01*
X115540000Y-119116190D01*
X115659047Y-119116190D01*
D11*
X100068572Y-114952857D02*
X101211429Y-114952857D01*
X106211428Y-114957143D02*
X105068571Y-114957143D01*
X105640000Y-115528571D02*
X105640000Y-114385714D01*
X89247143Y-112398572D02*
X89247143Y-113541429D01*
X89801428Y-108107143D02*
X88658571Y-108107143D01*
X89230000Y-108678571D02*
X89230000Y-107535714D01*
X110882855Y-119488571D02*
X109882855Y-119488571D01*
X110882855Y-120988571D01*
X109882855Y-120988571D01*
X108739999Y-120917143D02*
X108882856Y-120988571D01*
X109168570Y-120988571D01*
X109311427Y-120917143D01*
X109382856Y-120774286D01*
X109382856Y-120202857D01*
X109311427Y-120060000D01*
X109168570Y-119988571D01*
X108882856Y-119988571D01*
X108739999Y-120060000D01*
X108668570Y-120202857D01*
X108668570Y-120345714D01*
X109382856Y-120488571D01*
X108025713Y-120988571D02*
X108025713Y-119988571D01*
X108025713Y-120274286D02*
X107954285Y-120131429D01*
X107882856Y-120060000D01*
X107739999Y-119988571D01*
X107597142Y-119988571D01*
X106882856Y-120988571D02*
X107025714Y-120917143D01*
X107097142Y-120845714D01*
X107168571Y-120702857D01*
X107168571Y-120274286D01*
X107097142Y-120131429D01*
X107025714Y-120060000D01*
X106882856Y-119988571D01*
X106668571Y-119988571D01*
X106525714Y-120060000D01*
X106454285Y-120131429D01*
X106382856Y-120274286D01*
X106382856Y-120702857D01*
X106454285Y-120845714D01*
X106525714Y-120917143D01*
X106668571Y-120988571D01*
X106882856Y-120988571D01*
X105739999Y-120988571D02*
X105739999Y-119488571D01*
X105382856Y-119488571D01*
X105168571Y-119560000D01*
X105025713Y-119702857D01*
X104954285Y-119845714D01*
X104882856Y-120131429D01*
X104882856Y-120345714D01*
X104954285Y-120631429D01*
X105025713Y-120774286D01*
X105168571Y-120917143D01*
X105382856Y-120988571D01*
X105739999Y-120988571D01*
X104239999Y-120988571D02*
X104239999Y-119988571D01*
X104239999Y-120274286D02*
X104168571Y-120131429D01*
X104097142Y-120060000D01*
X103954285Y-119988571D01*
X103811428Y-119988571D01*
X103311428Y-120988571D02*
X103311428Y-119988571D01*
X103311428Y-119488571D02*
X103382857Y-119560000D01*
X103311428Y-119631429D01*
X103240000Y-119560000D01*
X103311428Y-119488571D01*
X103311428Y-119631429D01*
X102739999Y-119988571D02*
X102382856Y-120988571D01*
X102025714Y-119988571D01*
X100882857Y-120917143D02*
X101025714Y-120988571D01*
X101311428Y-120988571D01*
X101454285Y-120917143D01*
X101525714Y-120774286D01*
X101525714Y-120202857D01*
X101454285Y-120060000D01*
X101311428Y-119988571D01*
X101025714Y-119988571D01*
X100882857Y-120060000D01*
X100811428Y-120202857D01*
X100811428Y-120345714D01*
X101525714Y-120488571D01*
X100168571Y-120988571D02*
X100168571Y-119988571D01*
X100168571Y-120274286D02*
X100097143Y-120131429D01*
X100025714Y-120060000D01*
X99882857Y-119988571D01*
X99740000Y-119988571D01*
X97811429Y-119488571D02*
X97668572Y-119488571D01*
X97525715Y-119560000D01*
X97454286Y-119631429D01*
X97382857Y-119774286D01*
X97311429Y-120060000D01*
X97311429Y-120417143D01*
X97382857Y-120702857D01*
X97454286Y-120845714D01*
X97525715Y-120917143D01*
X97668572Y-120988571D01*
X97811429Y-120988571D01*
X97954286Y-120917143D01*
X98025715Y-120845714D01*
X98097143Y-120702857D01*
X98168572Y-120417143D01*
X98168572Y-120060000D01*
X98097143Y-119774286D01*
X98025715Y-119631429D01*
X97954286Y-119560000D01*
X97811429Y-119488571D01*
X96668572Y-120845714D02*
X96597144Y-120917143D01*
X96668572Y-120988571D01*
X96740001Y-120917143D01*
X96668572Y-120845714D01*
X96668572Y-120988571D01*
X96097143Y-119488571D02*
X95168572Y-119488571D01*
X95668572Y-120060000D01*
X95454286Y-120060000D01*
X95311429Y-120131429D01*
X95240000Y-120202857D01*
X95168572Y-120345714D01*
X95168572Y-120702857D01*
X95240000Y-120845714D01*
X95311429Y-120917143D01*
X95454286Y-120988571D01*
X95882858Y-120988571D01*
X96025715Y-120917143D01*
X96097143Y-120845714D01*
D13*
G36*
X119171369Y-112841084D02*
X119175989Y-113033700D01*
X119315370Y-113199032D01*
X119358974Y-113250676D01*
X119409594Y-113310497D01*
X119464141Y-113374856D01*
X119519526Y-113440109D01*
X119572662Y-113502615D01*
X119615416Y-113552817D01*
X119776081Y-113741270D01*
X119774166Y-113903769D01*
X119772250Y-114066267D01*
X119722862Y-114098613D01*
X119674817Y-114134880D01*
X119638031Y-114174358D01*
X119609654Y-114220388D01*
X119599067Y-114243648D01*
X119588457Y-114271320D01*
X119582171Y-114295533D01*
X119579125Y-114322701D01*
X119578237Y-114359238D01*
X119578223Y-114367044D01*
X119580706Y-114426466D01*
X119589031Y-114475215D01*
X119604511Y-114518659D01*
X119624383Y-114555597D01*
X119664081Y-114606811D01*
X119712137Y-114645782D01*
X119766273Y-114671397D01*
X119824212Y-114682542D01*
X119877418Y-114679336D01*
X119929167Y-114661950D01*
X119979015Y-114630488D01*
X120023842Y-114587744D01*
X120060531Y-114536514D01*
X120079081Y-114498646D01*
X120093355Y-114446401D01*
X120097432Y-114400130D01*
X119963818Y-114400130D01*
X119952449Y-114441133D01*
X119930676Y-114475702D01*
X119899733Y-114501623D01*
X119860856Y-114516684D01*
X119832156Y-114519600D01*
X119801763Y-114516981D01*
X119778937Y-114507922D01*
X119768651Y-114500550D01*
X119740705Y-114472663D01*
X119723787Y-114441511D01*
X119715527Y-114401947D01*
X119714086Y-114381926D01*
X119716921Y-114329605D01*
X119730503Y-114288213D01*
X119754646Y-114257971D01*
X119789166Y-114239099D01*
X119833878Y-114231818D01*
X119839889Y-114231734D01*
X119880665Y-114236482D01*
X119911921Y-114251859D01*
X119936127Y-114279560D01*
X119950403Y-114307679D01*
X119963548Y-114354908D01*
X119963818Y-114400130D01*
X120097432Y-114400130D01*
X120098615Y-114386717D01*
X120095087Y-114324954D01*
X120082997Y-114266475D01*
X120067668Y-114226388D01*
X120043277Y-114186728D01*
X120010212Y-114146895D01*
X119973183Y-114112071D01*
X119946049Y-114092603D01*
X119909834Y-114070582D01*
X119909115Y-113869641D01*
X119908395Y-113668700D01*
X119311129Y-112974434D01*
X119310621Y-112811450D01*
X119310112Y-112648467D01*
X119166750Y-112648467D01*
X119171369Y-112841084D01*
X119171369Y-112841084D01*
G37*
X119171369Y-112841084D02*
X119175989Y-113033700D01*
X119315370Y-113199032D01*
X119358974Y-113250676D01*
X119409594Y-113310497D01*
X119464141Y-113374856D01*
X119519526Y-113440109D01*
X119572662Y-113502615D01*
X119615416Y-113552817D01*
X119776081Y-113741270D01*
X119774166Y-113903769D01*
X119772250Y-114066267D01*
X119722862Y-114098613D01*
X119674817Y-114134880D01*
X119638031Y-114174358D01*
X119609654Y-114220388D01*
X119599067Y-114243648D01*
X119588457Y-114271320D01*
X119582171Y-114295533D01*
X119579125Y-114322701D01*
X119578237Y-114359238D01*
X119578223Y-114367044D01*
X119580706Y-114426466D01*
X119589031Y-114475215D01*
X119604511Y-114518659D01*
X119624383Y-114555597D01*
X119664081Y-114606811D01*
X119712137Y-114645782D01*
X119766273Y-114671397D01*
X119824212Y-114682542D01*
X119877418Y-114679336D01*
X119929167Y-114661950D01*
X119979015Y-114630488D01*
X120023842Y-114587744D01*
X120060531Y-114536514D01*
X120079081Y-114498646D01*
X120093355Y-114446401D01*
X120097432Y-114400130D01*
X119963818Y-114400130D01*
X119952449Y-114441133D01*
X119930676Y-114475702D01*
X119899733Y-114501623D01*
X119860856Y-114516684D01*
X119832156Y-114519600D01*
X119801763Y-114516981D01*
X119778937Y-114507922D01*
X119768651Y-114500550D01*
X119740705Y-114472663D01*
X119723787Y-114441511D01*
X119715527Y-114401947D01*
X119714086Y-114381926D01*
X119716921Y-114329605D01*
X119730503Y-114288213D01*
X119754646Y-114257971D01*
X119789166Y-114239099D01*
X119833878Y-114231818D01*
X119839889Y-114231734D01*
X119880665Y-114236482D01*
X119911921Y-114251859D01*
X119936127Y-114279560D01*
X119950403Y-114307679D01*
X119963548Y-114354908D01*
X119963818Y-114400130D01*
X120097432Y-114400130D01*
X120098615Y-114386717D01*
X120095087Y-114324954D01*
X120082997Y-114266475D01*
X120067668Y-114226388D01*
X120043277Y-114186728D01*
X120010212Y-114146895D01*
X119973183Y-114112071D01*
X119946049Y-114092603D01*
X119909834Y-114070582D01*
X119909115Y-113869641D01*
X119908395Y-113668700D01*
X119311129Y-112974434D01*
X119310621Y-112811450D01*
X119310112Y-112648467D01*
X119166750Y-112648467D01*
X119171369Y-112841084D01*
G36*
X118595777Y-113365827D02*
X118593973Y-114066253D01*
X118544584Y-114098183D01*
X118492120Y-114140021D01*
X118451223Y-114190649D01*
X118421859Y-114248667D01*
X118412488Y-114275187D01*
X118406906Y-114300167D01*
X118404205Y-114329674D01*
X118403478Y-114369774D01*
X118403477Y-114371560D01*
X118403984Y-114410428D01*
X118406248Y-114438733D01*
X118411378Y-114462828D01*
X118420482Y-114489064D01*
X118426663Y-114504465D01*
X118458215Y-114563648D01*
X118498949Y-114612179D01*
X118546785Y-114648794D01*
X118599641Y-114672228D01*
X118655438Y-114681218D01*
X118708200Y-114675495D01*
X118767048Y-114652885D01*
X118819439Y-114616224D01*
X118863618Y-114567105D01*
X118897834Y-114507123D01*
X118900761Y-114500300D01*
X118911214Y-114473357D01*
X118917575Y-114450156D01*
X118920831Y-114424718D01*
X118921970Y-114391063D01*
X118921988Y-114386888D01*
X118787478Y-114386888D01*
X118779711Y-114429163D01*
X118762303Y-114467033D01*
X118735245Y-114497131D01*
X118723233Y-114505361D01*
X118697197Y-114514990D01*
X118665286Y-114518885D01*
X118633606Y-114516926D01*
X118608261Y-114508994D01*
X118605970Y-114507656D01*
X118580391Y-114485770D01*
X118557349Y-114456101D01*
X118542021Y-114425384D01*
X118541505Y-114423799D01*
X118533457Y-114377636D01*
X118537655Y-114334305D01*
X118552259Y-114295669D01*
X118575427Y-114263586D01*
X118605320Y-114239919D01*
X118640094Y-114226526D01*
X118677910Y-114225270D01*
X118716926Y-114238011D01*
X118722373Y-114241013D01*
X118753054Y-114267269D01*
X118774139Y-114302576D01*
X118785618Y-114343570D01*
X118787478Y-114386888D01*
X118921988Y-114386888D01*
X118922056Y-114371434D01*
X118921552Y-114332068D01*
X118919380Y-114303636D01*
X118914553Y-114280159D01*
X118906083Y-114255658D01*
X118900761Y-114242567D01*
X118872038Y-114189339D01*
X118833866Y-114141548D01*
X118790306Y-114103888D01*
X118770148Y-114091561D01*
X118731556Y-114071080D01*
X118731556Y-112665400D01*
X118597582Y-112665400D01*
X118595777Y-113365827D01*
X118595777Y-113365827D01*
G37*
X118595777Y-113365827D02*
X118593973Y-114066253D01*
X118544584Y-114098183D01*
X118492120Y-114140021D01*
X118451223Y-114190649D01*
X118421859Y-114248667D01*
X118412488Y-114275187D01*
X118406906Y-114300167D01*
X118404205Y-114329674D01*
X118403478Y-114369774D01*
X118403477Y-114371560D01*
X118403984Y-114410428D01*
X118406248Y-114438733D01*
X118411378Y-114462828D01*
X118420482Y-114489064D01*
X118426663Y-114504465D01*
X118458215Y-114563648D01*
X118498949Y-114612179D01*
X118546785Y-114648794D01*
X118599641Y-114672228D01*
X118655438Y-114681218D01*
X118708200Y-114675495D01*
X118767048Y-114652885D01*
X118819439Y-114616224D01*
X118863618Y-114567105D01*
X118897834Y-114507123D01*
X118900761Y-114500300D01*
X118911214Y-114473357D01*
X118917575Y-114450156D01*
X118920831Y-114424718D01*
X118921970Y-114391063D01*
X118921988Y-114386888D01*
X118787478Y-114386888D01*
X118779711Y-114429163D01*
X118762303Y-114467033D01*
X118735245Y-114497131D01*
X118723233Y-114505361D01*
X118697197Y-114514990D01*
X118665286Y-114518885D01*
X118633606Y-114516926D01*
X118608261Y-114508994D01*
X118605970Y-114507656D01*
X118580391Y-114485770D01*
X118557349Y-114456101D01*
X118542021Y-114425384D01*
X118541505Y-114423799D01*
X118533457Y-114377636D01*
X118537655Y-114334305D01*
X118552259Y-114295669D01*
X118575427Y-114263586D01*
X118605320Y-114239919D01*
X118640094Y-114226526D01*
X118677910Y-114225270D01*
X118716926Y-114238011D01*
X118722373Y-114241013D01*
X118753054Y-114267269D01*
X118774139Y-114302576D01*
X118785618Y-114343570D01*
X118787478Y-114386888D01*
X118921988Y-114386888D01*
X118922056Y-114371434D01*
X118921552Y-114332068D01*
X118919380Y-114303636D01*
X118914553Y-114280159D01*
X118906083Y-114255658D01*
X118900761Y-114242567D01*
X118872038Y-114189339D01*
X118833866Y-114141548D01*
X118790306Y-114103888D01*
X118770148Y-114091561D01*
X118731556Y-114071080D01*
X118731556Y-112665400D01*
X118597582Y-112665400D01*
X118595777Y-113365827D01*
G36*
X118011889Y-112970103D02*
X117851375Y-113158270D01*
X117803116Y-113214919D01*
X117750125Y-113277250D01*
X117695431Y-113341693D01*
X117642061Y-113404677D01*
X117593045Y-113462632D01*
X117555132Y-113507569D01*
X117419402Y-113668700D01*
X117414655Y-113870328D01*
X117409909Y-114071955D01*
X117374580Y-114093438D01*
X117333438Y-114125193D01*
X117294281Y-114167494D01*
X117261563Y-114215048D01*
X117245797Y-114246418D01*
X117235889Y-114271625D01*
X117229793Y-114293601D01*
X117226627Y-114317949D01*
X117225511Y-114350268D01*
X117225458Y-114375667D01*
X117228168Y-114434133D01*
X117237037Y-114481659D01*
X117253821Y-114523390D01*
X117280273Y-114564473D01*
X117297037Y-114585615D01*
X117345547Y-114632847D01*
X117399319Y-114664449D01*
X117457683Y-114680140D01*
X117519494Y-114679701D01*
X117571729Y-114664613D01*
X117622443Y-114634469D01*
X117668675Y-114591060D01*
X117671526Y-114587738D01*
X117701357Y-114548114D01*
X117721774Y-114508931D01*
X117734455Y-114465349D01*
X117741077Y-114412532D01*
X117742586Y-114382748D01*
X117743204Y-114356881D01*
X117608245Y-114356881D01*
X117606514Y-114409165D01*
X117594051Y-114451538D01*
X117570344Y-114484693D01*
X117534884Y-114509325D01*
X117487158Y-114526126D01*
X117482723Y-114527169D01*
X117474316Y-114525649D01*
X117457566Y-114520876D01*
X117450973Y-114518782D01*
X117417921Y-114500430D01*
X117390866Y-114470916D01*
X117370972Y-114433713D01*
X117359402Y-114392292D01*
X117357322Y-114350127D01*
X117365894Y-114310690D01*
X117375045Y-114292256D01*
X117397253Y-114262898D01*
X117422139Y-114244820D01*
X117454000Y-114235481D01*
X117474821Y-114233229D01*
X117511680Y-114233479D01*
X117539996Y-114241433D01*
X117564546Y-114259201D01*
X117584578Y-114281769D01*
X117597564Y-114301622D01*
X117604678Y-114323845D01*
X117608164Y-114355564D01*
X117608245Y-114356881D01*
X117743204Y-114356881D01*
X117743542Y-114342773D01*
X117742751Y-114314291D01*
X117739581Y-114291910D01*
X117733398Y-114270242D01*
X117727429Y-114253902D01*
X117698320Y-114196062D01*
X117658965Y-114144977D01*
X117612906Y-114104981D01*
X117598004Y-114095617D01*
X117553278Y-114070002D01*
X117553278Y-113734462D01*
X117738482Y-113515315D01*
X117786859Y-113458086D01*
X117837443Y-113398269D01*
X117888034Y-113338467D01*
X117936431Y-113281280D01*
X117980431Y-113229309D01*
X118017835Y-113185157D01*
X118035255Y-113164608D01*
X118146823Y-113033049D01*
X118151008Y-112844991D01*
X118155192Y-112656934D01*
X118011889Y-112656934D01*
X118011889Y-112970103D01*
X118011889Y-112970103D01*
G37*
X118011889Y-112970103D02*
X117851375Y-113158270D01*
X117803116Y-113214919D01*
X117750125Y-113277250D01*
X117695431Y-113341693D01*
X117642061Y-113404677D01*
X117593045Y-113462632D01*
X117555132Y-113507569D01*
X117419402Y-113668700D01*
X117414655Y-113870328D01*
X117409909Y-114071955D01*
X117374580Y-114093438D01*
X117333438Y-114125193D01*
X117294281Y-114167494D01*
X117261563Y-114215048D01*
X117245797Y-114246418D01*
X117235889Y-114271625D01*
X117229793Y-114293601D01*
X117226627Y-114317949D01*
X117225511Y-114350268D01*
X117225458Y-114375667D01*
X117228168Y-114434133D01*
X117237037Y-114481659D01*
X117253821Y-114523390D01*
X117280273Y-114564473D01*
X117297037Y-114585615D01*
X117345547Y-114632847D01*
X117399319Y-114664449D01*
X117457683Y-114680140D01*
X117519494Y-114679701D01*
X117571729Y-114664613D01*
X117622443Y-114634469D01*
X117668675Y-114591060D01*
X117671526Y-114587738D01*
X117701357Y-114548114D01*
X117721774Y-114508931D01*
X117734455Y-114465349D01*
X117741077Y-114412532D01*
X117742586Y-114382748D01*
X117743204Y-114356881D01*
X117608245Y-114356881D01*
X117606514Y-114409165D01*
X117594051Y-114451538D01*
X117570344Y-114484693D01*
X117534884Y-114509325D01*
X117487158Y-114526126D01*
X117482723Y-114527169D01*
X117474316Y-114525649D01*
X117457566Y-114520876D01*
X117450973Y-114518782D01*
X117417921Y-114500430D01*
X117390866Y-114470916D01*
X117370972Y-114433713D01*
X117359402Y-114392292D01*
X117357322Y-114350127D01*
X117365894Y-114310690D01*
X117375045Y-114292256D01*
X117397253Y-114262898D01*
X117422139Y-114244820D01*
X117454000Y-114235481D01*
X117474821Y-114233229D01*
X117511680Y-114233479D01*
X117539996Y-114241433D01*
X117564546Y-114259201D01*
X117584578Y-114281769D01*
X117597564Y-114301622D01*
X117604678Y-114323845D01*
X117608164Y-114355564D01*
X117608245Y-114356881D01*
X117743204Y-114356881D01*
X117743542Y-114342773D01*
X117742751Y-114314291D01*
X117739581Y-114291910D01*
X117733398Y-114270242D01*
X117727429Y-114253902D01*
X117698320Y-114196062D01*
X117658965Y-114144977D01*
X117612906Y-114104981D01*
X117598004Y-114095617D01*
X117553278Y-114070002D01*
X117553278Y-113734462D01*
X117738482Y-113515315D01*
X117786859Y-113458086D01*
X117837443Y-113398269D01*
X117888034Y-113338467D01*
X117936431Y-113281280D01*
X117980431Y-113229309D01*
X118017835Y-113185157D01*
X118035255Y-113164608D01*
X118146823Y-113033049D01*
X118151008Y-112844991D01*
X118155192Y-112656934D01*
X118011889Y-112656934D01*
X118011889Y-112970103D01*
G36*
X113005907Y-113192174D02*
X112985258Y-113192892D01*
X112923618Y-113195966D01*
X112872018Y-113200666D01*
X112826405Y-113207775D01*
X112782727Y-113218081D01*
X112736930Y-113232367D01*
X112686709Y-113250749D01*
X112621445Y-113275795D01*
X112621445Y-113505263D01*
X112644375Y-113486921D01*
X112682856Y-113459717D01*
X112730185Y-113431673D01*
X112781392Y-113405388D01*
X112831510Y-113383460D01*
X112864862Y-113371602D01*
X112916616Y-113358934D01*
X112972932Y-113350854D01*
X113029593Y-113347564D01*
X113082382Y-113349263D01*
X113127079Y-113356151D01*
X113136500Y-113358709D01*
X113193248Y-113381635D01*
X113240854Y-113412775D01*
X113277990Y-113450934D01*
X113303326Y-113494916D01*
X113310114Y-113514784D01*
X113318287Y-113567597D01*
X113315297Y-113621615D01*
X113302045Y-113672538D01*
X113279434Y-113716066D01*
X113264045Y-113734584D01*
X113246751Y-113748779D01*
X113223073Y-113762245D01*
X113191519Y-113775529D01*
X113150596Y-113789180D01*
X113098811Y-113803746D01*
X113034670Y-113819775D01*
X113027139Y-113821570D01*
X112948577Y-113840866D01*
X112882453Y-113858699D01*
X112827206Y-113875730D01*
X112781277Y-113892621D01*
X112743105Y-113910033D01*
X112711128Y-113928630D01*
X112683786Y-113949073D01*
X112659519Y-113972024D01*
X112651280Y-113980976D01*
X112613720Y-114034322D01*
X112587180Y-114096359D01*
X112571911Y-114164834D01*
X112568164Y-114237497D01*
X112576188Y-114312096D01*
X112596235Y-114386379D01*
X112603919Y-114406525D01*
X112638401Y-114472034D01*
X112685569Y-114530497D01*
X112745189Y-114581685D01*
X112817030Y-114625371D01*
X112837373Y-114635329D01*
X112853543Y-114642649D01*
X112868188Y-114648245D01*
X112883550Y-114652386D01*
X112901867Y-114655341D01*
X112925380Y-114657378D01*
X112956330Y-114658767D01*
X112996955Y-114659777D01*
X113048306Y-114660658D01*
X113103849Y-114661330D01*
X113147761Y-114661282D01*
X113182511Y-114660370D01*
X113210572Y-114658448D01*
X113234413Y-114655368D01*
X113256507Y-114650984D01*
X113270556Y-114647510D01*
X113303226Y-114637929D01*
X113343234Y-114624692D01*
X113384624Y-114609828D01*
X113409903Y-114600071D01*
X113489278Y-114568344D01*
X113490801Y-114491055D01*
X113491417Y-114437651D01*
X113491057Y-114393124D01*
X113489790Y-114359732D01*
X113487682Y-114339738D01*
X113486174Y-114335253D01*
X113479279Y-114337684D01*
X113464551Y-114347666D01*
X113450595Y-114358632D01*
X113377260Y-114410542D01*
X113296425Y-114452436D01*
X113211175Y-114483369D01*
X113124599Y-114502391D01*
X113039784Y-114508556D01*
X112977373Y-114503908D01*
X112908192Y-114488827D01*
X112851264Y-114465641D01*
X112806331Y-114434079D01*
X112773138Y-114393868D01*
X112751426Y-114344738D01*
X112740938Y-114286416D01*
X112739828Y-114253126D01*
X112742360Y-114206266D01*
X112750168Y-114170699D01*
X112764969Y-114141328D01*
X112786312Y-114115325D01*
X112802576Y-114100397D01*
X112822334Y-114086955D01*
X112847255Y-114074370D01*
X112879009Y-114062012D01*
X112919264Y-114049253D01*
X112969688Y-114035461D01*
X113031951Y-114020009D01*
X113051151Y-114015437D01*
X113099104Y-114003856D01*
X113144507Y-113992443D01*
X113184807Y-113981875D01*
X113217446Y-113972829D01*
X113239872Y-113965981D01*
X113245718Y-113963890D01*
X113315384Y-113929524D01*
X113373492Y-113885904D01*
X113419816Y-113833436D01*
X113454131Y-113772523D01*
X113476212Y-113703569D01*
X113485834Y-113626981D01*
X113482771Y-113543162D01*
X113482315Y-113539082D01*
X113469391Y-113470748D01*
X113446547Y-113411467D01*
X113412072Y-113357325D01*
X113392558Y-113333877D01*
X113339409Y-113284371D01*
X113276966Y-113243403D01*
X113209044Y-113213250D01*
X113172230Y-113202457D01*
X113146118Y-113196980D01*
X113119542Y-113193373D01*
X113089388Y-113191475D01*
X113052548Y-113191128D01*
X113005907Y-113192174D01*
X113005907Y-113192174D01*
G37*
X113005907Y-113192174D02*
X112985258Y-113192892D01*
X112923618Y-113195966D01*
X112872018Y-113200666D01*
X112826405Y-113207775D01*
X112782727Y-113218081D01*
X112736930Y-113232367D01*
X112686709Y-113250749D01*
X112621445Y-113275795D01*
X112621445Y-113505263D01*
X112644375Y-113486921D01*
X112682856Y-113459717D01*
X112730185Y-113431673D01*
X112781392Y-113405388D01*
X112831510Y-113383460D01*
X112864862Y-113371602D01*
X112916616Y-113358934D01*
X112972932Y-113350854D01*
X113029593Y-113347564D01*
X113082382Y-113349263D01*
X113127079Y-113356151D01*
X113136500Y-113358709D01*
X113193248Y-113381635D01*
X113240854Y-113412775D01*
X113277990Y-113450934D01*
X113303326Y-113494916D01*
X113310114Y-113514784D01*
X113318287Y-113567597D01*
X113315297Y-113621615D01*
X113302045Y-113672538D01*
X113279434Y-113716066D01*
X113264045Y-113734584D01*
X113246751Y-113748779D01*
X113223073Y-113762245D01*
X113191519Y-113775529D01*
X113150596Y-113789180D01*
X113098811Y-113803746D01*
X113034670Y-113819775D01*
X113027139Y-113821570D01*
X112948577Y-113840866D01*
X112882453Y-113858699D01*
X112827206Y-113875730D01*
X112781277Y-113892621D01*
X112743105Y-113910033D01*
X112711128Y-113928630D01*
X112683786Y-113949073D01*
X112659519Y-113972024D01*
X112651280Y-113980976D01*
X112613720Y-114034322D01*
X112587180Y-114096359D01*
X112571911Y-114164834D01*
X112568164Y-114237497D01*
X112576188Y-114312096D01*
X112596235Y-114386379D01*
X112603919Y-114406525D01*
X112638401Y-114472034D01*
X112685569Y-114530497D01*
X112745189Y-114581685D01*
X112817030Y-114625371D01*
X112837373Y-114635329D01*
X112853543Y-114642649D01*
X112868188Y-114648245D01*
X112883550Y-114652386D01*
X112901867Y-114655341D01*
X112925380Y-114657378D01*
X112956330Y-114658767D01*
X112996955Y-114659777D01*
X113048306Y-114660658D01*
X113103849Y-114661330D01*
X113147761Y-114661282D01*
X113182511Y-114660370D01*
X113210572Y-114658448D01*
X113234413Y-114655368D01*
X113256507Y-114650984D01*
X113270556Y-114647510D01*
X113303226Y-114637929D01*
X113343234Y-114624692D01*
X113384624Y-114609828D01*
X113409903Y-114600071D01*
X113489278Y-114568344D01*
X113490801Y-114491055D01*
X113491417Y-114437651D01*
X113491057Y-114393124D01*
X113489790Y-114359732D01*
X113487682Y-114339738D01*
X113486174Y-114335253D01*
X113479279Y-114337684D01*
X113464551Y-114347666D01*
X113450595Y-114358632D01*
X113377260Y-114410542D01*
X113296425Y-114452436D01*
X113211175Y-114483369D01*
X113124599Y-114502391D01*
X113039784Y-114508556D01*
X112977373Y-114503908D01*
X112908192Y-114488827D01*
X112851264Y-114465641D01*
X112806331Y-114434079D01*
X112773138Y-114393868D01*
X112751426Y-114344738D01*
X112740938Y-114286416D01*
X112739828Y-114253126D01*
X112742360Y-114206266D01*
X112750168Y-114170699D01*
X112764969Y-114141328D01*
X112786312Y-114115325D01*
X112802576Y-114100397D01*
X112822334Y-114086955D01*
X112847255Y-114074370D01*
X112879009Y-114062012D01*
X112919264Y-114049253D01*
X112969688Y-114035461D01*
X113031951Y-114020009D01*
X113051151Y-114015437D01*
X113099104Y-114003856D01*
X113144507Y-113992443D01*
X113184807Y-113981875D01*
X113217446Y-113972829D01*
X113239872Y-113965981D01*
X113245718Y-113963890D01*
X113315384Y-113929524D01*
X113373492Y-113885904D01*
X113419816Y-113833436D01*
X113454131Y-113772523D01*
X113476212Y-113703569D01*
X113485834Y-113626981D01*
X113482771Y-113543162D01*
X113482315Y-113539082D01*
X113469391Y-113470748D01*
X113446547Y-113411467D01*
X113412072Y-113357325D01*
X113392558Y-113333877D01*
X113339409Y-113284371D01*
X113276966Y-113243403D01*
X113209044Y-113213250D01*
X113172230Y-113202457D01*
X113146118Y-113196980D01*
X113119542Y-113193373D01*
X113089388Y-113191475D01*
X113052548Y-113191128D01*
X113005907Y-113192174D01*
G36*
X115268049Y-113334206D02*
X115247942Y-113334267D01*
X115126167Y-113334267D01*
X115126167Y-113619002D01*
X115081369Y-113703118D01*
X115068257Y-113727520D01*
X115048382Y-113764219D01*
X115022746Y-113811372D01*
X114992355Y-113867140D01*
X114958213Y-113929681D01*
X114921322Y-113997154D01*
X114882688Y-114067720D01*
X114848536Y-114130018D01*
X114660500Y-114472803D01*
X114660500Y-114646600D01*
X115852889Y-114646600D01*
X115852889Y-114586144D01*
X115811527Y-114586144D01*
X115811354Y-114597776D01*
X115811339Y-114597917D01*
X115804336Y-114598912D01*
X115784286Y-114599859D01*
X115752255Y-114600746D01*
X115709307Y-114601561D01*
X115656507Y-114602291D01*
X115594920Y-114602926D01*
X115525610Y-114603452D01*
X115449642Y-114603857D01*
X115368081Y-114604130D01*
X115281992Y-114604258D01*
X115253167Y-114604267D01*
X114695778Y-114604267D01*
X114695778Y-114486720D01*
X114928612Y-114062655D01*
X115161445Y-113638591D01*
X115161445Y-113376122D01*
X115355473Y-113380834D01*
X115359000Y-113520534D01*
X115362528Y-113660234D01*
X115809128Y-114473084D01*
X115810625Y-114532325D01*
X115811266Y-114562689D01*
X115811527Y-114586144D01*
X115852889Y-114586144D01*
X115852889Y-114474565D01*
X115395549Y-113641111D01*
X115393126Y-113506739D01*
X115392230Y-113448594D01*
X115390726Y-113405182D01*
X115386813Y-113374361D01*
X115378690Y-113353990D01*
X115364554Y-113341930D01*
X115342603Y-113336040D01*
X115311035Y-113334179D01*
X115268049Y-113334206D01*
X115268049Y-113334206D01*
G37*
X115268049Y-113334206D02*
X115247942Y-113334267D01*
X115126167Y-113334267D01*
X115126167Y-113619002D01*
X115081369Y-113703118D01*
X115068257Y-113727520D01*
X115048382Y-113764219D01*
X115022746Y-113811372D01*
X114992355Y-113867140D01*
X114958213Y-113929681D01*
X114921322Y-113997154D01*
X114882688Y-114067720D01*
X114848536Y-114130018D01*
X114660500Y-114472803D01*
X114660500Y-114646600D01*
X115852889Y-114646600D01*
X115852889Y-114586144D01*
X115811527Y-114586144D01*
X115811354Y-114597776D01*
X115811339Y-114597917D01*
X115804336Y-114598912D01*
X115784286Y-114599859D01*
X115752255Y-114600746D01*
X115709307Y-114601561D01*
X115656507Y-114602291D01*
X115594920Y-114602926D01*
X115525610Y-114603452D01*
X115449642Y-114603857D01*
X115368081Y-114604130D01*
X115281992Y-114604258D01*
X115253167Y-114604267D01*
X114695778Y-114604267D01*
X114695778Y-114486720D01*
X114928612Y-114062655D01*
X115161445Y-113638591D01*
X115161445Y-113376122D01*
X115355473Y-113380834D01*
X115359000Y-113520534D01*
X115362528Y-113660234D01*
X115809128Y-114473084D01*
X115810625Y-114532325D01*
X115811266Y-114562689D01*
X115811527Y-114586144D01*
X115852889Y-114586144D01*
X115852889Y-114474565D01*
X115395549Y-113641111D01*
X115393126Y-113506739D01*
X115392230Y-113448594D01*
X115390726Y-113405182D01*
X115386813Y-113374361D01*
X115378690Y-113353990D01*
X115364554Y-113341930D01*
X115342603Y-113336040D01*
X115311035Y-113334179D01*
X115268049Y-113334206D01*
G36*
X116528504Y-113848617D02*
X116526695Y-114473034D01*
X116228598Y-114475242D01*
X115930500Y-114477451D01*
X115930500Y-114638133D01*
X116685445Y-114638133D01*
X116685445Y-113224200D01*
X116530314Y-113224200D01*
X116528504Y-113848617D01*
X116528504Y-113848617D01*
G37*
X116528504Y-113848617D02*
X116526695Y-114473034D01*
X116228598Y-114475242D01*
X115930500Y-114477451D01*
X115930500Y-114638133D01*
X116685445Y-114638133D01*
X116685445Y-113224200D01*
X116530314Y-113224200D01*
X116528504Y-113848617D01*
G36*
X114302431Y-113222337D02*
X114231515Y-113223008D01*
X114173190Y-113223716D01*
X114125938Y-113224554D01*
X114088239Y-113225616D01*
X114058574Y-113226996D01*
X114035424Y-113228788D01*
X114017269Y-113231087D01*
X114002590Y-113233986D01*
X113989867Y-113237579D01*
X113977583Y-113241960D01*
X113976112Y-113242525D01*
X113915821Y-113270183D01*
X113868069Y-113302226D01*
X113831526Y-113339922D01*
X113804863Y-113384536D01*
X113792321Y-113417458D01*
X113785043Y-113443782D01*
X113780855Y-113469104D01*
X113779248Y-113498943D01*
X113779711Y-113538818D01*
X113780062Y-113550167D01*
X113784189Y-113606883D01*
X113793491Y-113654299D01*
X113809580Y-113695744D01*
X113834068Y-113734548D01*
X113868565Y-113774042D01*
X113905432Y-113809259D01*
X113929761Y-113831284D01*
X113901783Y-113842172D01*
X113837984Y-113874109D01*
X113782604Y-113916402D01*
X113737191Y-113967575D01*
X113703289Y-114026155D01*
X113699397Y-114035234D01*
X113690077Y-114058564D01*
X113683668Y-114077838D01*
X113679627Y-114097082D01*
X113677407Y-114120319D01*
X113676464Y-114151576D01*
X113676253Y-114194876D01*
X113676250Y-114206132D01*
X113676400Y-114252811D01*
X113677195Y-114286597D01*
X113679154Y-114311528D01*
X113682796Y-114331644D01*
X113688640Y-114350984D01*
X113697204Y-114373587D01*
X113698026Y-114375667D01*
X113733416Y-114445608D01*
X113780333Y-114506127D01*
X113838332Y-114556765D01*
X113906967Y-114597064D01*
X113917963Y-114602105D01*
X113932951Y-114608425D01*
X113947449Y-114613450D01*
X113963430Y-114617410D01*
X113982865Y-114620533D01*
X114007726Y-114623047D01*
X114039985Y-114625182D01*
X114081614Y-114627166D01*
X114134584Y-114629229D01*
X114159556Y-114630133D01*
X114218318Y-114632093D01*
X114279529Y-114633883D01*
X114339653Y-114635416D01*
X114395153Y-114636608D01*
X114442493Y-114637373D01*
X114468237Y-114637605D01*
X114582889Y-114638133D01*
X114582889Y-114333751D01*
X114426476Y-114333751D01*
X114426345Y-114385323D01*
X114425992Y-114427262D01*
X114425428Y-114457379D01*
X114424667Y-114473483D01*
X114424373Y-114475356D01*
X114420314Y-114479245D01*
X114409956Y-114481834D01*
X114391648Y-114483195D01*
X114363742Y-114483398D01*
X114324587Y-114482516D01*
X114288446Y-114481247D01*
X114239728Y-114479097D01*
X114189426Y-114476392D01*
X114141784Y-114473394D01*
X114101045Y-114470364D01*
X114078975Y-114468369D01*
X114014819Y-114457416D01*
X113961772Y-114438290D01*
X113918278Y-114410281D01*
X113890373Y-114382283D01*
X113866964Y-114349842D01*
X113851663Y-114316419D01*
X113843092Y-114277344D01*
X113839876Y-114227946D01*
X113839749Y-114210567D01*
X113843111Y-114147608D01*
X113853734Y-114097070D01*
X113872851Y-114056062D01*
X113901698Y-114021693D01*
X113930250Y-113998683D01*
X113949796Y-113986968D01*
X113972778Y-113977543D01*
X114000810Y-113970191D01*
X114035507Y-113964694D01*
X114078483Y-113960836D01*
X114131352Y-113958399D01*
X114195728Y-113957166D01*
X114240695Y-113956913D01*
X114424139Y-113956567D01*
X114426011Y-114210474D01*
X114426369Y-114274738D01*
X114426476Y-114333751D01*
X114582889Y-114333751D01*
X114582889Y-113687888D01*
X114426479Y-113687888D01*
X114426223Y-113731483D01*
X114425678Y-113764690D01*
X114424864Y-113784987D01*
X114424263Y-113789900D01*
X114420637Y-113793893D01*
X114411593Y-113796590D01*
X114395411Y-113798064D01*
X114370368Y-113798387D01*
X114334743Y-113797631D01*
X114286814Y-113795871D01*
X114284782Y-113795787D01*
X114239069Y-113793547D01*
X114195144Y-113790748D01*
X114156150Y-113787637D01*
X114125231Y-113784463D01*
X114106639Y-113781706D01*
X114051148Y-113764628D01*
X114007177Y-113737896D01*
X113974594Y-113701407D01*
X113956400Y-113664467D01*
X113948727Y-113630318D01*
X113945422Y-113587141D01*
X113946399Y-113541539D01*
X113951570Y-113500111D01*
X113958937Y-113473740D01*
X113974950Y-113446236D01*
X113999048Y-113423746D01*
X114032133Y-113406021D01*
X114075104Y-113392813D01*
X114128862Y-113383872D01*
X114194309Y-113378950D01*
X114272344Y-113377796D01*
X114304195Y-113378266D01*
X114424139Y-113380834D01*
X114426037Y-113579625D01*
X114426424Y-113636428D01*
X114426479Y-113687888D01*
X114582889Y-113687888D01*
X114582889Y-113219866D01*
X114302431Y-113222337D01*
X114302431Y-113222337D01*
G37*
X114302431Y-113222337D02*
X114231515Y-113223008D01*
X114173190Y-113223716D01*
X114125938Y-113224554D01*
X114088239Y-113225616D01*
X114058574Y-113226996D01*
X114035424Y-113228788D01*
X114017269Y-113231087D01*
X114002590Y-113233986D01*
X113989867Y-113237579D01*
X113977583Y-113241960D01*
X113976112Y-113242525D01*
X113915821Y-113270183D01*
X113868069Y-113302226D01*
X113831526Y-113339922D01*
X113804863Y-113384536D01*
X113792321Y-113417458D01*
X113785043Y-113443782D01*
X113780855Y-113469104D01*
X113779248Y-113498943D01*
X113779711Y-113538818D01*
X113780062Y-113550167D01*
X113784189Y-113606883D01*
X113793491Y-113654299D01*
X113809580Y-113695744D01*
X113834068Y-113734548D01*
X113868565Y-113774042D01*
X113905432Y-113809259D01*
X113929761Y-113831284D01*
X113901783Y-113842172D01*
X113837984Y-113874109D01*
X113782604Y-113916402D01*
X113737191Y-113967575D01*
X113703289Y-114026155D01*
X113699397Y-114035234D01*
X113690077Y-114058564D01*
X113683668Y-114077838D01*
X113679627Y-114097082D01*
X113677407Y-114120319D01*
X113676464Y-114151576D01*
X113676253Y-114194876D01*
X113676250Y-114206132D01*
X113676400Y-114252811D01*
X113677195Y-114286597D01*
X113679154Y-114311528D01*
X113682796Y-114331644D01*
X113688640Y-114350984D01*
X113697204Y-114373587D01*
X113698026Y-114375667D01*
X113733416Y-114445608D01*
X113780333Y-114506127D01*
X113838332Y-114556765D01*
X113906967Y-114597064D01*
X113917963Y-114602105D01*
X113932951Y-114608425D01*
X113947449Y-114613450D01*
X113963430Y-114617410D01*
X113982865Y-114620533D01*
X114007726Y-114623047D01*
X114039985Y-114625182D01*
X114081614Y-114627166D01*
X114134584Y-114629229D01*
X114159556Y-114630133D01*
X114218318Y-114632093D01*
X114279529Y-114633883D01*
X114339653Y-114635416D01*
X114395153Y-114636608D01*
X114442493Y-114637373D01*
X114468237Y-114637605D01*
X114582889Y-114638133D01*
X114582889Y-114333751D01*
X114426476Y-114333751D01*
X114426345Y-114385323D01*
X114425992Y-114427262D01*
X114425428Y-114457379D01*
X114424667Y-114473483D01*
X114424373Y-114475356D01*
X114420314Y-114479245D01*
X114409956Y-114481834D01*
X114391648Y-114483195D01*
X114363742Y-114483398D01*
X114324587Y-114482516D01*
X114288446Y-114481247D01*
X114239728Y-114479097D01*
X114189426Y-114476392D01*
X114141784Y-114473394D01*
X114101045Y-114470364D01*
X114078975Y-114468369D01*
X114014819Y-114457416D01*
X113961772Y-114438290D01*
X113918278Y-114410281D01*
X113890373Y-114382283D01*
X113866964Y-114349842D01*
X113851663Y-114316419D01*
X113843092Y-114277344D01*
X113839876Y-114227946D01*
X113839749Y-114210567D01*
X113843111Y-114147608D01*
X113853734Y-114097070D01*
X113872851Y-114056062D01*
X113901698Y-114021693D01*
X113930250Y-113998683D01*
X113949796Y-113986968D01*
X113972778Y-113977543D01*
X114000810Y-113970191D01*
X114035507Y-113964694D01*
X114078483Y-113960836D01*
X114131352Y-113958399D01*
X114195728Y-113957166D01*
X114240695Y-113956913D01*
X114424139Y-113956567D01*
X114426011Y-114210474D01*
X114426369Y-114274738D01*
X114426476Y-114333751D01*
X114582889Y-114333751D01*
X114582889Y-113687888D01*
X114426479Y-113687888D01*
X114426223Y-113731483D01*
X114425678Y-113764690D01*
X114424864Y-113784987D01*
X114424263Y-113789900D01*
X114420637Y-113793893D01*
X114411593Y-113796590D01*
X114395411Y-113798064D01*
X114370368Y-113798387D01*
X114334743Y-113797631D01*
X114286814Y-113795871D01*
X114284782Y-113795787D01*
X114239069Y-113793547D01*
X114195144Y-113790748D01*
X114156150Y-113787637D01*
X114125231Y-113784463D01*
X114106639Y-113781706D01*
X114051148Y-113764628D01*
X114007177Y-113737896D01*
X113974594Y-113701407D01*
X113956400Y-113664467D01*
X113948727Y-113630318D01*
X113945422Y-113587141D01*
X113946399Y-113541539D01*
X113951570Y-113500111D01*
X113958937Y-113473740D01*
X113974950Y-113446236D01*
X113999048Y-113423746D01*
X114032133Y-113406021D01*
X114075104Y-113392813D01*
X114128862Y-113383872D01*
X114194309Y-113378950D01*
X114272344Y-113377796D01*
X114304195Y-113378266D01*
X114424139Y-113380834D01*
X114426037Y-113579625D01*
X114426424Y-113636428D01*
X114426479Y-113687888D01*
X114582889Y-113687888D01*
X114582889Y-113219866D01*
X114302431Y-113222337D01*
G36*
X117403348Y-111975179D02*
X117352867Y-111976847D01*
X117307281Y-111978435D01*
X117268409Y-111979873D01*
X117238070Y-111981090D01*
X117218083Y-111982016D01*
X117210268Y-111982581D01*
X117210225Y-111982603D01*
X117206591Y-111989918D01*
X117196482Y-112010453D01*
X117180575Y-112042830D01*
X117159544Y-112085673D01*
X117134067Y-112137602D01*
X117104820Y-112197240D01*
X117072478Y-112263209D01*
X117037718Y-112334132D01*
X117027852Y-112354265D01*
X116846338Y-112724697D01*
X114908685Y-112722565D01*
X112971032Y-112720434D01*
X112951270Y-112670970D01*
X112927225Y-112623980D01*
X112894557Y-112578254D01*
X112857450Y-112538938D01*
X112822528Y-112512581D01*
X112804774Y-112503130D01*
X112787597Y-112497040D01*
X112767137Y-112493603D01*
X112739532Y-112492108D01*
X112709639Y-112491834D01*
X112673495Y-112492286D01*
X112647589Y-112494117D01*
X112628057Y-112498034D01*
X112611037Y-112504745D01*
X112596750Y-112512533D01*
X112557817Y-112541983D01*
X112520899Y-112581754D01*
X112489731Y-112627105D01*
X112468044Y-112673290D01*
X112466416Y-112678163D01*
X112452641Y-112743074D01*
X112450205Y-112812199D01*
X112459107Y-112879675D01*
X112466415Y-112906700D01*
X112488660Y-112956991D01*
X112520877Y-113004394D01*
X112559454Y-113044617D01*
X112600776Y-113073374D01*
X112610862Y-113078162D01*
X112670098Y-113096988D01*
X112725402Y-113100650D01*
X112762556Y-113094379D01*
X112820723Y-113070868D01*
X112871864Y-113034014D01*
X112914296Y-112985369D01*
X112946332Y-112926487D01*
X112947292Y-112924143D01*
X112962923Y-112885534D01*
X113802893Y-112884304D01*
X113912137Y-112884119D01*
X114033809Y-112883868D01*
X114166227Y-112883556D01*
X114307707Y-112883189D01*
X114456568Y-112882772D01*
X114611126Y-112882310D01*
X114769698Y-112881809D01*
X114930602Y-112881274D01*
X115092155Y-112880711D01*
X115252675Y-112880125D01*
X115410477Y-112879521D01*
X115563881Y-112878905D01*
X115711203Y-112878282D01*
X115785620Y-112877954D01*
X116928378Y-112872834D01*
X116963312Y-112801899D01*
X112836991Y-112801899D01*
X112830435Y-112844001D01*
X112813269Y-112882527D01*
X112785397Y-112914559D01*
X112767917Y-112926935D01*
X112727213Y-112942475D01*
X112686110Y-112941104D01*
X112651795Y-112927054D01*
X112623196Y-112902075D01*
X112599599Y-112865526D01*
X112584160Y-112822624D01*
X112581963Y-112811627D01*
X112582187Y-112772690D01*
X112593894Y-112732859D01*
X112615068Y-112696161D01*
X112643691Y-112666626D01*
X112659959Y-112655915D01*
X112695852Y-112642400D01*
X112729668Y-112643800D01*
X112759028Y-112656052D01*
X112793956Y-112683297D01*
X112818656Y-112718630D01*
X112833033Y-112759136D01*
X112836991Y-112801899D01*
X116963312Y-112801899D01*
X117109763Y-112504534D01*
X117291148Y-112136233D01*
X117595622Y-112136233D01*
X117595617Y-112052609D01*
X117595612Y-111968984D01*
X117403348Y-111975179D01*
X117403348Y-111975179D01*
G37*
X117403348Y-111975179D02*
X117352867Y-111976847D01*
X117307281Y-111978435D01*
X117268409Y-111979873D01*
X117238070Y-111981090D01*
X117218083Y-111982016D01*
X117210268Y-111982581D01*
X117210225Y-111982603D01*
X117206591Y-111989918D01*
X117196482Y-112010453D01*
X117180575Y-112042830D01*
X117159544Y-112085673D01*
X117134067Y-112137602D01*
X117104820Y-112197240D01*
X117072478Y-112263209D01*
X117037718Y-112334132D01*
X117027852Y-112354265D01*
X116846338Y-112724697D01*
X114908685Y-112722565D01*
X112971032Y-112720434D01*
X112951270Y-112670970D01*
X112927225Y-112623980D01*
X112894557Y-112578254D01*
X112857450Y-112538938D01*
X112822528Y-112512581D01*
X112804774Y-112503130D01*
X112787597Y-112497040D01*
X112767137Y-112493603D01*
X112739532Y-112492108D01*
X112709639Y-112491834D01*
X112673495Y-112492286D01*
X112647589Y-112494117D01*
X112628057Y-112498034D01*
X112611037Y-112504745D01*
X112596750Y-112512533D01*
X112557817Y-112541983D01*
X112520899Y-112581754D01*
X112489731Y-112627105D01*
X112468044Y-112673290D01*
X112466416Y-112678163D01*
X112452641Y-112743074D01*
X112450205Y-112812199D01*
X112459107Y-112879675D01*
X112466415Y-112906700D01*
X112488660Y-112956991D01*
X112520877Y-113004394D01*
X112559454Y-113044617D01*
X112600776Y-113073374D01*
X112610862Y-113078162D01*
X112670098Y-113096988D01*
X112725402Y-113100650D01*
X112762556Y-113094379D01*
X112820723Y-113070868D01*
X112871864Y-113034014D01*
X112914296Y-112985369D01*
X112946332Y-112926487D01*
X112947292Y-112924143D01*
X112962923Y-112885534D01*
X113802893Y-112884304D01*
X113912137Y-112884119D01*
X114033809Y-112883868D01*
X114166227Y-112883556D01*
X114307707Y-112883189D01*
X114456568Y-112882772D01*
X114611126Y-112882310D01*
X114769698Y-112881809D01*
X114930602Y-112881274D01*
X115092155Y-112880711D01*
X115252675Y-112880125D01*
X115410477Y-112879521D01*
X115563881Y-112878905D01*
X115711203Y-112878282D01*
X115785620Y-112877954D01*
X116928378Y-112872834D01*
X116963312Y-112801899D01*
X112836991Y-112801899D01*
X112830435Y-112844001D01*
X112813269Y-112882527D01*
X112785397Y-112914559D01*
X112767917Y-112926935D01*
X112727213Y-112942475D01*
X112686110Y-112941104D01*
X112651795Y-112927054D01*
X112623196Y-112902075D01*
X112599599Y-112865526D01*
X112584160Y-112822624D01*
X112581963Y-112811627D01*
X112582187Y-112772690D01*
X112593894Y-112732859D01*
X112615068Y-112696161D01*
X112643691Y-112666626D01*
X112659959Y-112655915D01*
X112695852Y-112642400D01*
X112729668Y-112643800D01*
X112759028Y-112656052D01*
X112793956Y-112683297D01*
X112818656Y-112718630D01*
X112833033Y-112759136D01*
X112836991Y-112801899D01*
X116963312Y-112801899D01*
X117109763Y-112504534D01*
X117291148Y-112136233D01*
X117595622Y-112136233D01*
X117595617Y-112052609D01*
X117595612Y-111968984D01*
X117403348Y-111975179D01*
G36*
X119788591Y-112047151D02*
X119790821Y-112131673D01*
X120094829Y-112136233D01*
X120456639Y-112876313D01*
X128678549Y-112877067D01*
X128696264Y-112913341D01*
X128721073Y-112953784D01*
X128754431Y-112994136D01*
X128791460Y-113029096D01*
X128822853Y-113050990D01*
X128842972Y-113061002D01*
X128862608Y-113067217D01*
X128886163Y-113070481D01*
X128918033Y-113071644D01*
X128930362Y-113071711D01*
X128964650Y-113071230D01*
X128989394Y-113069054D01*
X129009148Y-113064211D01*
X129028467Y-113055729D01*
X129043250Y-113047632D01*
X129086223Y-113015253D01*
X129126088Y-112970532D01*
X129159049Y-112918042D01*
X129169657Y-112895406D01*
X129178399Y-112872568D01*
X129183835Y-112851000D01*
X129186716Y-112825493D01*
X129187793Y-112790834D01*
X129187871Y-112773024D01*
X129055850Y-112773024D01*
X129049219Y-112821339D01*
X129030357Y-112863417D01*
X129000808Y-112896126D01*
X128992115Y-112902353D01*
X128959177Y-112915670D01*
X128921805Y-112918177D01*
X128885309Y-112910281D01*
X128854997Y-112892390D01*
X128854320Y-112891777D01*
X128827387Y-112858383D01*
X128809354Y-112817798D01*
X128802057Y-112774930D01*
X128802956Y-112754595D01*
X128815229Y-112706176D01*
X128837700Y-112667010D01*
X128868476Y-112639157D01*
X128905665Y-112624674D01*
X128923890Y-112623067D01*
X128969596Y-112629607D01*
X129006341Y-112648699D01*
X129033430Y-112679552D01*
X129050165Y-112721374D01*
X129055850Y-112773024D01*
X129187871Y-112773024D01*
X129187889Y-112768944D01*
X129187435Y-112728047D01*
X129185546Y-112698723D01*
X129181432Y-112675628D01*
X129174305Y-112653421D01*
X129168772Y-112639546D01*
X129138443Y-112583637D01*
X129097768Y-112534277D01*
X129050388Y-112495762D01*
X129043160Y-112491322D01*
X129021990Y-112479638D01*
X129003663Y-112472317D01*
X128983687Y-112468377D01*
X128957571Y-112466835D01*
X128930362Y-112466665D01*
X128893654Y-112467573D01*
X128866807Y-112470512D01*
X128845607Y-112476234D01*
X128826410Y-112485177D01*
X128771779Y-112523784D01*
X128727315Y-112574075D01*
X128693345Y-112635622D01*
X128678542Y-112676436D01*
X128663050Y-112727425D01*
X128119372Y-112721818D01*
X128077231Y-112721458D01*
X128021493Y-112721104D01*
X127952673Y-112720756D01*
X127871285Y-112720415D01*
X127777843Y-112720082D01*
X127672862Y-112719757D01*
X127556857Y-112719441D01*
X127430342Y-112719136D01*
X127293830Y-112718841D01*
X127147838Y-112718558D01*
X126992878Y-112718286D01*
X126829466Y-112718028D01*
X126658115Y-112717783D01*
X126479341Y-112717552D01*
X126293657Y-112717336D01*
X126101579Y-112717136D01*
X125903620Y-112716952D01*
X125700295Y-112716786D01*
X125492118Y-112716637D01*
X125279604Y-112716507D01*
X125063268Y-112716396D01*
X124843622Y-112716305D01*
X124621183Y-112716234D01*
X124396464Y-112716185D01*
X124169980Y-112716159D01*
X124054973Y-112716154D01*
X120534250Y-112716096D01*
X120351965Y-112344924D01*
X120169680Y-111973753D01*
X120042154Y-111968210D01*
X119995411Y-111966341D01*
X119948197Y-111964739D01*
X119904495Y-111963518D01*
X119868290Y-111962796D01*
X119850494Y-111962648D01*
X119786362Y-111962630D01*
X119788591Y-112047151D01*
X119788591Y-112047151D01*
G37*
X119788591Y-112047151D02*
X119790821Y-112131673D01*
X120094829Y-112136233D01*
X120456639Y-112876313D01*
X128678549Y-112877067D01*
X128696264Y-112913341D01*
X128721073Y-112953784D01*
X128754431Y-112994136D01*
X128791460Y-113029096D01*
X128822853Y-113050990D01*
X128842972Y-113061002D01*
X128862608Y-113067217D01*
X128886163Y-113070481D01*
X128918033Y-113071644D01*
X128930362Y-113071711D01*
X128964650Y-113071230D01*
X128989394Y-113069054D01*
X129009148Y-113064211D01*
X129028467Y-113055729D01*
X129043250Y-113047632D01*
X129086223Y-113015253D01*
X129126088Y-112970532D01*
X129159049Y-112918042D01*
X129169657Y-112895406D01*
X129178399Y-112872568D01*
X129183835Y-112851000D01*
X129186716Y-112825493D01*
X129187793Y-112790834D01*
X129187871Y-112773024D01*
X129055850Y-112773024D01*
X129049219Y-112821339D01*
X129030357Y-112863417D01*
X129000808Y-112896126D01*
X128992115Y-112902353D01*
X128959177Y-112915670D01*
X128921805Y-112918177D01*
X128885309Y-112910281D01*
X128854997Y-112892390D01*
X128854320Y-112891777D01*
X128827387Y-112858383D01*
X128809354Y-112817798D01*
X128802057Y-112774930D01*
X128802956Y-112754595D01*
X128815229Y-112706176D01*
X128837700Y-112667010D01*
X128868476Y-112639157D01*
X128905665Y-112624674D01*
X128923890Y-112623067D01*
X128969596Y-112629607D01*
X129006341Y-112648699D01*
X129033430Y-112679552D01*
X129050165Y-112721374D01*
X129055850Y-112773024D01*
X129187871Y-112773024D01*
X129187889Y-112768944D01*
X129187435Y-112728047D01*
X129185546Y-112698723D01*
X129181432Y-112675628D01*
X129174305Y-112653421D01*
X129168772Y-112639546D01*
X129138443Y-112583637D01*
X129097768Y-112534277D01*
X129050388Y-112495762D01*
X129043160Y-112491322D01*
X129021990Y-112479638D01*
X129003663Y-112472317D01*
X128983687Y-112468377D01*
X128957571Y-112466835D01*
X128930362Y-112466665D01*
X128893654Y-112467573D01*
X128866807Y-112470512D01*
X128845607Y-112476234D01*
X128826410Y-112485177D01*
X128771779Y-112523784D01*
X128727315Y-112574075D01*
X128693345Y-112635622D01*
X128678542Y-112676436D01*
X128663050Y-112727425D01*
X128119372Y-112721818D01*
X128077231Y-112721458D01*
X128021493Y-112721104D01*
X127952673Y-112720756D01*
X127871285Y-112720415D01*
X127777843Y-112720082D01*
X127672862Y-112719757D01*
X127556857Y-112719441D01*
X127430342Y-112719136D01*
X127293830Y-112718841D01*
X127147838Y-112718558D01*
X126992878Y-112718286D01*
X126829466Y-112718028D01*
X126658115Y-112717783D01*
X126479341Y-112717552D01*
X126293657Y-112717336D01*
X126101579Y-112717136D01*
X125903620Y-112716952D01*
X125700295Y-112716786D01*
X125492118Y-112716637D01*
X125279604Y-112716507D01*
X125063268Y-112716396D01*
X124843622Y-112716305D01*
X124621183Y-112716234D01*
X124396464Y-112716185D01*
X124169980Y-112716159D01*
X124054973Y-112716154D01*
X120534250Y-112716096D01*
X120351965Y-112344924D01*
X120169680Y-111973753D01*
X120042154Y-111968210D01*
X119995411Y-111966341D01*
X119948197Y-111964739D01*
X119904495Y-111963518D01*
X119868290Y-111962796D01*
X119850494Y-111962648D01*
X119786362Y-111962630D01*
X119788591Y-112047151D01*
G36*
X118738612Y-112644234D02*
X118742139Y-112648467D01*
X118745667Y-112644234D01*
X118742139Y-112640000D01*
X118738612Y-112644234D01*
X118738612Y-112644234D01*
G37*
X118738612Y-112644234D02*
X118742139Y-112648467D01*
X118745667Y-112644234D01*
X118742139Y-112640000D01*
X118738612Y-112644234D01*
G36*
X118598860Y-110309772D02*
X118597500Y-110362910D01*
X118306459Y-110362027D01*
X118243259Y-110361978D01*
X118184104Y-110362203D01*
X118130562Y-110362677D01*
X118084200Y-110363374D01*
X118046586Y-110364268D01*
X118019286Y-110365333D01*
X118003868Y-110366543D01*
X118001306Y-110367091D01*
X117946746Y-110394820D01*
X117903308Y-110428448D01*
X117868239Y-110470789D01*
X117838787Y-110524656D01*
X117832063Y-110540052D01*
X117807101Y-110599534D01*
X117759565Y-110601029D01*
X117712028Y-110602524D01*
X117810806Y-110612234D01*
X117810806Y-111958433D01*
X117772000Y-111963144D01*
X117733195Y-111967855D01*
X117772000Y-111971611D01*
X117810806Y-111975367D01*
X117811687Y-112073775D01*
X117812311Y-112117061D01*
X117813764Y-112148152D01*
X117816783Y-112171786D01*
X117822104Y-112192700D01*
X117830465Y-112215633D01*
X117835806Y-112228827D01*
X117867398Y-112288443D01*
X117908227Y-112335340D01*
X117958814Y-112370118D01*
X117958858Y-112370140D01*
X117997537Y-112390234D01*
X117999060Y-112453734D01*
X118000582Y-112517234D01*
X118003036Y-112454718D01*
X118005490Y-112392203D01*
X118057470Y-112397855D01*
X118072964Y-112398772D01*
X118101326Y-112399637D01*
X118141313Y-112400437D01*
X118191683Y-112401161D01*
X118251191Y-112401797D01*
X118318595Y-112402334D01*
X118392652Y-112402759D01*
X118472119Y-112403062D01*
X118555754Y-112403231D01*
X118635330Y-112403257D01*
X119161210Y-112403007D01*
X119163800Y-112447420D01*
X119166390Y-112491834D01*
X119169000Y-112402934D01*
X119216625Y-112402840D01*
X119245885Y-112401997D01*
X119273549Y-112399900D01*
X119290382Y-112397563D01*
X119316514Y-112392378D01*
X119318966Y-112454806D01*
X119321419Y-112517234D01*
X119322821Y-112456855D01*
X119324223Y-112396477D01*
X119357039Y-112386561D01*
X119391503Y-112373633D01*
X119420648Y-112355950D01*
X119449590Y-112329963D01*
X119468912Y-112308995D01*
X119503874Y-112260398D01*
X119528584Y-112204701D01*
X119543679Y-112139830D01*
X119549796Y-112063713D01*
X119550000Y-112045038D01*
X119550000Y-111963512D01*
X119590570Y-111960457D01*
X119631139Y-111957402D01*
X119590570Y-111955801D01*
X119550000Y-111954200D01*
X119549007Y-111516017D01*
X119409173Y-111516017D01*
X119409171Y-111633428D01*
X119409100Y-111736016D01*
X119408903Y-111824835D01*
X119408521Y-111900942D01*
X119407897Y-111965390D01*
X119406974Y-112019235D01*
X119405694Y-112063531D01*
X119403998Y-112099335D01*
X119401831Y-112127700D01*
X119399133Y-112149681D01*
X119395847Y-112166335D01*
X119391915Y-112178715D01*
X119387281Y-112187877D01*
X119381885Y-112194875D01*
X119375672Y-112200765D01*
X119368581Y-112206602D01*
X119363922Y-112210484D01*
X119358489Y-112214912D01*
X119352604Y-112218606D01*
X119344985Y-112221651D01*
X119334346Y-112224134D01*
X119319404Y-112226139D01*
X119298876Y-112227753D01*
X119271478Y-112229060D01*
X119235926Y-112230147D01*
X119190936Y-112231099D01*
X119135224Y-112232002D01*
X119067507Y-112232941D01*
X119017306Y-112233600D01*
X118922657Y-112234675D01*
X118827155Y-112235457D01*
X118731919Y-112235957D01*
X118638065Y-112236184D01*
X118546711Y-112236149D01*
X118458974Y-112235860D01*
X118375973Y-112235328D01*
X118298825Y-112234563D01*
X118228647Y-112233574D01*
X118166557Y-112232372D01*
X118113672Y-112230965D01*
X118071110Y-112229365D01*
X118039988Y-112227580D01*
X118021425Y-112225621D01*
X118017835Y-112224814D01*
X117995333Y-112212004D01*
X117973474Y-112190844D01*
X117970067Y-112186439D01*
X117948103Y-112156419D01*
X117950010Y-111379717D01*
X117950349Y-111247044D01*
X117950685Y-111130260D01*
X117951038Y-111028318D01*
X117951426Y-110940172D01*
X117951869Y-110864778D01*
X117952384Y-110801089D01*
X117952990Y-110748061D01*
X117953707Y-110704647D01*
X117954554Y-110669803D01*
X117955548Y-110642482D01*
X117956708Y-110621639D01*
X117958054Y-110606229D01*
X117959605Y-110595206D01*
X117961378Y-110587525D01*
X117963393Y-110582140D01*
X117964363Y-110580225D01*
X117979968Y-110558277D01*
X117995802Y-110542501D01*
X117999651Y-110539982D01*
X118004966Y-110537762D01*
X118012607Y-110535822D01*
X118023434Y-110534144D01*
X118038308Y-110532709D01*
X118058089Y-110531497D01*
X118083637Y-110530491D01*
X118115812Y-110529672D01*
X118155475Y-110529020D01*
X118203486Y-110528516D01*
X118260706Y-110528143D01*
X118327993Y-110527881D01*
X118406210Y-110527711D01*
X118496215Y-110527615D01*
X118598869Y-110527573D01*
X118678639Y-110527567D01*
X118792948Y-110527530D01*
X118893989Y-110527474D01*
X118982602Y-110527478D01*
X119059632Y-110527622D01*
X119125919Y-110527986D01*
X119182307Y-110528650D01*
X119229637Y-110529693D01*
X119268752Y-110531195D01*
X119300493Y-110533236D01*
X119325703Y-110535896D01*
X119345225Y-110539256D01*
X119359900Y-110543393D01*
X119370570Y-110548389D01*
X119378079Y-110554324D01*
X119383267Y-110561276D01*
X119386977Y-110569327D01*
X119390052Y-110578555D01*
X119393334Y-110589040D01*
X119395587Y-110595522D01*
X119397943Y-110602425D01*
X119400010Y-110610263D01*
X119401807Y-110620126D01*
X119403353Y-110633103D01*
X119404667Y-110650285D01*
X119405767Y-110672762D01*
X119406673Y-110701625D01*
X119407402Y-110737964D01*
X119407975Y-110782869D01*
X119408409Y-110837430D01*
X119408723Y-110902737D01*
X119408937Y-110979882D01*
X119409069Y-111069954D01*
X119409138Y-111174043D01*
X119409163Y-111293239D01*
X119409164Y-111382727D01*
X119409173Y-111516017D01*
X119549007Y-111516017D01*
X119548526Y-111304384D01*
X119548279Y-111200238D01*
X119548022Y-111100477D01*
X119547759Y-111006476D01*
X119547496Y-110919610D01*
X119547237Y-110841254D01*
X119546987Y-110772782D01*
X119546750Y-110715570D01*
X119546532Y-110670992D01*
X119546337Y-110640424D01*
X119546171Y-110625240D01*
X119546152Y-110624485D01*
X119540705Y-110590092D01*
X119527619Y-110549324D01*
X119509147Y-110507878D01*
X119487542Y-110471457D01*
X119483411Y-110465763D01*
X119456699Y-110435287D01*
X119425619Y-110407442D01*
X119394675Y-110385852D01*
X119370084Y-110374596D01*
X119353392Y-110369232D01*
X119343543Y-110364969D01*
X119335649Y-110364282D01*
X119314981Y-110363661D01*
X119282875Y-110363116D01*
X119240667Y-110362657D01*
X119189693Y-110362297D01*
X119131291Y-110362045D01*
X119066796Y-110361912D01*
X118997545Y-110361909D01*
X118971700Y-110361943D01*
X118605231Y-110362540D01*
X118600219Y-110256634D01*
X118598860Y-110309772D01*
X118598860Y-110309772D01*
G37*
X118598860Y-110309772D02*
X118597500Y-110362910D01*
X118306459Y-110362027D01*
X118243259Y-110361978D01*
X118184104Y-110362203D01*
X118130562Y-110362677D01*
X118084200Y-110363374D01*
X118046586Y-110364268D01*
X118019286Y-110365333D01*
X118003868Y-110366543D01*
X118001306Y-110367091D01*
X117946746Y-110394820D01*
X117903308Y-110428448D01*
X117868239Y-110470789D01*
X117838787Y-110524656D01*
X117832063Y-110540052D01*
X117807101Y-110599534D01*
X117759565Y-110601029D01*
X117712028Y-110602524D01*
X117810806Y-110612234D01*
X117810806Y-111958433D01*
X117772000Y-111963144D01*
X117733195Y-111967855D01*
X117772000Y-111971611D01*
X117810806Y-111975367D01*
X117811687Y-112073775D01*
X117812311Y-112117061D01*
X117813764Y-112148152D01*
X117816783Y-112171786D01*
X117822104Y-112192700D01*
X117830465Y-112215633D01*
X117835806Y-112228827D01*
X117867398Y-112288443D01*
X117908227Y-112335340D01*
X117958814Y-112370118D01*
X117958858Y-112370140D01*
X117997537Y-112390234D01*
X117999060Y-112453734D01*
X118000582Y-112517234D01*
X118003036Y-112454718D01*
X118005490Y-112392203D01*
X118057470Y-112397855D01*
X118072964Y-112398772D01*
X118101326Y-112399637D01*
X118141313Y-112400437D01*
X118191683Y-112401161D01*
X118251191Y-112401797D01*
X118318595Y-112402334D01*
X118392652Y-112402759D01*
X118472119Y-112403062D01*
X118555754Y-112403231D01*
X118635330Y-112403257D01*
X119161210Y-112403007D01*
X119163800Y-112447420D01*
X119166390Y-112491834D01*
X119169000Y-112402934D01*
X119216625Y-112402840D01*
X119245885Y-112401997D01*
X119273549Y-112399900D01*
X119290382Y-112397563D01*
X119316514Y-112392378D01*
X119318966Y-112454806D01*
X119321419Y-112517234D01*
X119322821Y-112456855D01*
X119324223Y-112396477D01*
X119357039Y-112386561D01*
X119391503Y-112373633D01*
X119420648Y-112355950D01*
X119449590Y-112329963D01*
X119468912Y-112308995D01*
X119503874Y-112260398D01*
X119528584Y-112204701D01*
X119543679Y-112139830D01*
X119549796Y-112063713D01*
X119550000Y-112045038D01*
X119550000Y-111963512D01*
X119590570Y-111960457D01*
X119631139Y-111957402D01*
X119590570Y-111955801D01*
X119550000Y-111954200D01*
X119549007Y-111516017D01*
X119409173Y-111516017D01*
X119409171Y-111633428D01*
X119409100Y-111736016D01*
X119408903Y-111824835D01*
X119408521Y-111900942D01*
X119407897Y-111965390D01*
X119406974Y-112019235D01*
X119405694Y-112063531D01*
X119403998Y-112099335D01*
X119401831Y-112127700D01*
X119399133Y-112149681D01*
X119395847Y-112166335D01*
X119391915Y-112178715D01*
X119387281Y-112187877D01*
X119381885Y-112194875D01*
X119375672Y-112200765D01*
X119368581Y-112206602D01*
X119363922Y-112210484D01*
X119358489Y-112214912D01*
X119352604Y-112218606D01*
X119344985Y-112221651D01*
X119334346Y-112224134D01*
X119319404Y-112226139D01*
X119298876Y-112227753D01*
X119271478Y-112229060D01*
X119235926Y-112230147D01*
X119190936Y-112231099D01*
X119135224Y-112232002D01*
X119067507Y-112232941D01*
X119017306Y-112233600D01*
X118922657Y-112234675D01*
X118827155Y-112235457D01*
X118731919Y-112235957D01*
X118638065Y-112236184D01*
X118546711Y-112236149D01*
X118458974Y-112235860D01*
X118375973Y-112235328D01*
X118298825Y-112234563D01*
X118228647Y-112233574D01*
X118166557Y-112232372D01*
X118113672Y-112230965D01*
X118071110Y-112229365D01*
X118039988Y-112227580D01*
X118021425Y-112225621D01*
X118017835Y-112224814D01*
X117995333Y-112212004D01*
X117973474Y-112190844D01*
X117970067Y-112186439D01*
X117948103Y-112156419D01*
X117950010Y-111379717D01*
X117950349Y-111247044D01*
X117950685Y-111130260D01*
X117951038Y-111028318D01*
X117951426Y-110940172D01*
X117951869Y-110864778D01*
X117952384Y-110801089D01*
X117952990Y-110748061D01*
X117953707Y-110704647D01*
X117954554Y-110669803D01*
X117955548Y-110642482D01*
X117956708Y-110621639D01*
X117958054Y-110606229D01*
X117959605Y-110595206D01*
X117961378Y-110587525D01*
X117963393Y-110582140D01*
X117964363Y-110580225D01*
X117979968Y-110558277D01*
X117995802Y-110542501D01*
X117999651Y-110539982D01*
X118004966Y-110537762D01*
X118012607Y-110535822D01*
X118023434Y-110534144D01*
X118038308Y-110532709D01*
X118058089Y-110531497D01*
X118083637Y-110530491D01*
X118115812Y-110529672D01*
X118155475Y-110529020D01*
X118203486Y-110528516D01*
X118260706Y-110528143D01*
X118327993Y-110527881D01*
X118406210Y-110527711D01*
X118496215Y-110527615D01*
X118598869Y-110527573D01*
X118678639Y-110527567D01*
X118792948Y-110527530D01*
X118893989Y-110527474D01*
X118982602Y-110527478D01*
X119059632Y-110527622D01*
X119125919Y-110527986D01*
X119182307Y-110528650D01*
X119229637Y-110529693D01*
X119268752Y-110531195D01*
X119300493Y-110533236D01*
X119325703Y-110535896D01*
X119345225Y-110539256D01*
X119359900Y-110543393D01*
X119370570Y-110548389D01*
X119378079Y-110554324D01*
X119383267Y-110561276D01*
X119386977Y-110569327D01*
X119390052Y-110578555D01*
X119393334Y-110589040D01*
X119395587Y-110595522D01*
X119397943Y-110602425D01*
X119400010Y-110610263D01*
X119401807Y-110620126D01*
X119403353Y-110633103D01*
X119404667Y-110650285D01*
X119405767Y-110672762D01*
X119406673Y-110701625D01*
X119407402Y-110737964D01*
X119407975Y-110782869D01*
X119408409Y-110837430D01*
X119408723Y-110902737D01*
X119408937Y-110979882D01*
X119409069Y-111069954D01*
X119409138Y-111174043D01*
X119409163Y-111293239D01*
X119409164Y-111382727D01*
X119409173Y-111516017D01*
X119549007Y-111516017D01*
X119548526Y-111304384D01*
X119548279Y-111200238D01*
X119548022Y-111100477D01*
X119547759Y-111006476D01*
X119547496Y-110919610D01*
X119547237Y-110841254D01*
X119546987Y-110772782D01*
X119546750Y-110715570D01*
X119546532Y-110670992D01*
X119546337Y-110640424D01*
X119546171Y-110625240D01*
X119546152Y-110624485D01*
X119540705Y-110590092D01*
X119527619Y-110549324D01*
X119509147Y-110507878D01*
X119487542Y-110471457D01*
X119483411Y-110465763D01*
X119456699Y-110435287D01*
X119425619Y-110407442D01*
X119394675Y-110385852D01*
X119370084Y-110374596D01*
X119353392Y-110369232D01*
X119343543Y-110364969D01*
X119335649Y-110364282D01*
X119314981Y-110363661D01*
X119282875Y-110363116D01*
X119240667Y-110362657D01*
X119189693Y-110362297D01*
X119131291Y-110362045D01*
X119066796Y-110361912D01*
X118997545Y-110361909D01*
X118971700Y-110361943D01*
X118605231Y-110362540D01*
X118600219Y-110256634D01*
X118598860Y-110309772D01*
G36*
X128555234Y-110726559D02*
X128480241Y-110726710D01*
X128416891Y-110727096D01*
X128363948Y-110727826D01*
X128320179Y-110729011D01*
X128284350Y-110730760D01*
X128255225Y-110733183D01*
X128231570Y-110736390D01*
X128212152Y-110740491D01*
X128195735Y-110745595D01*
X128181086Y-110751812D01*
X128166970Y-110759253D01*
X128152152Y-110768027D01*
X128147957Y-110770586D01*
X128113241Y-110797964D01*
X128078578Y-110835776D01*
X128048575Y-110878432D01*
X128030865Y-110912663D01*
X128011248Y-110959367D01*
X128008512Y-111245054D01*
X128005777Y-111530741D01*
X128446903Y-111532921D01*
X128888028Y-111535100D01*
X128888028Y-111687500D01*
X128101334Y-111691876D01*
X128101334Y-112030400D01*
X128360625Y-112028673D01*
X128430519Y-112028102D01*
X128505310Y-112027307D01*
X128581514Y-112026335D01*
X128655646Y-112025238D01*
X128724221Y-112024065D01*
X128783755Y-112022864D01*
X128806889Y-112022323D01*
X128993862Y-112017700D01*
X129040715Y-111990193D01*
X129089292Y-111955697D01*
X129131408Y-111914032D01*
X129163965Y-111868502D01*
X129174917Y-111847083D01*
X129193164Y-111806033D01*
X129197152Y-111450433D01*
X129198237Y-111340074D01*
X129198792Y-111245251D01*
X129198758Y-111164577D01*
X129198702Y-111158941D01*
X128892061Y-111158941D01*
X128891009Y-111168780D01*
X128886989Y-111176474D01*
X128878755Y-111182286D01*
X128865062Y-111186476D01*
X128844666Y-111189306D01*
X128816322Y-111191037D01*
X128778785Y-111191930D01*
X128730810Y-111192248D01*
X128671153Y-111192251D01*
X128602500Y-111192200D01*
X128320056Y-111192200D01*
X128320056Y-111090408D01*
X128888028Y-111094834D01*
X128890237Y-111131785D01*
X128891389Y-111146697D01*
X128892061Y-111158941D01*
X129198702Y-111158941D01*
X129198073Y-111096664D01*
X129196679Y-111040124D01*
X129194515Y-110993569D01*
X129191522Y-110955612D01*
X129187639Y-110924866D01*
X129182806Y-110899942D01*
X129176965Y-110879453D01*
X129171915Y-110866234D01*
X129142533Y-110813461D01*
X129103419Y-110771560D01*
X129070448Y-110748287D01*
X129034146Y-110726534D01*
X128643104Y-110726534D01*
X128555234Y-110726559D01*
X128555234Y-110726559D01*
G37*
X128555234Y-110726559D02*
X128480241Y-110726710D01*
X128416891Y-110727096D01*
X128363948Y-110727826D01*
X128320179Y-110729011D01*
X128284350Y-110730760D01*
X128255225Y-110733183D01*
X128231570Y-110736390D01*
X128212152Y-110740491D01*
X128195735Y-110745595D01*
X128181086Y-110751812D01*
X128166970Y-110759253D01*
X128152152Y-110768027D01*
X128147957Y-110770586D01*
X128113241Y-110797964D01*
X128078578Y-110835776D01*
X128048575Y-110878432D01*
X128030865Y-110912663D01*
X128011248Y-110959367D01*
X128008512Y-111245054D01*
X128005777Y-111530741D01*
X128446903Y-111532921D01*
X128888028Y-111535100D01*
X128888028Y-111687500D01*
X128101334Y-111691876D01*
X128101334Y-112030400D01*
X128360625Y-112028673D01*
X128430519Y-112028102D01*
X128505310Y-112027307D01*
X128581514Y-112026335D01*
X128655646Y-112025238D01*
X128724221Y-112024065D01*
X128783755Y-112022864D01*
X128806889Y-112022323D01*
X128993862Y-112017700D01*
X129040715Y-111990193D01*
X129089292Y-111955697D01*
X129131408Y-111914032D01*
X129163965Y-111868502D01*
X129174917Y-111847083D01*
X129193164Y-111806033D01*
X129197152Y-111450433D01*
X129198237Y-111340074D01*
X129198792Y-111245251D01*
X129198758Y-111164577D01*
X129198702Y-111158941D01*
X128892061Y-111158941D01*
X128891009Y-111168780D01*
X128886989Y-111176474D01*
X128878755Y-111182286D01*
X128865062Y-111186476D01*
X128844666Y-111189306D01*
X128816322Y-111191037D01*
X128778785Y-111191930D01*
X128730810Y-111192248D01*
X128671153Y-111192251D01*
X128602500Y-111192200D01*
X128320056Y-111192200D01*
X128320056Y-111090408D01*
X128888028Y-111094834D01*
X128890237Y-111131785D01*
X128891389Y-111146697D01*
X128892061Y-111158941D01*
X129198702Y-111158941D01*
X129198073Y-111096664D01*
X129196679Y-111040124D01*
X129194515Y-110993569D01*
X129191522Y-110955612D01*
X129187639Y-110924866D01*
X129182806Y-110899942D01*
X129176965Y-110879453D01*
X129171915Y-110866234D01*
X129142533Y-110813461D01*
X129103419Y-110771560D01*
X129070448Y-110748287D01*
X129034146Y-110726534D01*
X128643104Y-110726534D01*
X128555234Y-110726559D01*
G36*
X126944223Y-112030400D02*
X127254667Y-112030400D01*
X127254667Y-110447134D01*
X126944223Y-110447134D01*
X126944223Y-112030400D01*
X126944223Y-112030400D01*
G37*
X126944223Y-112030400D02*
X127254667Y-112030400D01*
X127254667Y-110447134D01*
X126944223Y-110447134D01*
X126944223Y-112030400D01*
G36*
X125352496Y-110728361D02*
X125292540Y-110729253D01*
X125246040Y-110730597D01*
X125212832Y-110732396D01*
X125192753Y-110734651D01*
X125189842Y-110735268D01*
X125133816Y-110756821D01*
X125082061Y-110791321D01*
X125037191Y-110836346D01*
X125001822Y-110889474D01*
X124986464Y-110923654D01*
X124981970Y-110936232D01*
X124978351Y-110948660D01*
X124975488Y-110962910D01*
X124973264Y-110980956D01*
X124971563Y-111004772D01*
X124970265Y-111036331D01*
X124969254Y-111077608D01*
X124968412Y-111130575D01*
X124967621Y-111197206D01*
X124967074Y-111249287D01*
X124964180Y-111530741D01*
X125405632Y-111532920D01*
X125847084Y-111535100D01*
X125847084Y-111687500D01*
X125453737Y-111689688D01*
X125060389Y-111691876D01*
X125060389Y-112030400D01*
X125319681Y-112028727D01*
X125389574Y-112028168D01*
X125464365Y-112027379D01*
X125540569Y-112026411D01*
X125614701Y-112025313D01*
X125683277Y-112024134D01*
X125742810Y-112022924D01*
X125765945Y-112022377D01*
X125952917Y-112017700D01*
X126000602Y-111990595D01*
X126045273Y-111959445D01*
X126085508Y-111920480D01*
X126118152Y-111877258D01*
X126140052Y-111833337D01*
X126140088Y-111833235D01*
X126146753Y-111809755D01*
X126152261Y-111779016D01*
X126156656Y-111739839D01*
X126159980Y-111691046D01*
X126162276Y-111631457D01*
X126163587Y-111559894D01*
X126163955Y-111475179D01*
X126163425Y-111376131D01*
X126162037Y-111261573D01*
X126161693Y-111238767D01*
X126160415Y-111158941D01*
X125851117Y-111158941D01*
X125850065Y-111168780D01*
X125846044Y-111176474D01*
X125837810Y-111182286D01*
X125824117Y-111186476D01*
X125803721Y-111189306D01*
X125775377Y-111191037D01*
X125737840Y-111191930D01*
X125689866Y-111192248D01*
X125630209Y-111192251D01*
X125561555Y-111192200D01*
X125279112Y-111192200D01*
X125279112Y-111090408D01*
X125847084Y-111094834D01*
X125849293Y-111131785D01*
X125850444Y-111146697D01*
X125851117Y-111158941D01*
X126160415Y-111158941D01*
X126160385Y-111157078D01*
X126159180Y-111090503D01*
X126157976Y-111037221D01*
X126156673Y-110995415D01*
X126155168Y-110963266D01*
X126153362Y-110938956D01*
X126151153Y-110920665D01*
X126148440Y-110906575D01*
X126145122Y-110894868D01*
X126142103Y-110886364D01*
X126115728Y-110834217D01*
X126079601Y-110788069D01*
X126038032Y-110753392D01*
X126002306Y-110730767D01*
X125614724Y-110728371D01*
X125513425Y-110727923D01*
X125426070Y-110727919D01*
X125352496Y-110728361D01*
X125352496Y-110728361D01*
G37*
X125352496Y-110728361D02*
X125292540Y-110729253D01*
X125246040Y-110730597D01*
X125212832Y-110732396D01*
X125192753Y-110734651D01*
X125189842Y-110735268D01*
X125133816Y-110756821D01*
X125082061Y-110791321D01*
X125037191Y-110836346D01*
X125001822Y-110889474D01*
X124986464Y-110923654D01*
X124981970Y-110936232D01*
X124978351Y-110948660D01*
X124975488Y-110962910D01*
X124973264Y-110980956D01*
X124971563Y-111004772D01*
X124970265Y-111036331D01*
X124969254Y-111077608D01*
X124968412Y-111130575D01*
X124967621Y-111197206D01*
X124967074Y-111249287D01*
X124964180Y-111530741D01*
X125405632Y-111532920D01*
X125847084Y-111535100D01*
X125847084Y-111687500D01*
X125453737Y-111689688D01*
X125060389Y-111691876D01*
X125060389Y-112030400D01*
X125319681Y-112028727D01*
X125389574Y-112028168D01*
X125464365Y-112027379D01*
X125540569Y-112026411D01*
X125614701Y-112025313D01*
X125683277Y-112024134D01*
X125742810Y-112022924D01*
X125765945Y-112022377D01*
X125952917Y-112017700D01*
X126000602Y-111990595D01*
X126045273Y-111959445D01*
X126085508Y-111920480D01*
X126118152Y-111877258D01*
X126140052Y-111833337D01*
X126140088Y-111833235D01*
X126146753Y-111809755D01*
X126152261Y-111779016D01*
X126156656Y-111739839D01*
X126159980Y-111691046D01*
X126162276Y-111631457D01*
X126163587Y-111559894D01*
X126163955Y-111475179D01*
X126163425Y-111376131D01*
X126162037Y-111261573D01*
X126161693Y-111238767D01*
X126160415Y-111158941D01*
X125851117Y-111158941D01*
X125850065Y-111168780D01*
X125846044Y-111176474D01*
X125837810Y-111182286D01*
X125824117Y-111186476D01*
X125803721Y-111189306D01*
X125775377Y-111191037D01*
X125737840Y-111191930D01*
X125689866Y-111192248D01*
X125630209Y-111192251D01*
X125561555Y-111192200D01*
X125279112Y-111192200D01*
X125279112Y-111090408D01*
X125847084Y-111094834D01*
X125849293Y-111131785D01*
X125850444Y-111146697D01*
X125851117Y-111158941D01*
X126160415Y-111158941D01*
X126160385Y-111157078D01*
X126159180Y-111090503D01*
X126157976Y-111037221D01*
X126156673Y-110995415D01*
X126155168Y-110963266D01*
X126153362Y-110938956D01*
X126151153Y-110920665D01*
X126148440Y-110906575D01*
X126145122Y-110894868D01*
X126142103Y-110886364D01*
X126115728Y-110834217D01*
X126079601Y-110788069D01*
X126038032Y-110753392D01*
X126002306Y-110730767D01*
X125614724Y-110728371D01*
X125513425Y-110727923D01*
X125426070Y-110727919D01*
X125352496Y-110728361D01*
G36*
X123091889Y-111090458D02*
X123485237Y-111092646D01*
X123878584Y-111094834D01*
X123878584Y-111687500D01*
X123439375Y-111689681D01*
X123000167Y-111691862D01*
X123000167Y-112030400D01*
X123287681Y-112028696D01*
X123360946Y-112028165D01*
X123439136Y-112027428D01*
X123518972Y-112026527D01*
X123597174Y-112025504D01*
X123670464Y-112024402D01*
X123735563Y-112023262D01*
X123779806Y-112022346D01*
X123984417Y-112017700D01*
X124032102Y-111990595D01*
X124076831Y-111959391D01*
X124117130Y-111920331D01*
X124149834Y-111876985D01*
X124171697Y-111833142D01*
X124178710Y-111808635D01*
X124184479Y-111776790D01*
X124189051Y-111736419D01*
X124192468Y-111686334D01*
X124194776Y-111625344D01*
X124196019Y-111552262D01*
X124196240Y-111465900D01*
X124195485Y-111365067D01*
X124193797Y-111248577D01*
X124193701Y-111243000D01*
X124192228Y-111160654D01*
X124190886Y-111093436D01*
X124189573Y-111039543D01*
X124188186Y-110997172D01*
X124186623Y-110964520D01*
X124184783Y-110939784D01*
X124182564Y-110921161D01*
X124179863Y-110906847D01*
X124176579Y-110895041D01*
X124173528Y-110886364D01*
X124147251Y-110834273D01*
X124111156Y-110788125D01*
X124069532Y-110753392D01*
X124033806Y-110730767D01*
X123562848Y-110728419D01*
X123091889Y-110726072D01*
X123091889Y-111090458D01*
X123091889Y-111090458D01*
G37*
X123091889Y-111090458D02*
X123485237Y-111092646D01*
X123878584Y-111094834D01*
X123878584Y-111687500D01*
X123439375Y-111689681D01*
X123000167Y-111691862D01*
X123000167Y-112030400D01*
X123287681Y-112028696D01*
X123360946Y-112028165D01*
X123439136Y-112027428D01*
X123518972Y-112026527D01*
X123597174Y-112025504D01*
X123670464Y-112024402D01*
X123735563Y-112023262D01*
X123779806Y-112022346D01*
X123984417Y-112017700D01*
X124032102Y-111990595D01*
X124076831Y-111959391D01*
X124117130Y-111920331D01*
X124149834Y-111876985D01*
X124171697Y-111833142D01*
X124178710Y-111808635D01*
X124184479Y-111776790D01*
X124189051Y-111736419D01*
X124192468Y-111686334D01*
X124194776Y-111625344D01*
X124196019Y-111552262D01*
X124196240Y-111465900D01*
X124195485Y-111365067D01*
X124193797Y-111248577D01*
X124193701Y-111243000D01*
X124192228Y-111160654D01*
X124190886Y-111093436D01*
X124189573Y-111039543D01*
X124188186Y-110997172D01*
X124186623Y-110964520D01*
X124184783Y-110939784D01*
X124182564Y-110921161D01*
X124179863Y-110906847D01*
X124176579Y-110895041D01*
X124173528Y-110886364D01*
X124147251Y-110834273D01*
X124111156Y-110788125D01*
X124069532Y-110753392D01*
X124033806Y-110730767D01*
X123562848Y-110728419D01*
X123091889Y-110726072D01*
X123091889Y-111090458D01*
G36*
X121966528Y-110722300D02*
X121812369Y-110724584D01*
X121761655Y-110725451D01*
X121723419Y-110726459D01*
X121696029Y-110727777D01*
X121677853Y-110729575D01*
X121667256Y-110732021D01*
X121662607Y-110735284D01*
X121662273Y-110739533D01*
X121662438Y-110740093D01*
X121663757Y-110752396D01*
X121664907Y-110778766D01*
X121665822Y-110816337D01*
X121666431Y-110862243D01*
X121666666Y-110913618D01*
X121666667Y-110916719D01*
X121666667Y-111080120D01*
X121816598Y-111087477D01*
X121966528Y-111094834D01*
X121966528Y-111687500D01*
X121816598Y-111689785D01*
X121666667Y-111692070D01*
X121666667Y-112030400D01*
X121806014Y-112028848D01*
X121857440Y-112028059D01*
X121911959Y-112026852D01*
X121964991Y-112025354D01*
X122011954Y-112023690D01*
X122040612Y-112022401D01*
X122081827Y-112019865D01*
X122111889Y-112016799D01*
X122133753Y-112012650D01*
X122150377Y-112006864D01*
X122164084Y-111999300D01*
X122207209Y-111962567D01*
X122241164Y-111915004D01*
X122256209Y-111882233D01*
X122272040Y-111839900D01*
X122281784Y-110447134D01*
X121970406Y-110447134D01*
X121966528Y-110722300D01*
X121966528Y-110722300D01*
G37*
X121966528Y-110722300D02*
X121812369Y-110724584D01*
X121761655Y-110725451D01*
X121723419Y-110726459D01*
X121696029Y-110727777D01*
X121677853Y-110729575D01*
X121667256Y-110732021D01*
X121662607Y-110735284D01*
X121662273Y-110739533D01*
X121662438Y-110740093D01*
X121663757Y-110752396D01*
X121664907Y-110778766D01*
X121665822Y-110816337D01*
X121666431Y-110862243D01*
X121666666Y-110913618D01*
X121666667Y-110916719D01*
X121666667Y-111080120D01*
X121816598Y-111087477D01*
X121966528Y-111094834D01*
X121966528Y-111687500D01*
X121816598Y-111689785D01*
X121666667Y-111692070D01*
X121666667Y-112030400D01*
X121806014Y-112028848D01*
X121857440Y-112028059D01*
X121911959Y-112026852D01*
X121964991Y-112025354D01*
X122011954Y-112023690D01*
X122040612Y-112022401D01*
X122081827Y-112019865D01*
X122111889Y-112016799D01*
X122133753Y-112012650D01*
X122150377Y-112006864D01*
X122164084Y-111999300D01*
X122207209Y-111962567D01*
X122241164Y-111915004D01*
X122256209Y-111882233D01*
X122272040Y-111839900D01*
X122281784Y-110447134D01*
X121970406Y-110447134D01*
X121966528Y-110722300D01*
G36*
X120310654Y-110901310D02*
X120311367Y-110953974D01*
X120312113Y-111000499D01*
X120312842Y-111038373D01*
X120313504Y-111065081D01*
X120314050Y-111078113D01*
X120314182Y-111078978D01*
X120321303Y-111079678D01*
X120340492Y-111080810D01*
X120369713Y-111082276D01*
X120406932Y-111083974D01*
X120450112Y-111085806D01*
X120470750Y-111086640D01*
X120529001Y-111089388D01*
X120574550Y-111092477D01*
X120607018Y-111095870D01*
X120626027Y-111099529D01*
X120631156Y-111102291D01*
X120632140Y-111112333D01*
X120633067Y-111137718D01*
X120633918Y-111176858D01*
X120634677Y-111228163D01*
X120635323Y-111290045D01*
X120635841Y-111360913D01*
X120636210Y-111439178D01*
X120636414Y-111523252D01*
X120636448Y-111566850D01*
X120636556Y-112021933D01*
X120681309Y-112021933D01*
X120707124Y-112022235D01*
X120741977Y-112023050D01*
X120780805Y-112024246D01*
X120810073Y-112025335D01*
X120845941Y-112026368D01*
X120879207Y-112026577D01*
X120905863Y-112025981D01*
X120920542Y-112024824D01*
X120947000Y-112020911D01*
X120947000Y-110726534D01*
X120636556Y-110726534D01*
X120636448Y-110745584D01*
X120633440Y-110766819D01*
X120629638Y-110777334D01*
X120623455Y-110784861D01*
X120614540Y-110782792D01*
X120603288Y-110774755D01*
X120582024Y-110759012D01*
X120562875Y-110747514D01*
X120542927Y-110739513D01*
X120519260Y-110734264D01*
X120488960Y-110731019D01*
X120449108Y-110729032D01*
X120421362Y-110728186D01*
X120308473Y-110725130D01*
X120310654Y-110901310D01*
X120310654Y-110901310D01*
G37*
X120310654Y-110901310D02*
X120311367Y-110953974D01*
X120312113Y-111000499D01*
X120312842Y-111038373D01*
X120313504Y-111065081D01*
X120314050Y-111078113D01*
X120314182Y-111078978D01*
X120321303Y-111079678D01*
X120340492Y-111080810D01*
X120369713Y-111082276D01*
X120406932Y-111083974D01*
X120450112Y-111085806D01*
X120470750Y-111086640D01*
X120529001Y-111089388D01*
X120574550Y-111092477D01*
X120607018Y-111095870D01*
X120626027Y-111099529D01*
X120631156Y-111102291D01*
X120632140Y-111112333D01*
X120633067Y-111137718D01*
X120633918Y-111176858D01*
X120634677Y-111228163D01*
X120635323Y-111290045D01*
X120635841Y-111360913D01*
X120636210Y-111439178D01*
X120636414Y-111523252D01*
X120636448Y-111566850D01*
X120636556Y-112021933D01*
X120681309Y-112021933D01*
X120707124Y-112022235D01*
X120741977Y-112023050D01*
X120780805Y-112024246D01*
X120810073Y-112025335D01*
X120845941Y-112026368D01*
X120879207Y-112026577D01*
X120905863Y-112025981D01*
X120920542Y-112024824D01*
X120947000Y-112020911D01*
X120947000Y-110726534D01*
X120636556Y-110726534D01*
X120636448Y-110745584D01*
X120633440Y-110766819D01*
X120629638Y-110777334D01*
X120623455Y-110784861D01*
X120614540Y-110782792D01*
X120603288Y-110774755D01*
X120582024Y-110759012D01*
X120562875Y-110747514D01*
X120542927Y-110739513D01*
X120519260Y-110734264D01*
X120488960Y-110731019D01*
X120449108Y-110729032D01*
X120421362Y-110728186D01*
X120308473Y-110725130D01*
X120310654Y-110901310D01*
G36*
X116454375Y-110728292D02*
X115934028Y-110730767D01*
X115892981Y-110754953D01*
X115851906Y-110787780D01*
X115819465Y-110833114D01*
X115795094Y-110891808D01*
X115789422Y-110911575D01*
X115786543Y-110923140D01*
X115784083Y-110935157D01*
X115782009Y-110948990D01*
X115780288Y-110966001D01*
X115778888Y-110987552D01*
X115777776Y-111015007D01*
X115776918Y-111049728D01*
X115776282Y-111093078D01*
X115775835Y-111146419D01*
X115775544Y-111211114D01*
X115775376Y-111288526D01*
X115775298Y-111380017D01*
X115775278Y-111486950D01*
X115775278Y-112030400D01*
X116085723Y-112030400D01*
X116085723Y-111090410D01*
X116373237Y-111092622D01*
X116660750Y-111094834D01*
X116664398Y-112030400D01*
X116974723Y-112030400D01*
X116974723Y-110725818D01*
X116454375Y-110728292D01*
X116454375Y-110728292D01*
G37*
X116454375Y-110728292D02*
X115934028Y-110730767D01*
X115892981Y-110754953D01*
X115851906Y-110787780D01*
X115819465Y-110833114D01*
X115795094Y-110891808D01*
X115789422Y-110911575D01*
X115786543Y-110923140D01*
X115784083Y-110935157D01*
X115782009Y-110948990D01*
X115780288Y-110966001D01*
X115778888Y-110987552D01*
X115777776Y-111015007D01*
X115776918Y-111049728D01*
X115776282Y-111093078D01*
X115775835Y-111146419D01*
X115775544Y-111211114D01*
X115775376Y-111288526D01*
X115775298Y-111380017D01*
X115775278Y-111486950D01*
X115775278Y-112030400D01*
X116085723Y-112030400D01*
X116085723Y-111090410D01*
X116373237Y-111092622D01*
X116660750Y-111094834D01*
X116664398Y-112030400D01*
X116974723Y-112030400D01*
X116974723Y-110725818D01*
X116454375Y-110728292D01*
G36*
X114745071Y-111181617D02*
X114744975Y-111268365D01*
X114744735Y-111350397D01*
X114744367Y-111426079D01*
X114743884Y-111493778D01*
X114743302Y-111551859D01*
X114742636Y-111598690D01*
X114741901Y-111632637D01*
X114741113Y-111652066D01*
X114740720Y-111655750D01*
X114736466Y-111674800D01*
X114173667Y-111674800D01*
X114173667Y-110726534D01*
X113863223Y-110726534D01*
X113863223Y-112030400D01*
X114172894Y-112030400D01*
X114175044Y-111992780D01*
X114177195Y-111955160D01*
X114219528Y-111986430D01*
X114261862Y-112017700D01*
X114574744Y-112020229D01*
X114655298Y-112020833D01*
X114723053Y-112021106D01*
X114779323Y-112020850D01*
X114825420Y-112019871D01*
X114862658Y-112017973D01*
X114892348Y-112014961D01*
X114915804Y-112010640D01*
X114934337Y-112004815D01*
X114949262Y-111997290D01*
X114961889Y-111987870D01*
X114973533Y-111976359D01*
X114985506Y-111962563D01*
X114988790Y-111958632D01*
X115007053Y-111934875D01*
X115021479Y-111910823D01*
X115032568Y-111884050D01*
X115040821Y-111852128D01*
X115046739Y-111812632D01*
X115050824Y-111763134D01*
X115053575Y-111701208D01*
X115055246Y-111636700D01*
X115056058Y-111585772D01*
X115056692Y-111521062D01*
X115057137Y-111445720D01*
X115057386Y-111362896D01*
X115057430Y-111275741D01*
X115057260Y-111187405D01*
X115056866Y-111101037D01*
X115056788Y-111088484D01*
X115054436Y-110726534D01*
X114745167Y-110726534D01*
X114745071Y-111181617D01*
X114745071Y-111181617D01*
G37*
X114745071Y-111181617D02*
X114744975Y-111268365D01*
X114744735Y-111350397D01*
X114744367Y-111426079D01*
X114743884Y-111493778D01*
X114743302Y-111551859D01*
X114742636Y-111598690D01*
X114741901Y-111632637D01*
X114741113Y-111652066D01*
X114740720Y-111655750D01*
X114736466Y-111674800D01*
X114173667Y-111674800D01*
X114173667Y-110726534D01*
X113863223Y-110726534D01*
X113863223Y-112030400D01*
X114172894Y-112030400D01*
X114175044Y-111992780D01*
X114177195Y-111955160D01*
X114219528Y-111986430D01*
X114261862Y-112017700D01*
X114574744Y-112020229D01*
X114655298Y-112020833D01*
X114723053Y-112021106D01*
X114779323Y-112020850D01*
X114825420Y-112019871D01*
X114862658Y-112017973D01*
X114892348Y-112014961D01*
X114915804Y-112010640D01*
X114934337Y-112004815D01*
X114949262Y-111997290D01*
X114961889Y-111987870D01*
X114973533Y-111976359D01*
X114985506Y-111962563D01*
X114988790Y-111958632D01*
X115007053Y-111934875D01*
X115021479Y-111910823D01*
X115032568Y-111884050D01*
X115040821Y-111852128D01*
X115046739Y-111812632D01*
X115050824Y-111763134D01*
X115053575Y-111701208D01*
X115055246Y-111636700D01*
X115056058Y-111585772D01*
X115056692Y-111521062D01*
X115057137Y-111445720D01*
X115057386Y-111362896D01*
X115057430Y-111275741D01*
X115057260Y-111187405D01*
X115056866Y-111101037D01*
X115056788Y-111088484D01*
X115054436Y-110726534D01*
X114745167Y-110726534D01*
X114745071Y-111181617D01*
G36*
X112831522Y-110584717D02*
X112829584Y-110722300D01*
X112675424Y-110724584D01*
X112624710Y-110725451D01*
X112586475Y-110726459D01*
X112559085Y-110727777D01*
X112540908Y-110729575D01*
X112530312Y-110732021D01*
X112525663Y-110735284D01*
X112525329Y-110739533D01*
X112525494Y-110740093D01*
X112526812Y-110752396D01*
X112527963Y-110778766D01*
X112528877Y-110816337D01*
X112529486Y-110862243D01*
X112529722Y-110913618D01*
X112529723Y-110916719D01*
X112529723Y-111080120D01*
X112679653Y-111087477D01*
X112829584Y-111094834D01*
X112829584Y-111687500D01*
X112679653Y-111689785D01*
X112529723Y-111692070D01*
X112529723Y-112030400D01*
X112669070Y-112028848D01*
X112720495Y-112028059D01*
X112775015Y-112026852D01*
X112828047Y-112025354D01*
X112875010Y-112023690D01*
X112903667Y-112022401D01*
X112944883Y-112019865D01*
X112974945Y-112016799D01*
X112996809Y-112012650D01*
X113013432Y-112006864D01*
X113027139Y-111999300D01*
X113070264Y-111962567D01*
X113104220Y-111915004D01*
X113119264Y-111882233D01*
X113135095Y-111839900D01*
X113144839Y-110447134D01*
X112833461Y-110447134D01*
X112831522Y-110584717D01*
X112831522Y-110584717D01*
G37*
X112831522Y-110584717D02*
X112829584Y-110722300D01*
X112675424Y-110724584D01*
X112624710Y-110725451D01*
X112586475Y-110726459D01*
X112559085Y-110727777D01*
X112540908Y-110729575D01*
X112530312Y-110732021D01*
X112525663Y-110735284D01*
X112525329Y-110739533D01*
X112525494Y-110740093D01*
X112526812Y-110752396D01*
X112527963Y-110778766D01*
X112528877Y-110816337D01*
X112529486Y-110862243D01*
X112529722Y-110913618D01*
X112529723Y-110916719D01*
X112529723Y-111080120D01*
X112679653Y-111087477D01*
X112829584Y-111094834D01*
X112829584Y-111687500D01*
X112679653Y-111689785D01*
X112529723Y-111692070D01*
X112529723Y-112030400D01*
X112669070Y-112028848D01*
X112720495Y-112028059D01*
X112775015Y-112026852D01*
X112828047Y-112025354D01*
X112875010Y-112023690D01*
X112903667Y-112022401D01*
X112944883Y-112019865D01*
X112974945Y-112016799D01*
X112996809Y-112012650D01*
X113013432Y-112006864D01*
X113027139Y-111999300D01*
X113070264Y-111962567D01*
X113104220Y-111915004D01*
X113119264Y-111882233D01*
X113135095Y-111839900D01*
X113144839Y-110447134D01*
X112833461Y-110447134D01*
X112831522Y-110584717D01*
G36*
X119775778Y-111450433D02*
X119779306Y-111454667D01*
X119782834Y-111450433D01*
X119779306Y-111446200D01*
X119775778Y-111450433D01*
X119775778Y-111450433D01*
G37*
X119775778Y-111450433D02*
X119779306Y-111454667D01*
X119782834Y-111450433D01*
X119779306Y-111446200D01*
X119775778Y-111450433D01*
G36*
X119775778Y-111281100D02*
X119779306Y-111285334D01*
X119782834Y-111281100D01*
X119779306Y-111276867D01*
X119775778Y-111281100D01*
X119775778Y-111281100D01*
G37*
X119775778Y-111281100D02*
X119779306Y-111285334D01*
X119782834Y-111281100D01*
X119779306Y-111276867D01*
X119775778Y-111281100D01*
G36*
X112665009Y-109639131D02*
X112640919Y-109640627D01*
X112622633Y-109644427D01*
X112606000Y-109651469D01*
X112586871Y-109662694D01*
X112582639Y-109665360D01*
X112531015Y-109707291D01*
X112488156Y-109761347D01*
X112461396Y-109812133D01*
X112452052Y-109835734D01*
X112446185Y-109856831D01*
X112443003Y-109880636D01*
X112441720Y-109912361D01*
X112441528Y-109943367D01*
X112441825Y-109983075D01*
X112443333Y-110011155D01*
X112446980Y-110032911D01*
X112453695Y-110053645D01*
X112464405Y-110078661D01*
X112465709Y-110081551D01*
X112501111Y-110142443D01*
X112546976Y-110192461D01*
X112588189Y-110222390D01*
X112607119Y-110232634D01*
X112625118Y-110239044D01*
X112646447Y-110242479D01*
X112675362Y-110243795D01*
X112695150Y-110243927D01*
X112729385Y-110243429D01*
X112754120Y-110241274D01*
X112773953Y-110236456D01*
X112793484Y-110227969D01*
X112810489Y-110218711D01*
X112856113Y-110185158D01*
X112896747Y-110140674D01*
X112928616Y-110089717D01*
X112938393Y-110067679D01*
X112955480Y-110023770D01*
X114902456Y-110025902D01*
X116849431Y-110028033D01*
X117030258Y-110397971D01*
X117211084Y-110767908D01*
X117399825Y-110770504D01*
X117588565Y-110773100D01*
X117588561Y-110690550D01*
X117588556Y-110608000D01*
X117288429Y-110608000D01*
X117105651Y-110235467D01*
X116970428Y-109959857D01*
X112825748Y-109959857D01*
X112814510Y-110004298D01*
X112790948Y-110044708D01*
X112759028Y-110076265D01*
X112736227Y-110086217D01*
X112705817Y-110089631D01*
X112673124Y-110086742D01*
X112643471Y-110077785D01*
X112630752Y-110070616D01*
X112601614Y-110041528D01*
X112583475Y-110002874D01*
X112575885Y-109953588D01*
X112575584Y-109939754D01*
X112576746Y-109904971D01*
X112581069Y-109880601D01*
X112589813Y-109860280D01*
X112592053Y-109856392D01*
X112619501Y-109823559D01*
X112653368Y-109803196D01*
X112690699Y-109795147D01*
X112728536Y-109799257D01*
X112763924Y-109815370D01*
X112793904Y-109843331D01*
X112809109Y-109867820D01*
X112824127Y-109913619D01*
X112825748Y-109959857D01*
X116970428Y-109959857D01*
X116922873Y-109862933D01*
X112960349Y-109862933D01*
X112941771Y-109818938D01*
X112921640Y-109780909D01*
X112893824Y-109741050D01*
X112862047Y-109703815D01*
X112830035Y-109673660D01*
X112806954Y-109657731D01*
X112787628Y-109648814D01*
X112766865Y-109643194D01*
X112740635Y-109640170D01*
X112704905Y-109639043D01*
X112699056Y-109638998D01*
X112665009Y-109639131D01*
X112665009Y-109639131D01*
G37*
X112665009Y-109639131D02*
X112640919Y-109640627D01*
X112622633Y-109644427D01*
X112606000Y-109651469D01*
X112586871Y-109662694D01*
X112582639Y-109665360D01*
X112531015Y-109707291D01*
X112488156Y-109761347D01*
X112461396Y-109812133D01*
X112452052Y-109835734D01*
X112446185Y-109856831D01*
X112443003Y-109880636D01*
X112441720Y-109912361D01*
X112441528Y-109943367D01*
X112441825Y-109983075D01*
X112443333Y-110011155D01*
X112446980Y-110032911D01*
X112453695Y-110053645D01*
X112464405Y-110078661D01*
X112465709Y-110081551D01*
X112501111Y-110142443D01*
X112546976Y-110192461D01*
X112588189Y-110222390D01*
X112607119Y-110232634D01*
X112625118Y-110239044D01*
X112646447Y-110242479D01*
X112675362Y-110243795D01*
X112695150Y-110243927D01*
X112729385Y-110243429D01*
X112754120Y-110241274D01*
X112773953Y-110236456D01*
X112793484Y-110227969D01*
X112810489Y-110218711D01*
X112856113Y-110185158D01*
X112896747Y-110140674D01*
X112928616Y-110089717D01*
X112938393Y-110067679D01*
X112955480Y-110023770D01*
X114902456Y-110025902D01*
X116849431Y-110028033D01*
X117030258Y-110397971D01*
X117211084Y-110767908D01*
X117399825Y-110770504D01*
X117588565Y-110773100D01*
X117588561Y-110690550D01*
X117588556Y-110608000D01*
X117288429Y-110608000D01*
X117105651Y-110235467D01*
X116970428Y-109959857D01*
X112825748Y-109959857D01*
X112814510Y-110004298D01*
X112790948Y-110044708D01*
X112759028Y-110076265D01*
X112736227Y-110086217D01*
X112705817Y-110089631D01*
X112673124Y-110086742D01*
X112643471Y-110077785D01*
X112630752Y-110070616D01*
X112601614Y-110041528D01*
X112583475Y-110002874D01*
X112575885Y-109953588D01*
X112575584Y-109939754D01*
X112576746Y-109904971D01*
X112581069Y-109880601D01*
X112589813Y-109860280D01*
X112592053Y-109856392D01*
X112619501Y-109823559D01*
X112653368Y-109803196D01*
X112690699Y-109795147D01*
X112728536Y-109799257D01*
X112763924Y-109815370D01*
X112793904Y-109843331D01*
X112809109Y-109867820D01*
X112824127Y-109913619D01*
X112825748Y-109959857D01*
X116970428Y-109959857D01*
X116922873Y-109862933D01*
X112960349Y-109862933D01*
X112941771Y-109818938D01*
X112921640Y-109780909D01*
X112893824Y-109741050D01*
X112862047Y-109703815D01*
X112830035Y-109673660D01*
X112806954Y-109657731D01*
X112787628Y-109648814D01*
X112766865Y-109643194D01*
X112740635Y-109640170D01*
X112704905Y-109639043D01*
X112699056Y-109638998D01*
X112665009Y-109639131D01*
G36*
X128918272Y-109652083D02*
X128900733Y-109652850D01*
X128862266Y-109655364D01*
X128834358Y-109659279D01*
X128813468Y-109665321D01*
X128796055Y-109674212D01*
X128795938Y-109674285D01*
X128759679Y-109702840D01*
X128723258Y-109741336D01*
X128691737Y-109783986D01*
X128676362Y-109811013D01*
X128655195Y-109854131D01*
X124545190Y-109854299D01*
X120435186Y-109854467D01*
X120257051Y-110216991D01*
X120221793Y-110288608D01*
X120188522Y-110355926D01*
X120157957Y-110417508D01*
X120130820Y-110471914D01*
X120107829Y-110517705D01*
X120089706Y-110553443D01*
X120077170Y-110577690D01*
X120070941Y-110589006D01*
X120070575Y-110589524D01*
X120062040Y-110593291D01*
X120042937Y-110596118D01*
X120012379Y-110598063D01*
X119969477Y-110599182D01*
X119914596Y-110599534D01*
X119766959Y-110599534D01*
X119771369Y-110625992D01*
X119773665Y-110648339D01*
X119775260Y-110680241D01*
X119775778Y-110710659D01*
X119776477Y-110739223D01*
X119778315Y-110759357D01*
X119780904Y-110766933D01*
X119781070Y-110766900D01*
X119789294Y-110766264D01*
X119809684Y-110765501D01*
X119840295Y-110764658D01*
X119879183Y-110763785D01*
X119924404Y-110762930D01*
X119966278Y-110762256D01*
X120146195Y-110759579D01*
X120329676Y-110385340D01*
X120513157Y-110011100D01*
X124579057Y-110008976D01*
X128644956Y-110006852D01*
X128652283Y-110030143D01*
X128681220Y-110101243D01*
X128719467Y-110161739D01*
X128765708Y-110209807D01*
X128799027Y-110233290D01*
X128819314Y-110244327D01*
X128837606Y-110251242D01*
X128858318Y-110254969D01*
X128885864Y-110256442D01*
X128909343Y-110256634D01*
X128943008Y-110256203D01*
X128967175Y-110254190D01*
X128986452Y-110249514D01*
X129005448Y-110241093D01*
X129026625Y-110229117D01*
X129078085Y-110189516D01*
X129120262Y-110137514D01*
X129151369Y-110076083D01*
X129160916Y-110048703D01*
X129166597Y-110023159D01*
X129169348Y-109993249D01*
X129170101Y-109952775D01*
X129170103Y-109951833D01*
X129170048Y-109948420D01*
X129037761Y-109948420D01*
X129033335Y-109994153D01*
X129017572Y-110035260D01*
X128991844Y-110068887D01*
X128957524Y-110092175D01*
X128933889Y-110099890D01*
X128901457Y-110101157D01*
X128867631Y-110093614D01*
X128839257Y-110078930D01*
X128835548Y-110075914D01*
X128809457Y-110046477D01*
X128793997Y-110011268D01*
X128787160Y-109965705D01*
X128787141Y-109965397D01*
X128786530Y-109931460D01*
X128790401Y-109906117D01*
X128799407Y-109882588D01*
X128824189Y-109844795D01*
X128855460Y-109819566D01*
X128890634Y-109806695D01*
X128927127Y-109805977D01*
X128962351Y-109817206D01*
X128993723Y-109840175D01*
X129018656Y-109874679D01*
X129029478Y-109900919D01*
X129037761Y-109948420D01*
X129170048Y-109948420D01*
X129169438Y-109910851D01*
X129166815Y-109881073D01*
X129161431Y-109856828D01*
X129153586Y-109835110D01*
X129125818Y-109782321D01*
X129088671Y-109733189D01*
X129046395Y-109692854D01*
X129021889Y-109675920D01*
X129001307Y-109664177D01*
X128984696Y-109656692D01*
X128968016Y-109652694D01*
X128947222Y-109651414D01*
X128918272Y-109652083D01*
X128918272Y-109652083D01*
G37*
X128918272Y-109652083D02*
X128900733Y-109652850D01*
X128862266Y-109655364D01*
X128834358Y-109659279D01*
X128813468Y-109665321D01*
X128796055Y-109674212D01*
X128795938Y-109674285D01*
X128759679Y-109702840D01*
X128723258Y-109741336D01*
X128691737Y-109783986D01*
X128676362Y-109811013D01*
X128655195Y-109854131D01*
X124545190Y-109854299D01*
X120435186Y-109854467D01*
X120257051Y-110216991D01*
X120221793Y-110288608D01*
X120188522Y-110355926D01*
X120157957Y-110417508D01*
X120130820Y-110471914D01*
X120107829Y-110517705D01*
X120089706Y-110553443D01*
X120077170Y-110577690D01*
X120070941Y-110589006D01*
X120070575Y-110589524D01*
X120062040Y-110593291D01*
X120042937Y-110596118D01*
X120012379Y-110598063D01*
X119969477Y-110599182D01*
X119914596Y-110599534D01*
X119766959Y-110599534D01*
X119771369Y-110625992D01*
X119773665Y-110648339D01*
X119775260Y-110680241D01*
X119775778Y-110710659D01*
X119776477Y-110739223D01*
X119778315Y-110759357D01*
X119780904Y-110766933D01*
X119781070Y-110766900D01*
X119789294Y-110766264D01*
X119809684Y-110765501D01*
X119840295Y-110764658D01*
X119879183Y-110763785D01*
X119924404Y-110762930D01*
X119966278Y-110762256D01*
X120146195Y-110759579D01*
X120329676Y-110385340D01*
X120513157Y-110011100D01*
X124579057Y-110008976D01*
X128644956Y-110006852D01*
X128652283Y-110030143D01*
X128681220Y-110101243D01*
X128719467Y-110161739D01*
X128765708Y-110209807D01*
X128799027Y-110233290D01*
X128819314Y-110244327D01*
X128837606Y-110251242D01*
X128858318Y-110254969D01*
X128885864Y-110256442D01*
X128909343Y-110256634D01*
X128943008Y-110256203D01*
X128967175Y-110254190D01*
X128986452Y-110249514D01*
X129005448Y-110241093D01*
X129026625Y-110229117D01*
X129078085Y-110189516D01*
X129120262Y-110137514D01*
X129151369Y-110076083D01*
X129160916Y-110048703D01*
X129166597Y-110023159D01*
X129169348Y-109993249D01*
X129170101Y-109952775D01*
X129170103Y-109951833D01*
X129170048Y-109948420D01*
X129037761Y-109948420D01*
X129033335Y-109994153D01*
X129017572Y-110035260D01*
X128991844Y-110068887D01*
X128957524Y-110092175D01*
X128933889Y-110099890D01*
X128901457Y-110101157D01*
X128867631Y-110093614D01*
X128839257Y-110078930D01*
X128835548Y-110075914D01*
X128809457Y-110046477D01*
X128793997Y-110011268D01*
X128787160Y-109965705D01*
X128787141Y-109965397D01*
X128786530Y-109931460D01*
X128790401Y-109906117D01*
X128799407Y-109882588D01*
X128824189Y-109844795D01*
X128855460Y-109819566D01*
X128890634Y-109806695D01*
X128927127Y-109805977D01*
X128962351Y-109817206D01*
X128993723Y-109840175D01*
X129018656Y-109874679D01*
X129029478Y-109900919D01*
X129037761Y-109948420D01*
X129170048Y-109948420D01*
X129169438Y-109910851D01*
X129166815Y-109881073D01*
X129161431Y-109856828D01*
X129153586Y-109835110D01*
X129125818Y-109782321D01*
X129088671Y-109733189D01*
X129046395Y-109692854D01*
X129021889Y-109675920D01*
X129001307Y-109664177D01*
X128984696Y-109656692D01*
X128968016Y-109652694D01*
X128947222Y-109651414D01*
X128918272Y-109652083D01*
G36*
X119835750Y-108069599D02*
X119801183Y-108071724D01*
X119776376Y-108075169D01*
X119756984Y-108081050D01*
X119738657Y-108090482D01*
X119727983Y-108097240D01*
X119685065Y-108133419D01*
X119646040Y-108181202D01*
X119615036Y-108235262D01*
X119607715Y-108252421D01*
X119597713Y-108281087D01*
X119591932Y-108307727D01*
X119589321Y-108339048D01*
X119588806Y-108372800D01*
X119589609Y-108412926D01*
X119592720Y-108442891D01*
X119599193Y-108469401D01*
X119607715Y-108493180D01*
X119638071Y-108552932D01*
X119678208Y-108604526D01*
X119725075Y-108644234D01*
X119737847Y-108652073D01*
X119782834Y-108677579D01*
X119782834Y-109011601D01*
X119576459Y-109252782D01*
X119527310Y-109310267D01*
X119477573Y-109368527D01*
X119429017Y-109425485D01*
X119383409Y-109479062D01*
X119342517Y-109527183D01*
X119308110Y-109567770D01*
X119281956Y-109598745D01*
X119280789Y-109600132D01*
X119191495Y-109706300D01*
X119186810Y-109898917D01*
X119182125Y-110091533D01*
X119324223Y-110091533D01*
X119324223Y-109771290D01*
X119620461Y-109425528D01*
X119916699Y-109079767D01*
X119916794Y-108875600D01*
X119916889Y-108671434D01*
X119948770Y-108656823D01*
X119994804Y-108627393D01*
X120036398Y-108584990D01*
X120071033Y-108533255D01*
X120096193Y-108475831D01*
X120108094Y-108426337D01*
X120111558Y-108356232D01*
X120111200Y-108353887D01*
X119974299Y-108353887D01*
X119973271Y-108398550D01*
X119962318Y-108440024D01*
X119953751Y-108456812D01*
X119925422Y-108491348D01*
X119891479Y-108510942D01*
X119852805Y-108516733D01*
X119827199Y-108515445D01*
X119805120Y-108512133D01*
X119795481Y-108509208D01*
X119768384Y-108488668D01*
X119745458Y-108456292D01*
X119728912Y-108417011D01*
X119720957Y-108375760D01*
X119722118Y-108345510D01*
X119735678Y-108303363D01*
X119759621Y-108266801D01*
X119790789Y-108238990D01*
X119826018Y-108223098D01*
X119846798Y-108220586D01*
X119878579Y-108227221D01*
X119912044Y-108244371D01*
X119940919Y-108268569D01*
X119947331Y-108276140D01*
X119965589Y-108311321D01*
X119974299Y-108353887D01*
X120111200Y-108353887D01*
X120101255Y-108288774D01*
X120077454Y-108224907D01*
X120040429Y-108165576D01*
X120029005Y-108151404D01*
X119994371Y-108115122D01*
X119960092Y-108090384D01*
X119922581Y-108075674D01*
X119878248Y-108069470D01*
X119835750Y-108069599D01*
X119835750Y-108069599D01*
G37*
X119835750Y-108069599D02*
X119801183Y-108071724D01*
X119776376Y-108075169D01*
X119756984Y-108081050D01*
X119738657Y-108090482D01*
X119727983Y-108097240D01*
X119685065Y-108133419D01*
X119646040Y-108181202D01*
X119615036Y-108235262D01*
X119607715Y-108252421D01*
X119597713Y-108281087D01*
X119591932Y-108307727D01*
X119589321Y-108339048D01*
X119588806Y-108372800D01*
X119589609Y-108412926D01*
X119592720Y-108442891D01*
X119599193Y-108469401D01*
X119607715Y-108493180D01*
X119638071Y-108552932D01*
X119678208Y-108604526D01*
X119725075Y-108644234D01*
X119737847Y-108652073D01*
X119782834Y-108677579D01*
X119782834Y-109011601D01*
X119576459Y-109252782D01*
X119527310Y-109310267D01*
X119477573Y-109368527D01*
X119429017Y-109425485D01*
X119383409Y-109479062D01*
X119342517Y-109527183D01*
X119308110Y-109567770D01*
X119281956Y-109598745D01*
X119280789Y-109600132D01*
X119191495Y-109706300D01*
X119186810Y-109898917D01*
X119182125Y-110091533D01*
X119324223Y-110091533D01*
X119324223Y-109771290D01*
X119620461Y-109425528D01*
X119916699Y-109079767D01*
X119916794Y-108875600D01*
X119916889Y-108671434D01*
X119948770Y-108656823D01*
X119994804Y-108627393D01*
X120036398Y-108584990D01*
X120071033Y-108533255D01*
X120096193Y-108475831D01*
X120108094Y-108426337D01*
X120111558Y-108356232D01*
X120111200Y-108353887D01*
X119974299Y-108353887D01*
X119973271Y-108398550D01*
X119962318Y-108440024D01*
X119953751Y-108456812D01*
X119925422Y-108491348D01*
X119891479Y-108510942D01*
X119852805Y-108516733D01*
X119827199Y-108515445D01*
X119805120Y-108512133D01*
X119795481Y-108509208D01*
X119768384Y-108488668D01*
X119745458Y-108456292D01*
X119728912Y-108417011D01*
X119720957Y-108375760D01*
X119722118Y-108345510D01*
X119735678Y-108303363D01*
X119759621Y-108266801D01*
X119790789Y-108238990D01*
X119826018Y-108223098D01*
X119846798Y-108220586D01*
X119878579Y-108227221D01*
X119912044Y-108244371D01*
X119940919Y-108268569D01*
X119947331Y-108276140D01*
X119965589Y-108311321D01*
X119974299Y-108353887D01*
X120111200Y-108353887D01*
X120101255Y-108288774D01*
X120077454Y-108224907D01*
X120040429Y-108165576D01*
X120029005Y-108151404D01*
X119994371Y-108115122D01*
X119960092Y-108090384D01*
X119922581Y-108075674D01*
X119878248Y-108069470D01*
X119835750Y-108069599D01*
G36*
X118661000Y-108069842D02*
X118610190Y-108075915D01*
X118568421Y-108089801D01*
X118531418Y-108113709D01*
X118494904Y-108149849D01*
X118485957Y-108160326D01*
X118457060Y-108198528D01*
X118437297Y-108234756D01*
X118425146Y-108273739D01*
X118419087Y-108320201D01*
X118417584Y-108372800D01*
X118418026Y-108415567D01*
X118419767Y-108446223D01*
X118423428Y-108469573D01*
X118429629Y-108490420D01*
X118434364Y-108502599D01*
X118460088Y-108550057D01*
X118496526Y-108595913D01*
X118540402Y-108636346D01*
X118562722Y-108652428D01*
X118608084Y-108682288D01*
X118605373Y-109386911D01*
X118602662Y-110091533D01*
X118675928Y-110091535D01*
X118749195Y-110091536D01*
X118747313Y-109381539D01*
X118745432Y-108671542D01*
X118777688Y-108656759D01*
X118808809Y-108636638D01*
X118842101Y-108605552D01*
X118873750Y-108567873D01*
X118899943Y-108527971D01*
X118912521Y-108502220D01*
X118924214Y-108468216D01*
X118931082Y-108432730D01*
X118934562Y-108388247D01*
X118934641Y-108386417D01*
X118934164Y-108349025D01*
X118799610Y-108349025D01*
X118799330Y-108394106D01*
X118788317Y-108436706D01*
X118767866Y-108473554D01*
X118739271Y-108501374D01*
X118703951Y-108516866D01*
X118666581Y-108519356D01*
X118630088Y-108512171D01*
X118611612Y-108503644D01*
X118581355Y-108476626D01*
X118560552Y-108440282D01*
X118549534Y-108398200D01*
X118548629Y-108353973D01*
X118558168Y-108311190D01*
X118578481Y-108273442D01*
X118589306Y-108260949D01*
X118624550Y-108235159D01*
X118662718Y-108223774D01*
X118701084Y-108226191D01*
X118736919Y-108241810D01*
X118767496Y-108270028D01*
X118787861Y-108304739D01*
X118799610Y-108349025D01*
X118934164Y-108349025D01*
X118933875Y-108326378D01*
X118925033Y-108275411D01*
X118906655Y-108229134D01*
X118877276Y-108183165D01*
X118859201Y-108160359D01*
X118822029Y-108120161D01*
X118786631Y-108092835D01*
X118749125Y-108076607D01*
X118705624Y-108069703D01*
X118661000Y-108069842D01*
X118661000Y-108069842D01*
G37*
X118661000Y-108069842D02*
X118610190Y-108075915D01*
X118568421Y-108089801D01*
X118531418Y-108113709D01*
X118494904Y-108149849D01*
X118485957Y-108160326D01*
X118457060Y-108198528D01*
X118437297Y-108234756D01*
X118425146Y-108273739D01*
X118419087Y-108320201D01*
X118417584Y-108372800D01*
X118418026Y-108415567D01*
X118419767Y-108446223D01*
X118423428Y-108469573D01*
X118429629Y-108490420D01*
X118434364Y-108502599D01*
X118460088Y-108550057D01*
X118496526Y-108595913D01*
X118540402Y-108636346D01*
X118562722Y-108652428D01*
X118608084Y-108682288D01*
X118605373Y-109386911D01*
X118602662Y-110091533D01*
X118675928Y-110091535D01*
X118749195Y-110091536D01*
X118747313Y-109381539D01*
X118745432Y-108671542D01*
X118777688Y-108656759D01*
X118808809Y-108636638D01*
X118842101Y-108605552D01*
X118873750Y-108567873D01*
X118899943Y-108527971D01*
X118912521Y-108502220D01*
X118924214Y-108468216D01*
X118931082Y-108432730D01*
X118934562Y-108388247D01*
X118934641Y-108386417D01*
X118934164Y-108349025D01*
X118799610Y-108349025D01*
X118799330Y-108394106D01*
X118788317Y-108436706D01*
X118767866Y-108473554D01*
X118739271Y-108501374D01*
X118703951Y-108516866D01*
X118666581Y-108519356D01*
X118630088Y-108512171D01*
X118611612Y-108503644D01*
X118581355Y-108476626D01*
X118560552Y-108440282D01*
X118549534Y-108398200D01*
X118548629Y-108353973D01*
X118558168Y-108311190D01*
X118578481Y-108273442D01*
X118589306Y-108260949D01*
X118624550Y-108235159D01*
X118662718Y-108223774D01*
X118701084Y-108226191D01*
X118736919Y-108241810D01*
X118767496Y-108270028D01*
X118787861Y-108304739D01*
X118799610Y-108349025D01*
X118934164Y-108349025D01*
X118933875Y-108326378D01*
X118925033Y-108275411D01*
X118906655Y-108229134D01*
X118877276Y-108183165D01*
X118859201Y-108160359D01*
X118822029Y-108120161D01*
X118786631Y-108092835D01*
X118749125Y-108076607D01*
X118705624Y-108069703D01*
X118661000Y-108069842D01*
G36*
X117493980Y-108069166D02*
X117487747Y-108069451D01*
X117450847Y-108071932D01*
X117423811Y-108075996D01*
X117402400Y-108082602D01*
X117382375Y-108092712D01*
X117380737Y-108093683D01*
X117345104Y-108121119D01*
X117309361Y-108159104D01*
X117278049Y-108202198D01*
X117256945Y-108241950D01*
X117248749Y-108263476D01*
X117243540Y-108284153D01*
X117240667Y-108308799D01*
X117239481Y-108342233D01*
X117239306Y-108372800D01*
X117239714Y-108415081D01*
X117241341Y-108445054D01*
X117244796Y-108467329D01*
X117250686Y-108486513D01*
X117255960Y-108499179D01*
X117283891Y-108548946D01*
X117320725Y-108595832D01*
X117361989Y-108634655D01*
X117388717Y-108652913D01*
X117433334Y-108678465D01*
X117434540Y-109088233D01*
X117728507Y-109430981D01*
X117782297Y-109493823D01*
X117833123Y-109553443D01*
X117880066Y-109608748D01*
X117922210Y-109658646D01*
X117958636Y-109702045D01*
X117988428Y-109737851D01*
X118010666Y-109764973D01*
X118024434Y-109782317D01*
X118028765Y-109788489D01*
X118030674Y-109802264D01*
X118031494Y-109830396D01*
X118031226Y-109870360D01*
X118029870Y-109919629D01*
X118028765Y-109947406D01*
X118022473Y-110091563D01*
X118094792Y-110091548D01*
X118167112Y-110091533D01*
X118167112Y-109720224D01*
X117567996Y-109020500D01*
X117567693Y-108845967D01*
X117567389Y-108671434D01*
X117599757Y-108656600D01*
X117629760Y-108637215D01*
X117662375Y-108607123D01*
X117693807Y-108570702D01*
X117720263Y-108532331D01*
X117737467Y-108497691D01*
X117745924Y-108471638D01*
X117751028Y-108445336D01*
X117753538Y-108413113D01*
X117753940Y-108389097D01*
X117622435Y-108389097D01*
X117613214Y-108432197D01*
X117593014Y-108470981D01*
X117568002Y-108497433D01*
X117540490Y-108511383D01*
X117506027Y-108517228D01*
X117470115Y-108514818D01*
X117438260Y-108504007D01*
X117433224Y-108501057D01*
X117403804Y-108473446D01*
X117383322Y-108436178D01*
X117372421Y-108393183D01*
X117371750Y-108348392D01*
X117381954Y-108305734D01*
X117396598Y-108278259D01*
X117427264Y-108246478D01*
X117463912Y-108227433D01*
X117503144Y-108222017D01*
X117541561Y-108231117D01*
X117553151Y-108237255D01*
X117586033Y-108265762D01*
X117608662Y-108302694D01*
X117620857Y-108344868D01*
X117622435Y-108389097D01*
X117753940Y-108389097D01*
X117754214Y-108372800D01*
X117753800Y-108332571D01*
X117751808Y-108303593D01*
X117747374Y-108280207D01*
X117739634Y-108256752D01*
X117734552Y-108243958D01*
X117701841Y-108182637D01*
X117658796Y-108131442D01*
X117607616Y-108092966D01*
X117605749Y-108091907D01*
X117583898Y-108080154D01*
X117566172Y-108072836D01*
X117548195Y-108069121D01*
X117525590Y-108068175D01*
X117493980Y-108069166D01*
X117493980Y-108069166D01*
G37*
X117493980Y-108069166D02*
X117487747Y-108069451D01*
X117450847Y-108071932D01*
X117423811Y-108075996D01*
X117402400Y-108082602D01*
X117382375Y-108092712D01*
X117380737Y-108093683D01*
X117345104Y-108121119D01*
X117309361Y-108159104D01*
X117278049Y-108202198D01*
X117256945Y-108241950D01*
X117248749Y-108263476D01*
X117243540Y-108284153D01*
X117240667Y-108308799D01*
X117239481Y-108342233D01*
X117239306Y-108372800D01*
X117239714Y-108415081D01*
X117241341Y-108445054D01*
X117244796Y-108467329D01*
X117250686Y-108486513D01*
X117255960Y-108499179D01*
X117283891Y-108548946D01*
X117320725Y-108595832D01*
X117361989Y-108634655D01*
X117388717Y-108652913D01*
X117433334Y-108678465D01*
X117434540Y-109088233D01*
X117728507Y-109430981D01*
X117782297Y-109493823D01*
X117833123Y-109553443D01*
X117880066Y-109608748D01*
X117922210Y-109658646D01*
X117958636Y-109702045D01*
X117988428Y-109737851D01*
X118010666Y-109764973D01*
X118024434Y-109782317D01*
X118028765Y-109788489D01*
X118030674Y-109802264D01*
X118031494Y-109830396D01*
X118031226Y-109870360D01*
X118029870Y-109919629D01*
X118028765Y-109947406D01*
X118022473Y-110091563D01*
X118094792Y-110091548D01*
X118167112Y-110091533D01*
X118167112Y-109720224D01*
X117567996Y-109020500D01*
X117567693Y-108845967D01*
X117567389Y-108671434D01*
X117599757Y-108656600D01*
X117629760Y-108637215D01*
X117662375Y-108607123D01*
X117693807Y-108570702D01*
X117720263Y-108532331D01*
X117737467Y-108497691D01*
X117745924Y-108471638D01*
X117751028Y-108445336D01*
X117753538Y-108413113D01*
X117753940Y-108389097D01*
X117622435Y-108389097D01*
X117613214Y-108432197D01*
X117593014Y-108470981D01*
X117568002Y-108497433D01*
X117540490Y-108511383D01*
X117506027Y-108517228D01*
X117470115Y-108514818D01*
X117438260Y-108504007D01*
X117433224Y-108501057D01*
X117403804Y-108473446D01*
X117383322Y-108436178D01*
X117372421Y-108393183D01*
X117371750Y-108348392D01*
X117381954Y-108305734D01*
X117396598Y-108278259D01*
X117427264Y-108246478D01*
X117463912Y-108227433D01*
X117503144Y-108222017D01*
X117541561Y-108231117D01*
X117553151Y-108237255D01*
X117586033Y-108265762D01*
X117608662Y-108302694D01*
X117620857Y-108344868D01*
X117622435Y-108389097D01*
X117753940Y-108389097D01*
X117754214Y-108372800D01*
X117753800Y-108332571D01*
X117751808Y-108303593D01*
X117747374Y-108280207D01*
X117739634Y-108256752D01*
X117734552Y-108243958D01*
X117701841Y-108182637D01*
X117658796Y-108131442D01*
X117607616Y-108092966D01*
X117605749Y-108091907D01*
X117583898Y-108080154D01*
X117566172Y-108072836D01*
X117548195Y-108069121D01*
X117525590Y-108068175D01*
X117493980Y-108069166D01*
G36*
X115279548Y-113908977D02*
X115273254Y-113915407D01*
X115261938Y-113924652D01*
X115250479Y-113923036D01*
X115241806Y-113917967D01*
X115227885Y-113910843D01*
X115219481Y-113913941D01*
X115214638Y-113920814D01*
X115199905Y-113934024D01*
X115183606Y-113931369D01*
X115176967Y-113925240D01*
X115166145Y-113919400D01*
X115158183Y-113925833D01*
X115156014Y-113939881D01*
X115159858Y-113952430D01*
X115168041Y-113976506D01*
X115165828Y-113993403D01*
X115154834Y-114000356D01*
X115136672Y-113994602D01*
X115135619Y-113993940D01*
X115122071Y-113987177D01*
X115114513Y-113990598D01*
X115111954Y-113994865D01*
X115110935Y-114011327D01*
X115115941Y-114020540D01*
X115125356Y-114039407D01*
X115121518Y-114055434D01*
X115116035Y-114061951D01*
X115103886Y-114067745D01*
X115090889Y-114062400D01*
X115076012Y-114057108D01*
X115065566Y-114063027D01*
X115059126Y-114072563D01*
X115062935Y-114083214D01*
X115066873Y-114088699D01*
X115075776Y-114107784D01*
X115072278Y-114121735D01*
X115057957Y-114127760D01*
X115045504Y-114126566D01*
X115025301Y-114125232D01*
X115016584Y-114133453D01*
X115018819Y-114151913D01*
X115020970Y-114158061D01*
X115025101Y-114181807D01*
X115021395Y-114195487D01*
X115018022Y-114212998D01*
X115025283Y-114231599D01*
X115032527Y-114249753D01*
X115029164Y-114265324D01*
X115028791Y-114266053D01*
X115024941Y-114280971D01*
X115031365Y-114291447D01*
X115041442Y-114296838D01*
X115052771Y-114289719D01*
X115055964Y-114286385D01*
X115067110Y-114276131D01*
X115075103Y-114277697D01*
X115082152Y-114285353D01*
X115090064Y-114299546D01*
X115086562Y-114314275D01*
X115085858Y-114315657D01*
X115081586Y-114330332D01*
X115088516Y-114343396D01*
X115090416Y-114345519D01*
X115100432Y-114354612D01*
X115105530Y-114351557D01*
X115107435Y-114346399D01*
X115117014Y-114335706D01*
X115131212Y-114334238D01*
X115142891Y-114342044D01*
X115144817Y-114346141D01*
X115144212Y-114362842D01*
X115140204Y-114371541D01*
X115135092Y-114385030D01*
X115140410Y-114397024D01*
X115148233Y-114405092D01*
X115157484Y-114402941D01*
X115166784Y-114396188D01*
X115180031Y-114387365D01*
X115188652Y-114388810D01*
X115195636Y-114396134D01*
X115203097Y-114410186D01*
X115198850Y-114425526D01*
X115198747Y-114425724D01*
X115194475Y-114440398D01*
X115201405Y-114453463D01*
X115203305Y-114455586D01*
X115213321Y-114464679D01*
X115218419Y-114461624D01*
X115220324Y-114456466D01*
X115230312Y-114444932D01*
X115247051Y-114446146D01*
X115259924Y-114453608D01*
X115272603Y-114459128D01*
X115284562Y-114451769D01*
X115286901Y-114449310D01*
X115303934Y-114439051D01*
X115322573Y-114440161D01*
X115339214Y-114441378D01*
X115344811Y-114433358D01*
X115339999Y-114414701D01*
X115337145Y-114407989D01*
X115334550Y-114390853D01*
X115339661Y-114376289D01*
X115349273Y-114369003D01*
X115360181Y-114373699D01*
X115360361Y-114373913D01*
X115374091Y-114382853D01*
X115385387Y-114379020D01*
X115391183Y-114366556D01*
X115388410Y-114349603D01*
X115383922Y-114342101D01*
X115376978Y-114328859D01*
X115380761Y-114315698D01*
X115382979Y-114311910D01*
X115392344Y-114301249D01*
X115404063Y-114302401D01*
X115410608Y-114305677D01*
X115425460Y-114311103D01*
X115435087Y-114305695D01*
X115437050Y-114303067D01*
X115441617Y-114290567D01*
X115435097Y-114276757D01*
X115434114Y-114275433D01*
X115426598Y-114261428D01*
X115429919Y-114248352D01*
X115431895Y-114244953D01*
X115440614Y-114234822D01*
X115450821Y-114237218D01*
X115456356Y-114241099D01*
X115472477Y-114247639D01*
X115481750Y-114241449D01*
X115481694Y-114225905D01*
X115476376Y-114213874D01*
X115469075Y-114198647D01*
X115470838Y-114187806D01*
X115476342Y-114179707D01*
X115483141Y-114168160D01*
X115481674Y-114157273D01*
X115472970Y-114142559D01*
X115463582Y-114124829D01*
X115463679Y-114111262D01*
X115466719Y-114104258D01*
X115470496Y-114087821D01*
X115466253Y-114075542D01*
X115457076Y-114072140D01*
X115449312Y-114077640D01*
X115435920Y-114085969D01*
X115420072Y-114087030D01*
X115408301Y-114080887D01*
X115406403Y-114077217D01*
X115406738Y-114061445D01*
X115409832Y-114051276D01*
X115411830Y-114031869D01*
X115407867Y-114023545D01*
X115400013Y-114015955D01*
X115391129Y-114020371D01*
X115385798Y-114025847D01*
X115372859Y-114035442D01*
X115360929Y-114031532D01*
X115360351Y-114031082D01*
X115351687Y-114018443D01*
X115351041Y-114010271D01*
X115355273Y-113992106D01*
X115357133Y-113984186D01*
X115355234Y-113971574D01*
X115346805Y-113962827D01*
X115337199Y-113961499D01*
X115332377Y-113967744D01*
X115323968Y-113975717D01*
X115309839Y-113977273D01*
X115297291Y-113972521D01*
X115293677Y-113967150D01*
X115294534Y-113951638D01*
X115297956Y-113942438D01*
X115300967Y-113925584D01*
X115295828Y-113914707D01*
X115287681Y-113905813D01*
X115279548Y-113908977D01*
X115279548Y-113908977D01*
G37*
X115279548Y-113908977D02*
X115273254Y-113915407D01*
X115261938Y-113924652D01*
X115250479Y-113923036D01*
X115241806Y-113917967D01*
X115227885Y-113910843D01*
X115219481Y-113913941D01*
X115214638Y-113920814D01*
X115199905Y-113934024D01*
X115183606Y-113931369D01*
X115176967Y-113925240D01*
X115166145Y-113919400D01*
X115158183Y-113925833D01*
X115156014Y-113939881D01*
X115159858Y-113952430D01*
X115168041Y-113976506D01*
X115165828Y-113993403D01*
X115154834Y-114000356D01*
X115136672Y-113994602D01*
X115135619Y-113993940D01*
X115122071Y-113987177D01*
X115114513Y-113990598D01*
X115111954Y-113994865D01*
X115110935Y-114011327D01*
X115115941Y-114020540D01*
X115125356Y-114039407D01*
X115121518Y-114055434D01*
X115116035Y-114061951D01*
X115103886Y-114067745D01*
X115090889Y-114062400D01*
X115076012Y-114057108D01*
X115065566Y-114063027D01*
X115059126Y-114072563D01*
X115062935Y-114083214D01*
X115066873Y-114088699D01*
X115075776Y-114107784D01*
X115072278Y-114121735D01*
X115057957Y-114127760D01*
X115045504Y-114126566D01*
X115025301Y-114125232D01*
X115016584Y-114133453D01*
X115018819Y-114151913D01*
X115020970Y-114158061D01*
X115025101Y-114181807D01*
X115021395Y-114195487D01*
X115018022Y-114212998D01*
X115025283Y-114231599D01*
X115032527Y-114249753D01*
X115029164Y-114265324D01*
X115028791Y-114266053D01*
X115024941Y-114280971D01*
X115031365Y-114291447D01*
X115041442Y-114296838D01*
X115052771Y-114289719D01*
X115055964Y-114286385D01*
X115067110Y-114276131D01*
X115075103Y-114277697D01*
X115082152Y-114285353D01*
X115090064Y-114299546D01*
X115086562Y-114314275D01*
X115085858Y-114315657D01*
X115081586Y-114330332D01*
X115088516Y-114343396D01*
X115090416Y-114345519D01*
X115100432Y-114354612D01*
X115105530Y-114351557D01*
X115107435Y-114346399D01*
X115117014Y-114335706D01*
X115131212Y-114334238D01*
X115142891Y-114342044D01*
X115144817Y-114346141D01*
X115144212Y-114362842D01*
X115140204Y-114371541D01*
X115135092Y-114385030D01*
X115140410Y-114397024D01*
X115148233Y-114405092D01*
X115157484Y-114402941D01*
X115166784Y-114396188D01*
X115180031Y-114387365D01*
X115188652Y-114388810D01*
X115195636Y-114396134D01*
X115203097Y-114410186D01*
X115198850Y-114425526D01*
X115198747Y-114425724D01*
X115194475Y-114440398D01*
X115201405Y-114453463D01*
X115203305Y-114455586D01*
X115213321Y-114464679D01*
X115218419Y-114461624D01*
X115220324Y-114456466D01*
X115230312Y-114444932D01*
X115247051Y-114446146D01*
X115259924Y-114453608D01*
X115272603Y-114459128D01*
X115284562Y-114451769D01*
X115286901Y-114449310D01*
X115303934Y-114439051D01*
X115322573Y-114440161D01*
X115339214Y-114441378D01*
X115344811Y-114433358D01*
X115339999Y-114414701D01*
X115337145Y-114407989D01*
X115334550Y-114390853D01*
X115339661Y-114376289D01*
X115349273Y-114369003D01*
X115360181Y-114373699D01*
X115360361Y-114373913D01*
X115374091Y-114382853D01*
X115385387Y-114379020D01*
X115391183Y-114366556D01*
X115388410Y-114349603D01*
X115383922Y-114342101D01*
X115376978Y-114328859D01*
X115380761Y-114315698D01*
X115382979Y-114311910D01*
X115392344Y-114301249D01*
X115404063Y-114302401D01*
X115410608Y-114305677D01*
X115425460Y-114311103D01*
X115435087Y-114305695D01*
X115437050Y-114303067D01*
X115441617Y-114290567D01*
X115435097Y-114276757D01*
X115434114Y-114275433D01*
X115426598Y-114261428D01*
X115429919Y-114248352D01*
X115431895Y-114244953D01*
X115440614Y-114234822D01*
X115450821Y-114237218D01*
X115456356Y-114241099D01*
X115472477Y-114247639D01*
X115481750Y-114241449D01*
X115481694Y-114225905D01*
X115476376Y-114213874D01*
X115469075Y-114198647D01*
X115470838Y-114187806D01*
X115476342Y-114179707D01*
X115483141Y-114168160D01*
X115481674Y-114157273D01*
X115472970Y-114142559D01*
X115463582Y-114124829D01*
X115463679Y-114111262D01*
X115466719Y-114104258D01*
X115470496Y-114087821D01*
X115466253Y-114075542D01*
X115457076Y-114072140D01*
X115449312Y-114077640D01*
X115435920Y-114085969D01*
X115420072Y-114087030D01*
X115408301Y-114080887D01*
X115406403Y-114077217D01*
X115406738Y-114061445D01*
X115409832Y-114051276D01*
X115411830Y-114031869D01*
X115407867Y-114023545D01*
X115400013Y-114015955D01*
X115391129Y-114020371D01*
X115385798Y-114025847D01*
X115372859Y-114035442D01*
X115360929Y-114031532D01*
X115360351Y-114031082D01*
X115351687Y-114018443D01*
X115351041Y-114010271D01*
X115355273Y-113992106D01*
X115357133Y-113984186D01*
X115355234Y-113971574D01*
X115346805Y-113962827D01*
X115337199Y-113961499D01*
X115332377Y-113967744D01*
X115323968Y-113975717D01*
X115309839Y-113977273D01*
X115297291Y-113972521D01*
X115293677Y-113967150D01*
X115294534Y-113951638D01*
X115297956Y-113942438D01*
X115300967Y-113925584D01*
X115295828Y-113914707D01*
X115287681Y-113905813D01*
X115279548Y-113908977D01*
G36*
X118201761Y-110753019D02*
X118166102Y-110780860D01*
X118138291Y-110815307D01*
X118114939Y-110860863D01*
X118108455Y-110876958D01*
X118105051Y-110886127D01*
X118102189Y-110895446D01*
X118099821Y-110906386D01*
X118097901Y-110920421D01*
X118096382Y-110939025D01*
X118095217Y-110963669D01*
X118094358Y-110995828D01*
X118093760Y-111036973D01*
X118093375Y-111088579D01*
X118093156Y-111152118D01*
X118093056Y-111229063D01*
X118093029Y-111320887D01*
X118093028Y-111361533D01*
X118093028Y-111806033D01*
X118111837Y-111844425D01*
X118146799Y-111900221D01*
X118192013Y-111948394D01*
X118244200Y-111986132D01*
X118300083Y-112010623D01*
X118308223Y-112012889D01*
X118326373Y-112015695D01*
X118356936Y-112018237D01*
X118398212Y-112020487D01*
X118448505Y-112022422D01*
X118506115Y-112024015D01*
X118569346Y-112025241D01*
X118636498Y-112026075D01*
X118705876Y-112026491D01*
X118775779Y-112026464D01*
X118844511Y-112025969D01*
X118910374Y-112024980D01*
X118971670Y-112023471D01*
X118985556Y-112023027D01*
X119042716Y-112020864D01*
X119087824Y-112018222D01*
X119122941Y-112014443D01*
X119150125Y-112008869D01*
X119171435Y-112000842D01*
X119188930Y-111989703D01*
X119204670Y-111974795D01*
X119220714Y-111955459D01*
X119228376Y-111945412D01*
X119239041Y-111931347D01*
X119248070Y-111918801D01*
X119255605Y-111906297D01*
X119261790Y-111892358D01*
X119266766Y-111875509D01*
X119270677Y-111854272D01*
X119273664Y-111827172D01*
X119275871Y-111792732D01*
X119277439Y-111749476D01*
X119278512Y-111695927D01*
X119279231Y-111630610D01*
X119279740Y-111552047D01*
X119279918Y-111514375D01*
X118977304Y-111514375D01*
X118977226Y-111570394D01*
X118976954Y-111617128D01*
X118976497Y-111652534D01*
X118975867Y-111674574D01*
X118975290Y-111681094D01*
X118971448Y-111683861D01*
X118961149Y-111686139D01*
X118943335Y-111687968D01*
X118916950Y-111689385D01*
X118880933Y-111690431D01*
X118834228Y-111691145D01*
X118775776Y-111691564D01*
X118704519Y-111691728D01*
X118685916Y-111691733D01*
X118399945Y-111691733D01*
X118399945Y-111090410D01*
X118974973Y-111094834D01*
X118976833Y-111382644D01*
X118977176Y-111451112D01*
X118977304Y-111514375D01*
X119279918Y-111514375D01*
X119280182Y-111458763D01*
X119280420Y-111406400D01*
X119282478Y-110964432D01*
X119263951Y-110920559D01*
X119237488Y-110870517D01*
X119203199Y-110824088D01*
X119165326Y-110786661D01*
X119149239Y-110774835D01*
X119133789Y-110764955D01*
X119119219Y-110756522D01*
X119104315Y-110749423D01*
X119087862Y-110743542D01*
X119068644Y-110738766D01*
X119045448Y-110734978D01*
X119017059Y-110732066D01*
X118982261Y-110729913D01*
X118939840Y-110728406D01*
X118888581Y-110727429D01*
X118827269Y-110726869D01*
X118754690Y-110726609D01*
X118669628Y-110726536D01*
X118637575Y-110726534D01*
X118243170Y-110726534D01*
X118201761Y-110753019D01*
X118201761Y-110753019D01*
G37*
X118201761Y-110753019D02*
X118166102Y-110780860D01*
X118138291Y-110815307D01*
X118114939Y-110860863D01*
X118108455Y-110876958D01*
X118105051Y-110886127D01*
X118102189Y-110895446D01*
X118099821Y-110906386D01*
X118097901Y-110920421D01*
X118096382Y-110939025D01*
X118095217Y-110963669D01*
X118094358Y-110995828D01*
X118093760Y-111036973D01*
X118093375Y-111088579D01*
X118093156Y-111152118D01*
X118093056Y-111229063D01*
X118093029Y-111320887D01*
X118093028Y-111361533D01*
X118093028Y-111806033D01*
X118111837Y-111844425D01*
X118146799Y-111900221D01*
X118192013Y-111948394D01*
X118244200Y-111986132D01*
X118300083Y-112010623D01*
X118308223Y-112012889D01*
X118326373Y-112015695D01*
X118356936Y-112018237D01*
X118398212Y-112020487D01*
X118448505Y-112022422D01*
X118506115Y-112024015D01*
X118569346Y-112025241D01*
X118636498Y-112026075D01*
X118705876Y-112026491D01*
X118775779Y-112026464D01*
X118844511Y-112025969D01*
X118910374Y-112024980D01*
X118971670Y-112023471D01*
X118985556Y-112023027D01*
X119042716Y-112020864D01*
X119087824Y-112018222D01*
X119122941Y-112014443D01*
X119150125Y-112008869D01*
X119171435Y-112000842D01*
X119188930Y-111989703D01*
X119204670Y-111974795D01*
X119220714Y-111955459D01*
X119228376Y-111945412D01*
X119239041Y-111931347D01*
X119248070Y-111918801D01*
X119255605Y-111906297D01*
X119261790Y-111892358D01*
X119266766Y-111875509D01*
X119270677Y-111854272D01*
X119273664Y-111827172D01*
X119275871Y-111792732D01*
X119277439Y-111749476D01*
X119278512Y-111695927D01*
X119279231Y-111630610D01*
X119279740Y-111552047D01*
X119279918Y-111514375D01*
X118977304Y-111514375D01*
X118977226Y-111570394D01*
X118976954Y-111617128D01*
X118976497Y-111652534D01*
X118975867Y-111674574D01*
X118975290Y-111681094D01*
X118971448Y-111683861D01*
X118961149Y-111686139D01*
X118943335Y-111687968D01*
X118916950Y-111689385D01*
X118880933Y-111690431D01*
X118834228Y-111691145D01*
X118775776Y-111691564D01*
X118704519Y-111691728D01*
X118685916Y-111691733D01*
X118399945Y-111691733D01*
X118399945Y-111090410D01*
X118974973Y-111094834D01*
X118976833Y-111382644D01*
X118977176Y-111451112D01*
X118977304Y-111514375D01*
X119279918Y-111514375D01*
X119280182Y-111458763D01*
X119280420Y-111406400D01*
X119282478Y-110964432D01*
X119263951Y-110920559D01*
X119237488Y-110870517D01*
X119203199Y-110824088D01*
X119165326Y-110786661D01*
X119149239Y-110774835D01*
X119133789Y-110764955D01*
X119119219Y-110756522D01*
X119104315Y-110749423D01*
X119087862Y-110743542D01*
X119068644Y-110738766D01*
X119045448Y-110734978D01*
X119017059Y-110732066D01*
X118982261Y-110729913D01*
X118939840Y-110728406D01*
X118888581Y-110727429D01*
X118827269Y-110726869D01*
X118754690Y-110726609D01*
X118669628Y-110726536D01*
X118637575Y-110726534D01*
X118243170Y-110726534D01*
X118201761Y-110753019D01*
%LPC*%
D14*
X105650000Y-103630000D03*
D15*
X100650000Y-103630000D03*
D14*
X100650000Y-117348000D03*
D15*
X105650000Y-117348000D03*
D14*
X92964000Y-107990000D03*
D15*
X92964000Y-112990000D03*
D16*
X90500000Y-101400000D03*
X146000000Y-101300000D03*
X146000000Y-119700000D03*
X90500000Y-119700000D03*
D17*
X111660000Y-105510000D03*
X110390000Y-105510000D03*
X111660000Y-104240000D03*
X110390000Y-104240000D03*
X111660000Y-102970000D03*
X110390000Y-102970000D03*
X111660000Y-101700000D03*
X110390000Y-101700000D03*
X111660000Y-100430000D03*
X110390000Y-100430000D03*
D18*
X139550000Y-114560000D03*
D19*
X139550000Y-117100000D03*
X137010000Y-114560000D03*
X137010000Y-117100000D03*
X134470000Y-114560000D03*
X134470000Y-117100000D03*
D20*
X116030000Y-120650000D03*
D21*
X118570000Y-120650000D03*
X121110000Y-120650000D03*
X123650000Y-120650000D03*
X126190000Y-120650000D03*
X128730000Y-120650000D03*
X131270000Y-120650000D03*
X133810000Y-120650000D03*
X136350000Y-120650000D03*
X138890000Y-120650000D03*
D20*
X138890000Y-100330000D03*
D21*
X136350000Y-100330000D03*
X133810000Y-100330000D03*
X131270000Y-100330000D03*
X128730000Y-100330000D03*
X126190000Y-100330000D03*
X123650000Y-100330000D03*
X121110000Y-100330000D03*
X118570000Y-100330000D03*
X116030000Y-100330000D03*
D22*
X143770000Y-112705000D03*
X143770000Y-108255000D03*
D23*
X146770000Y-114655000D03*
X146770000Y-106305000D03*
D17*
X93470000Y-102370000D03*
X95270000Y-102370000D03*
M02*
