M48
;DRILL file {KiCad 4.0.2-stable} date 11/17/2016 12:04:18 PM
;FORMAT={-:-/ absolute / metric / decimal}
FMAT,2
METRIC,TZ
T1C0.300
T2C0.400
T3C0.500
T4C1.016
T5C1.097
T6C2.500
T7C0.650
T8C0.700
%
G90
G05
M71
T1
X103.15Y-109.91
X103.15Y-110.51
X103.15Y-111.09
T2
X96.Y-99.88
X98.77Y-110.55
X100.375Y-109.725
X100.375Y-111.325
X101.35Y-109.475
X101.35Y-111.575
X103.15Y-108.
X103.15Y-113.
X103.9Y-107.25
X103.9Y-113.75
X105.4Y-109.9
X105.4Y-110.75
X105.82Y-112.37
X105.84Y-111.52
X105.85Y-109.18
X110.4Y-112.93
X110.97Y-110.5
X111.4Y-112.97
X113.63Y-112.97
X114.11Y-105.92
X114.51Y-117.42
X116.07Y-116.11
X117.6Y-112.75
X117.67Y-108.46
X118.24Y-105.92
X118.84Y-107.02
X118.84Y-115.84
X121.62Y-104.76
X121.67Y-111.15
X121.71Y-115.71
X122.1Y-109.11
X122.29Y-118.2
X122.43Y-111.72
X122.5Y-116.4
X122.69Y-104.5
X123.15Y-117.15
X123.52Y-112.74
X123.73Y-107.74
X123.76Y-118.25
X124.77Y-116.62
X125.3Y-110.26
X125.31Y-108.07
X125.67Y-113.59
X126.33Y-116.79
X126.34Y-107.99
X126.35Y-117.61
X126.55Y-112.12
X126.98Y-110.47
X127.382Y-104.64
X127.44Y-109.53
X127.59Y-116.26
X127.94Y-110.44
X129.4Y-104.26
X129.41Y-103.26
X130.17Y-118.06
X130.32Y-106.08
X130.34Y-101.94
X130.34Y-114.56
X130.8Y-116.74
X130.82Y-115.29
X131.18Y-113.88
X131.27Y-112.48
X132.17Y-110.44
X132.25Y-109.59
X132.51Y-118.57
X133.02Y-106.33
X134.55Y-103.18
X136.13Y-109.22
X136.22Y-108.36
T3
X110.39Y-100.43
X110.39Y-101.7
X110.39Y-102.97
X110.39Y-104.24
X110.39Y-105.51
X111.66Y-100.43
X111.66Y-101.7
X111.66Y-102.97
X111.66Y-104.24
X111.66Y-105.51
T4
X116.03Y-100.33
X116.03Y-120.65
X118.57Y-100.33
X118.57Y-120.65
X121.11Y-100.33
X121.11Y-120.65
X123.65Y-100.33
X123.65Y-120.65
X126.19Y-100.33
X126.19Y-120.65
X128.73Y-100.33
X128.73Y-120.65
X131.27Y-100.33
X131.27Y-120.65
X133.81Y-100.33
X133.81Y-120.65
X134.47Y-114.56
X134.47Y-117.1
X136.35Y-100.33
X136.35Y-120.65
X137.01Y-114.56
X137.01Y-117.1
X138.89Y-100.33
X138.89Y-120.65
X139.55Y-114.56
X139.55Y-117.1
T5
X92.964Y-107.99
X92.964Y-112.99
X100.65Y-103.63
X100.65Y-117.348
X105.65Y-103.63
X105.65Y-117.348
T6
X90.5Y-101.4
X90.5Y-119.7
X146.Y-101.3
X146.Y-119.7
T8
X93.47Y-102.37
X95.27Y-102.37
T7
X143.87Y-108.255G85X143.67Y-108.255
G05
X143.87Y-112.705G85X143.67Y-112.705
G05
X147.095Y-106.305G85X146.445Y-106.305
G05
X147.095Y-114.655G85X146.445Y-114.655
G05
T0
M30
